<mxfile host="Electron" modified="2024-03-15T02:30:52.764Z" agent="Mozilla/5.0 (Windows NT 10.0; Win64; x64) AppleWebKit/537.36 (KHTML, like Gecko) draw.io/21.2.1 Chrome/112.0.5615.87 Electron/24.1.2 Safari/537.36" etag="yRBs-yYpknF5gaSBVzgL" version="21.2.1" type="device">
  <diagram name="第 1 页" id="q2MmdKpxe81tEegyug4n">
    <mxGraphModel dx="5033" dy="2870" grid="1" gridSize="10" guides="1" tooltips="1" connect="1" arrows="1" fold="1" page="1" pageScale="1" pageWidth="1600" pageHeight="900" math="0" shadow="0">
      <root>
        <mxCell id="0" />
        <mxCell id="1" parent="0" />
        <mxCell id="8cDULGTI0yvlnEvUJcVY-23" value="&lt;font style=&quot;font-size: 28px;&quot;&gt;E&lt;br&gt;A&lt;br&gt;R&lt;br&gt;N&lt;br&gt;&lt;br&gt;M&lt;br&gt;O&lt;br&gt;N&lt;br&gt;E&lt;br&gt;Y&lt;/font&gt;" style="rounded=0;whiteSpace=wrap;html=1;fillColor=#ffe6cc;strokeColor=#d79b00;" vertex="1" parent="1">
          <mxGeometry width="80" height="900" as="geometry" />
        </mxCell>
        <mxCell id="8cDULGTI0yvlnEvUJcVY-24" value="&lt;font style=&quot;font-size: 28px;&quot;&gt;Quit&lt;br&gt;&lt;/font&gt;" style="rounded=0;whiteSpace=wrap;html=1;fillColor=#f8cecc;strokeColor=#b85450;" vertex="1" parent="1">
          <mxGeometry y="880" width="1600" height="20" as="geometry" />
        </mxCell>
        <mxCell id="8cDULGTI0yvlnEvUJcVY-25" value="Card title" style="swimlane;whiteSpace=wrap;html=1;" vertex="1" parent="1">
          <mxGeometry x="267.5" y="480" width="250" height="250" as="geometry" />
        </mxCell>
        <mxCell id="8cDULGTI0yvlnEvUJcVY-26" value="Card title" style="swimlane;whiteSpace=wrap;html=1;" vertex="1" parent="1">
          <mxGeometry x="620" y="480" width="250" height="250" as="geometry" />
        </mxCell>
        <mxCell id="8cDULGTI0yvlnEvUJcVY-27" value="Card title" style="swimlane;whiteSpace=wrap;html=1;" vertex="1" parent="1">
          <mxGeometry x="970" y="480" width="250" height="250" as="geometry" />
        </mxCell>
        <mxCell id="8cDULGTI0yvlnEvUJcVY-28" value="Card title" style="swimlane;whiteSpace=wrap;html=1;" vertex="1" parent="1">
          <mxGeometry x="270" y="180" width="250" height="250" as="geometry" />
        </mxCell>
        <mxCell id="8cDULGTI0yvlnEvUJcVY-29" value="Card title" style="swimlane;whiteSpace=wrap;html=1;" vertex="1" parent="1">
          <mxGeometry x="620" y="180" width="250" height="250" as="geometry" />
        </mxCell>
        <mxCell id="8cDULGTI0yvlnEvUJcVY-30" value="Card title" style="swimlane;whiteSpace=wrap;html=1;" vertex="1" parent="1">
          <mxGeometry x="970" y="180" width="250" height="250" as="geometry" />
        </mxCell>
        <mxCell id="8cDULGTI0yvlnEvUJcVY-31" value="Card title" style="swimlane;whiteSpace=wrap;html=1;" vertex="1" parent="1">
          <mxGeometry x="270" y="-130" width="250" height="250" as="geometry" />
        </mxCell>
        <mxCell id="8cDULGTI0yvlnEvUJcVY-32" value="Card title" style="swimlane;whiteSpace=wrap;html=1;" vertex="1" parent="1">
          <mxGeometry x="620" y="-130" width="250" height="250" as="geometry" />
        </mxCell>
        <mxCell id="8cDULGTI0yvlnEvUJcVY-33" value="Card title" style="swimlane;whiteSpace=wrap;html=1;" vertex="1" parent="1">
          <mxGeometry x="970" y="-130" width="250" height="250" as="geometry" />
        </mxCell>
        <mxCell id="8cDULGTI0yvlnEvUJcVY-34" value="$10" style="rounded=0;whiteSpace=wrap;html=1;" vertex="1" parent="1">
          <mxGeometry x="335" y="730" width="115" height="20" as="geometry" />
        </mxCell>
        <mxCell id="8cDULGTI0yvlnEvUJcVY-36" value="$50" style="rounded=0;whiteSpace=wrap;html=1;" vertex="1" parent="1">
          <mxGeometry x="337.5" y="430" width="115" height="20" as="geometry" />
        </mxCell>
        <mxCell id="8cDULGTI0yvlnEvUJcVY-37" value="$100" style="rounded=0;whiteSpace=wrap;html=1;" vertex="1" parent="1">
          <mxGeometry x="335" y="120" width="115" height="20" as="geometry" />
        </mxCell>
        <mxCell id="8cDULGTI0yvlnEvUJcVY-38" value="$10" style="rounded=0;whiteSpace=wrap;html=1;" vertex="1" parent="1">
          <mxGeometry x="686.25" y="730" width="115" height="20" as="geometry" />
        </mxCell>
        <mxCell id="8cDULGTI0yvlnEvUJcVY-39" value="$10" style="rounded=0;whiteSpace=wrap;html=1;" vertex="1" parent="1">
          <mxGeometry x="688.75" y="430" width="115" height="20" as="geometry" />
        </mxCell>
        <mxCell id="8cDULGTI0yvlnEvUJcVY-40" value="$10" style="rounded=0;whiteSpace=wrap;html=1;" vertex="1" parent="1">
          <mxGeometry x="686.25" y="120" width="115" height="20" as="geometry" />
        </mxCell>
        <mxCell id="8cDULGTI0yvlnEvUJcVY-41" value="$10" style="rounded=0;whiteSpace=wrap;html=1;" vertex="1" parent="1">
          <mxGeometry x="1036.25" y="730" width="115" height="20" as="geometry" />
        </mxCell>
        <mxCell id="8cDULGTI0yvlnEvUJcVY-42" value="$10" style="rounded=0;whiteSpace=wrap;html=1;" vertex="1" parent="1">
          <mxGeometry x="1038.75" y="430" width="115" height="20" as="geometry" />
        </mxCell>
        <mxCell id="8cDULGTI0yvlnEvUJcVY-43" value="$10" style="rounded=0;whiteSpace=wrap;html=1;" vertex="1" parent="1">
          <mxGeometry x="1036.25" y="120" width="115" height="20" as="geometry" />
        </mxCell>
        <mxCell id="8cDULGTI0yvlnEvUJcVY-44" value="Today&#39;s Revenue" style="swimlane;whiteSpace=wrap;html=1;" vertex="1" parent="1">
          <mxGeometry x="1320" y="10" width="250" height="70" as="geometry" />
        </mxCell>
        <mxCell id="8cDULGTI0yvlnEvUJcVY-45" value="Lifetime revenue" style="swimlane;whiteSpace=wrap;html=1;" vertex="1" parent="1">
          <mxGeometry x="1320" y="100" width="250" height="70" as="geometry" />
        </mxCell>
        <mxCell id="8cDULGTI0yvlnEvUJcVY-46" value="Lifetime revenue" style="swimlane;whiteSpace=wrap;html=1;" vertex="1" parent="1">
          <mxGeometry x="1320" y="190" width="250" height="270" as="geometry" />
        </mxCell>
        <mxCell id="8cDULGTI0yvlnEvUJcVY-53" value="" style="childLayout=tableLayout;recursiveResize=0;shadow=0;fillColor=none;" vertex="1" parent="8cDULGTI0yvlnEvUJcVY-46">
          <mxGeometry x="5" y="30" width="237" height="220" as="geometry" />
        </mxCell>
        <mxCell id="8cDULGTI0yvlnEvUJcVY-104" style="shape=tableRow;horizontal=0;startSize=0;swimlaneHead=0;swimlaneBody=0;top=0;left=0;bottom=0;right=0;dropTarget=0;collapsible=0;recursiveResize=0;expand=0;fontStyle=0;fillColor=none;strokeColor=inherit;" vertex="1" parent="8cDULGTI0yvlnEvUJcVY-53">
          <mxGeometry width="237" height="20" as="geometry" />
        </mxCell>
        <mxCell id="8cDULGTI0yvlnEvUJcVY-105" style="connectable=0;recursiveResize=0;strokeColor=#82b366;fillColor=#d5e8d4;align=center;whiteSpace=wrap;html=1;" vertex="1" parent="8cDULGTI0yvlnEvUJcVY-104">
          <mxGeometry width="34" height="20" as="geometry">
            <mxRectangle width="34" height="20" as="alternateBounds" />
          </mxGeometry>
        </mxCell>
        <mxCell id="8cDULGTI0yvlnEvUJcVY-106" style="connectable=0;recursiveResize=0;strokeColor=#b85450;fillColor=#f8cecc;align=center;whiteSpace=wrap;html=1;" vertex="1" parent="8cDULGTI0yvlnEvUJcVY-104">
          <mxGeometry x="34" width="34" height="20" as="geometry">
            <mxRectangle width="34" height="20" as="alternateBounds" />
          </mxGeometry>
        </mxCell>
        <mxCell id="8cDULGTI0yvlnEvUJcVY-107" style="connectable=0;recursiveResize=0;strokeColor=#82b366;fillColor=#d5e8d4;align=center;whiteSpace=wrap;html=1;" vertex="1" parent="8cDULGTI0yvlnEvUJcVY-104">
          <mxGeometry x="68" width="33" height="20" as="geometry">
            <mxRectangle width="33" height="20" as="alternateBounds" />
          </mxGeometry>
        </mxCell>
        <mxCell id="8cDULGTI0yvlnEvUJcVY-108" style="connectable=0;recursiveResize=0;strokeColor=#82b366;fillColor=#d5e8d4;align=center;whiteSpace=wrap;html=1;" vertex="1" parent="8cDULGTI0yvlnEvUJcVY-104">
          <mxGeometry x="101" width="34" height="20" as="geometry">
            <mxRectangle width="34" height="20" as="alternateBounds" />
          </mxGeometry>
        </mxCell>
        <mxCell id="8cDULGTI0yvlnEvUJcVY-109" style="connectable=0;recursiveResize=0;strokeColor=#b85450;fillColor=#f8cecc;align=center;whiteSpace=wrap;html=1;" vertex="1" parent="8cDULGTI0yvlnEvUJcVY-104">
          <mxGeometry x="135" width="34" height="20" as="geometry">
            <mxRectangle width="34" height="20" as="alternateBounds" />
          </mxGeometry>
        </mxCell>
        <mxCell id="8cDULGTI0yvlnEvUJcVY-120" style="connectable=0;recursiveResize=0;strokeColor=#b85450;fillColor=#f8cecc;align=center;whiteSpace=wrap;html=1;" vertex="1" parent="8cDULGTI0yvlnEvUJcVY-104">
          <mxGeometry x="169" width="34" height="20" as="geometry">
            <mxRectangle width="34" height="20" as="alternateBounds" />
          </mxGeometry>
        </mxCell>
        <mxCell id="8cDULGTI0yvlnEvUJcVY-131" style="connectable=0;recursiveResize=0;strokeColor=#b85450;fillColor=#f8cecc;align=center;whiteSpace=wrap;html=1;" vertex="1" parent="8cDULGTI0yvlnEvUJcVY-104">
          <mxGeometry x="203" width="34" height="20" as="geometry">
            <mxRectangle width="34" height="20" as="alternateBounds" />
          </mxGeometry>
        </mxCell>
        <mxCell id="8cDULGTI0yvlnEvUJcVY-99" style="shape=tableRow;horizontal=0;startSize=0;swimlaneHead=0;swimlaneBody=0;top=0;left=0;bottom=0;right=0;dropTarget=0;collapsible=0;recursiveResize=0;expand=0;fontStyle=0;fillColor=none;strokeColor=inherit;" vertex="1" parent="8cDULGTI0yvlnEvUJcVY-53">
          <mxGeometry y="20" width="237" height="20" as="geometry" />
        </mxCell>
        <mxCell id="8cDULGTI0yvlnEvUJcVY-100" style="connectable=0;recursiveResize=0;strokeColor=#82b366;fillColor=#d5e8d4;align=center;whiteSpace=wrap;html=1;" vertex="1" parent="8cDULGTI0yvlnEvUJcVY-99">
          <mxGeometry width="34" height="20" as="geometry">
            <mxRectangle width="34" height="20" as="alternateBounds" />
          </mxGeometry>
        </mxCell>
        <mxCell id="8cDULGTI0yvlnEvUJcVY-101" style="connectable=0;recursiveResize=0;strokeColor=#82b366;fillColor=#d5e8d4;align=center;whiteSpace=wrap;html=1;" vertex="1" parent="8cDULGTI0yvlnEvUJcVY-99">
          <mxGeometry x="34" width="34" height="20" as="geometry">
            <mxRectangle width="34" height="20" as="alternateBounds" />
          </mxGeometry>
        </mxCell>
        <mxCell id="8cDULGTI0yvlnEvUJcVY-102" style="connectable=0;recursiveResize=0;strokeColor=#b85450;fillColor=#f8cecc;align=center;whiteSpace=wrap;html=1;" vertex="1" parent="8cDULGTI0yvlnEvUJcVY-99">
          <mxGeometry x="68" width="33" height="20" as="geometry">
            <mxRectangle width="33" height="20" as="alternateBounds" />
          </mxGeometry>
        </mxCell>
        <mxCell id="8cDULGTI0yvlnEvUJcVY-103" style="connectable=0;recursiveResize=0;strokeColor=#82b366;fillColor=#d5e8d4;align=center;whiteSpace=wrap;html=1;" vertex="1" parent="8cDULGTI0yvlnEvUJcVY-99">
          <mxGeometry x="101" width="34" height="20" as="geometry">
            <mxRectangle width="34" height="20" as="alternateBounds" />
          </mxGeometry>
        </mxCell>
        <mxCell id="8cDULGTI0yvlnEvUJcVY-110" style="connectable=0;recursiveResize=0;strokeColor=#b85450;fillColor=#f8cecc;align=center;whiteSpace=wrap;html=1;" vertex="1" parent="8cDULGTI0yvlnEvUJcVY-99">
          <mxGeometry x="135" width="34" height="20" as="geometry">
            <mxRectangle width="34" height="20" as="alternateBounds" />
          </mxGeometry>
        </mxCell>
        <mxCell id="8cDULGTI0yvlnEvUJcVY-121" style="connectable=0;recursiveResize=0;strokeColor=#82b366;fillColor=#d5e8d4;align=center;whiteSpace=wrap;html=1;" vertex="1" parent="8cDULGTI0yvlnEvUJcVY-99">
          <mxGeometry x="169" width="34" height="20" as="geometry">
            <mxRectangle width="34" height="20" as="alternateBounds" />
          </mxGeometry>
        </mxCell>
        <mxCell id="8cDULGTI0yvlnEvUJcVY-132" style="connectable=0;recursiveResize=0;strokeColor=#82b366;fillColor=#d5e8d4;align=center;whiteSpace=wrap;html=1;" vertex="1" parent="8cDULGTI0yvlnEvUJcVY-99">
          <mxGeometry x="203" width="34" height="20" as="geometry">
            <mxRectangle width="34" height="20" as="alternateBounds" />
          </mxGeometry>
        </mxCell>
        <mxCell id="8cDULGTI0yvlnEvUJcVY-94" style="shape=tableRow;horizontal=0;startSize=0;swimlaneHead=0;swimlaneBody=0;top=0;left=0;bottom=0;right=0;dropTarget=0;collapsible=0;recursiveResize=0;expand=0;fontStyle=0;fillColor=none;strokeColor=inherit;" vertex="1" parent="8cDULGTI0yvlnEvUJcVY-53">
          <mxGeometry y="40" width="237" height="20" as="geometry" />
        </mxCell>
        <mxCell id="8cDULGTI0yvlnEvUJcVY-95" style="connectable=0;recursiveResize=0;strokeColor=#82b366;fillColor=#d5e8d4;align=center;whiteSpace=wrap;html=1;" vertex="1" parent="8cDULGTI0yvlnEvUJcVY-94">
          <mxGeometry width="34" height="20" as="geometry">
            <mxRectangle width="34" height="20" as="alternateBounds" />
          </mxGeometry>
        </mxCell>
        <mxCell id="8cDULGTI0yvlnEvUJcVY-96" style="connectable=0;recursiveResize=0;strokeColor=#b85450;fillColor=#f8cecc;align=center;whiteSpace=wrap;html=1;" vertex="1" parent="8cDULGTI0yvlnEvUJcVY-94">
          <mxGeometry x="34" width="34" height="20" as="geometry">
            <mxRectangle width="34" height="20" as="alternateBounds" />
          </mxGeometry>
        </mxCell>
        <mxCell id="8cDULGTI0yvlnEvUJcVY-97" style="connectable=0;recursiveResize=0;strokeColor=#b85450;fillColor=#f8cecc;align=center;whiteSpace=wrap;html=1;" vertex="1" parent="8cDULGTI0yvlnEvUJcVY-94">
          <mxGeometry x="68" width="33" height="20" as="geometry">
            <mxRectangle width="33" height="20" as="alternateBounds" />
          </mxGeometry>
        </mxCell>
        <mxCell id="8cDULGTI0yvlnEvUJcVY-98" style="connectable=0;recursiveResize=0;strokeColor=#b85450;fillColor=#f8cecc;align=center;whiteSpace=wrap;html=1;" vertex="1" parent="8cDULGTI0yvlnEvUJcVY-94">
          <mxGeometry x="101" width="34" height="20" as="geometry">
            <mxRectangle width="34" height="20" as="alternateBounds" />
          </mxGeometry>
        </mxCell>
        <mxCell id="8cDULGTI0yvlnEvUJcVY-111" style="connectable=0;recursiveResize=0;strokeColor=inherit;fillColor=none;align=center;whiteSpace=wrap;html=1;" vertex="1" parent="8cDULGTI0yvlnEvUJcVY-94">
          <mxGeometry x="135" width="34" height="20" as="geometry">
            <mxRectangle width="34" height="20" as="alternateBounds" />
          </mxGeometry>
        </mxCell>
        <mxCell id="8cDULGTI0yvlnEvUJcVY-122" style="connectable=0;recursiveResize=0;strokeColor=inherit;fillColor=none;align=center;whiteSpace=wrap;html=1;" vertex="1" parent="8cDULGTI0yvlnEvUJcVY-94">
          <mxGeometry x="169" width="34" height="20" as="geometry">
            <mxRectangle width="34" height="20" as="alternateBounds" />
          </mxGeometry>
        </mxCell>
        <mxCell id="8cDULGTI0yvlnEvUJcVY-133" style="connectable=0;recursiveResize=0;strokeColor=inherit;fillColor=none;align=center;whiteSpace=wrap;html=1;" vertex="1" parent="8cDULGTI0yvlnEvUJcVY-94">
          <mxGeometry x="203" width="34" height="20" as="geometry">
            <mxRectangle width="34" height="20" as="alternateBounds" />
          </mxGeometry>
        </mxCell>
        <mxCell id="8cDULGTI0yvlnEvUJcVY-89" style="shape=tableRow;horizontal=0;startSize=0;swimlaneHead=0;swimlaneBody=0;top=0;left=0;bottom=0;right=0;dropTarget=0;collapsible=0;recursiveResize=0;expand=0;fontStyle=0;fillColor=none;strokeColor=inherit;" vertex="1" parent="8cDULGTI0yvlnEvUJcVY-53">
          <mxGeometry y="60" width="237" height="20" as="geometry" />
        </mxCell>
        <mxCell id="8cDULGTI0yvlnEvUJcVY-90" style="connectable=0;recursiveResize=0;strokeColor=inherit;fillColor=none;align=center;whiteSpace=wrap;html=1;" vertex="1" parent="8cDULGTI0yvlnEvUJcVY-89">
          <mxGeometry width="34" height="20" as="geometry">
            <mxRectangle width="34" height="20" as="alternateBounds" />
          </mxGeometry>
        </mxCell>
        <mxCell id="8cDULGTI0yvlnEvUJcVY-91" style="connectable=0;recursiveResize=0;strokeColor=inherit;fillColor=none;align=center;whiteSpace=wrap;html=1;" vertex="1" parent="8cDULGTI0yvlnEvUJcVY-89">
          <mxGeometry x="34" width="34" height="20" as="geometry">
            <mxRectangle width="34" height="20" as="alternateBounds" />
          </mxGeometry>
        </mxCell>
        <mxCell id="8cDULGTI0yvlnEvUJcVY-92" style="connectable=0;recursiveResize=0;strokeColor=inherit;fillColor=none;align=center;whiteSpace=wrap;html=1;" vertex="1" parent="8cDULGTI0yvlnEvUJcVY-89">
          <mxGeometry x="68" width="33" height="20" as="geometry">
            <mxRectangle width="33" height="20" as="alternateBounds" />
          </mxGeometry>
        </mxCell>
        <mxCell id="8cDULGTI0yvlnEvUJcVY-93" style="connectable=0;recursiveResize=0;strokeColor=inherit;fillColor=none;align=center;whiteSpace=wrap;html=1;" vertex="1" parent="8cDULGTI0yvlnEvUJcVY-89">
          <mxGeometry x="101" width="34" height="20" as="geometry">
            <mxRectangle width="34" height="20" as="alternateBounds" />
          </mxGeometry>
        </mxCell>
        <mxCell id="8cDULGTI0yvlnEvUJcVY-112" style="connectable=0;recursiveResize=0;strokeColor=inherit;fillColor=none;align=center;whiteSpace=wrap;html=1;" vertex="1" parent="8cDULGTI0yvlnEvUJcVY-89">
          <mxGeometry x="135" width="34" height="20" as="geometry">
            <mxRectangle width="34" height="20" as="alternateBounds" />
          </mxGeometry>
        </mxCell>
        <mxCell id="8cDULGTI0yvlnEvUJcVY-123" style="connectable=0;recursiveResize=0;strokeColor=inherit;fillColor=none;align=center;whiteSpace=wrap;html=1;" vertex="1" parent="8cDULGTI0yvlnEvUJcVY-89">
          <mxGeometry x="169" width="34" height="20" as="geometry">
            <mxRectangle width="34" height="20" as="alternateBounds" />
          </mxGeometry>
        </mxCell>
        <mxCell id="8cDULGTI0yvlnEvUJcVY-134" style="connectable=0;recursiveResize=0;strokeColor=inherit;fillColor=none;align=center;whiteSpace=wrap;html=1;" vertex="1" parent="8cDULGTI0yvlnEvUJcVY-89">
          <mxGeometry x="203" width="34" height="20" as="geometry">
            <mxRectangle width="34" height="20" as="alternateBounds" />
          </mxGeometry>
        </mxCell>
        <mxCell id="8cDULGTI0yvlnEvUJcVY-84" style="shape=tableRow;horizontal=0;startSize=0;swimlaneHead=0;swimlaneBody=0;top=0;left=0;bottom=0;right=0;dropTarget=0;collapsible=0;recursiveResize=0;expand=0;fontStyle=0;fillColor=none;strokeColor=inherit;" vertex="1" parent="8cDULGTI0yvlnEvUJcVY-53">
          <mxGeometry y="80" width="237" height="20" as="geometry" />
        </mxCell>
        <mxCell id="8cDULGTI0yvlnEvUJcVY-85" style="connectable=0;recursiveResize=0;strokeColor=inherit;fillColor=none;align=center;whiteSpace=wrap;html=1;" vertex="1" parent="8cDULGTI0yvlnEvUJcVY-84">
          <mxGeometry width="34" height="20" as="geometry">
            <mxRectangle width="34" height="20" as="alternateBounds" />
          </mxGeometry>
        </mxCell>
        <mxCell id="8cDULGTI0yvlnEvUJcVY-86" style="connectable=0;recursiveResize=0;strokeColor=inherit;fillColor=none;align=center;whiteSpace=wrap;html=1;" vertex="1" parent="8cDULGTI0yvlnEvUJcVY-84">
          <mxGeometry x="34" width="34" height="20" as="geometry">
            <mxRectangle width="34" height="20" as="alternateBounds" />
          </mxGeometry>
        </mxCell>
        <mxCell id="8cDULGTI0yvlnEvUJcVY-87" style="connectable=0;recursiveResize=0;strokeColor=inherit;fillColor=none;align=center;whiteSpace=wrap;html=1;" vertex="1" parent="8cDULGTI0yvlnEvUJcVY-84">
          <mxGeometry x="68" width="33" height="20" as="geometry">
            <mxRectangle width="33" height="20" as="alternateBounds" />
          </mxGeometry>
        </mxCell>
        <mxCell id="8cDULGTI0yvlnEvUJcVY-88" style="connectable=0;recursiveResize=0;strokeColor=inherit;fillColor=none;align=center;whiteSpace=wrap;html=1;" vertex="1" parent="8cDULGTI0yvlnEvUJcVY-84">
          <mxGeometry x="101" width="34" height="20" as="geometry">
            <mxRectangle width="34" height="20" as="alternateBounds" />
          </mxGeometry>
        </mxCell>
        <mxCell id="8cDULGTI0yvlnEvUJcVY-113" style="connectable=0;recursiveResize=0;strokeColor=inherit;fillColor=none;align=center;whiteSpace=wrap;html=1;" vertex="1" parent="8cDULGTI0yvlnEvUJcVY-84">
          <mxGeometry x="135" width="34" height="20" as="geometry">
            <mxRectangle width="34" height="20" as="alternateBounds" />
          </mxGeometry>
        </mxCell>
        <mxCell id="8cDULGTI0yvlnEvUJcVY-124" style="connectable=0;recursiveResize=0;strokeColor=inherit;fillColor=none;align=center;whiteSpace=wrap;html=1;" vertex="1" parent="8cDULGTI0yvlnEvUJcVY-84">
          <mxGeometry x="169" width="34" height="20" as="geometry">
            <mxRectangle width="34" height="20" as="alternateBounds" />
          </mxGeometry>
        </mxCell>
        <mxCell id="8cDULGTI0yvlnEvUJcVY-135" style="connectable=0;recursiveResize=0;strokeColor=inherit;fillColor=none;align=center;whiteSpace=wrap;html=1;" vertex="1" parent="8cDULGTI0yvlnEvUJcVY-84">
          <mxGeometry x="203" width="34" height="20" as="geometry">
            <mxRectangle width="34" height="20" as="alternateBounds" />
          </mxGeometry>
        </mxCell>
        <mxCell id="8cDULGTI0yvlnEvUJcVY-79" style="shape=tableRow;horizontal=0;startSize=0;swimlaneHead=0;swimlaneBody=0;top=0;left=0;bottom=0;right=0;dropTarget=0;collapsible=0;recursiveResize=0;expand=0;fontStyle=0;fillColor=none;strokeColor=inherit;" vertex="1" parent="8cDULGTI0yvlnEvUJcVY-53">
          <mxGeometry y="100" width="237" height="20" as="geometry" />
        </mxCell>
        <mxCell id="8cDULGTI0yvlnEvUJcVY-80" style="connectable=0;recursiveResize=0;strokeColor=inherit;fillColor=none;align=center;whiteSpace=wrap;html=1;" vertex="1" parent="8cDULGTI0yvlnEvUJcVY-79">
          <mxGeometry width="34" height="20" as="geometry">
            <mxRectangle width="34" height="20" as="alternateBounds" />
          </mxGeometry>
        </mxCell>
        <mxCell id="8cDULGTI0yvlnEvUJcVY-81" style="connectable=0;recursiveResize=0;strokeColor=inherit;fillColor=none;align=center;whiteSpace=wrap;html=1;" vertex="1" parent="8cDULGTI0yvlnEvUJcVY-79">
          <mxGeometry x="34" width="34" height="20" as="geometry">
            <mxRectangle width="34" height="20" as="alternateBounds" />
          </mxGeometry>
        </mxCell>
        <mxCell id="8cDULGTI0yvlnEvUJcVY-82" style="connectable=0;recursiveResize=0;strokeColor=inherit;fillColor=none;align=center;whiteSpace=wrap;html=1;" vertex="1" parent="8cDULGTI0yvlnEvUJcVY-79">
          <mxGeometry x="68" width="33" height="20" as="geometry">
            <mxRectangle width="33" height="20" as="alternateBounds" />
          </mxGeometry>
        </mxCell>
        <mxCell id="8cDULGTI0yvlnEvUJcVY-83" style="connectable=0;recursiveResize=0;strokeColor=inherit;fillColor=none;align=center;whiteSpace=wrap;html=1;" vertex="1" parent="8cDULGTI0yvlnEvUJcVY-79">
          <mxGeometry x="101" width="34" height="20" as="geometry">
            <mxRectangle width="34" height="20" as="alternateBounds" />
          </mxGeometry>
        </mxCell>
        <mxCell id="8cDULGTI0yvlnEvUJcVY-114" style="connectable=0;recursiveResize=0;strokeColor=inherit;fillColor=none;align=center;whiteSpace=wrap;html=1;" vertex="1" parent="8cDULGTI0yvlnEvUJcVY-79">
          <mxGeometry x="135" width="34" height="20" as="geometry">
            <mxRectangle width="34" height="20" as="alternateBounds" />
          </mxGeometry>
        </mxCell>
        <mxCell id="8cDULGTI0yvlnEvUJcVY-125" style="connectable=0;recursiveResize=0;strokeColor=inherit;fillColor=none;align=center;whiteSpace=wrap;html=1;" vertex="1" parent="8cDULGTI0yvlnEvUJcVY-79">
          <mxGeometry x="169" width="34" height="20" as="geometry">
            <mxRectangle width="34" height="20" as="alternateBounds" />
          </mxGeometry>
        </mxCell>
        <mxCell id="8cDULGTI0yvlnEvUJcVY-136" style="connectable=0;recursiveResize=0;strokeColor=inherit;fillColor=none;align=center;whiteSpace=wrap;html=1;" vertex="1" parent="8cDULGTI0yvlnEvUJcVY-79">
          <mxGeometry x="203" width="34" height="20" as="geometry">
            <mxRectangle width="34" height="20" as="alternateBounds" />
          </mxGeometry>
        </mxCell>
        <mxCell id="8cDULGTI0yvlnEvUJcVY-74" style="shape=tableRow;horizontal=0;startSize=0;swimlaneHead=0;swimlaneBody=0;top=0;left=0;bottom=0;right=0;dropTarget=0;collapsible=0;recursiveResize=0;expand=0;fontStyle=0;fillColor=none;strokeColor=inherit;" vertex="1" parent="8cDULGTI0yvlnEvUJcVY-53">
          <mxGeometry y="120" width="237" height="20" as="geometry" />
        </mxCell>
        <mxCell id="8cDULGTI0yvlnEvUJcVY-75" style="connectable=0;recursiveResize=0;strokeColor=inherit;fillColor=none;align=center;whiteSpace=wrap;html=1;" vertex="1" parent="8cDULGTI0yvlnEvUJcVY-74">
          <mxGeometry width="34" height="20" as="geometry">
            <mxRectangle width="34" height="20" as="alternateBounds" />
          </mxGeometry>
        </mxCell>
        <mxCell id="8cDULGTI0yvlnEvUJcVY-76" style="connectable=0;recursiveResize=0;strokeColor=inherit;fillColor=none;align=center;whiteSpace=wrap;html=1;" vertex="1" parent="8cDULGTI0yvlnEvUJcVY-74">
          <mxGeometry x="34" width="34" height="20" as="geometry">
            <mxRectangle width="34" height="20" as="alternateBounds" />
          </mxGeometry>
        </mxCell>
        <mxCell id="8cDULGTI0yvlnEvUJcVY-77" style="connectable=0;recursiveResize=0;strokeColor=inherit;fillColor=none;align=center;whiteSpace=wrap;html=1;" vertex="1" parent="8cDULGTI0yvlnEvUJcVY-74">
          <mxGeometry x="68" width="33" height="20" as="geometry">
            <mxRectangle width="33" height="20" as="alternateBounds" />
          </mxGeometry>
        </mxCell>
        <mxCell id="8cDULGTI0yvlnEvUJcVY-78" style="connectable=0;recursiveResize=0;strokeColor=inherit;fillColor=none;align=center;whiteSpace=wrap;html=1;" vertex="1" parent="8cDULGTI0yvlnEvUJcVY-74">
          <mxGeometry x="101" width="34" height="20" as="geometry">
            <mxRectangle width="34" height="20" as="alternateBounds" />
          </mxGeometry>
        </mxCell>
        <mxCell id="8cDULGTI0yvlnEvUJcVY-115" style="connectable=0;recursiveResize=0;strokeColor=inherit;fillColor=none;align=center;whiteSpace=wrap;html=1;" vertex="1" parent="8cDULGTI0yvlnEvUJcVY-74">
          <mxGeometry x="135" width="34" height="20" as="geometry">
            <mxRectangle width="34" height="20" as="alternateBounds" />
          </mxGeometry>
        </mxCell>
        <mxCell id="8cDULGTI0yvlnEvUJcVY-126" style="connectable=0;recursiveResize=0;strokeColor=inherit;fillColor=none;align=center;whiteSpace=wrap;html=1;" vertex="1" parent="8cDULGTI0yvlnEvUJcVY-74">
          <mxGeometry x="169" width="34" height="20" as="geometry">
            <mxRectangle width="34" height="20" as="alternateBounds" />
          </mxGeometry>
        </mxCell>
        <mxCell id="8cDULGTI0yvlnEvUJcVY-137" style="connectable=0;recursiveResize=0;strokeColor=inherit;fillColor=none;align=center;whiteSpace=wrap;html=1;" vertex="1" parent="8cDULGTI0yvlnEvUJcVY-74">
          <mxGeometry x="203" width="34" height="20" as="geometry">
            <mxRectangle width="34" height="20" as="alternateBounds" />
          </mxGeometry>
        </mxCell>
        <mxCell id="8cDULGTI0yvlnEvUJcVY-69" style="shape=tableRow;horizontal=0;startSize=0;swimlaneHead=0;swimlaneBody=0;top=0;left=0;bottom=0;right=0;dropTarget=0;collapsible=0;recursiveResize=0;expand=0;fontStyle=0;fillColor=none;strokeColor=inherit;" vertex="1" parent="8cDULGTI0yvlnEvUJcVY-53">
          <mxGeometry y="140" width="237" height="20" as="geometry" />
        </mxCell>
        <mxCell id="8cDULGTI0yvlnEvUJcVY-70" style="connectable=0;recursiveResize=0;strokeColor=inherit;fillColor=none;align=center;whiteSpace=wrap;html=1;" vertex="1" parent="8cDULGTI0yvlnEvUJcVY-69">
          <mxGeometry width="34" height="20" as="geometry">
            <mxRectangle width="34" height="20" as="alternateBounds" />
          </mxGeometry>
        </mxCell>
        <mxCell id="8cDULGTI0yvlnEvUJcVY-71" style="connectable=0;recursiveResize=0;strokeColor=inherit;fillColor=none;align=center;whiteSpace=wrap;html=1;" vertex="1" parent="8cDULGTI0yvlnEvUJcVY-69">
          <mxGeometry x="34" width="34" height="20" as="geometry">
            <mxRectangle width="34" height="20" as="alternateBounds" />
          </mxGeometry>
        </mxCell>
        <mxCell id="8cDULGTI0yvlnEvUJcVY-72" style="connectable=0;recursiveResize=0;strokeColor=inherit;fillColor=none;align=center;whiteSpace=wrap;html=1;" vertex="1" parent="8cDULGTI0yvlnEvUJcVY-69">
          <mxGeometry x="68" width="33" height="20" as="geometry">
            <mxRectangle width="33" height="20" as="alternateBounds" />
          </mxGeometry>
        </mxCell>
        <mxCell id="8cDULGTI0yvlnEvUJcVY-73" style="connectable=0;recursiveResize=0;strokeColor=inherit;fillColor=none;align=center;whiteSpace=wrap;html=1;" vertex="1" parent="8cDULGTI0yvlnEvUJcVY-69">
          <mxGeometry x="101" width="34" height="20" as="geometry">
            <mxRectangle width="34" height="20" as="alternateBounds" />
          </mxGeometry>
        </mxCell>
        <mxCell id="8cDULGTI0yvlnEvUJcVY-116" style="connectable=0;recursiveResize=0;strokeColor=inherit;fillColor=none;align=center;whiteSpace=wrap;html=1;" vertex="1" parent="8cDULGTI0yvlnEvUJcVY-69">
          <mxGeometry x="135" width="34" height="20" as="geometry">
            <mxRectangle width="34" height="20" as="alternateBounds" />
          </mxGeometry>
        </mxCell>
        <mxCell id="8cDULGTI0yvlnEvUJcVY-127" style="connectable=0;recursiveResize=0;strokeColor=inherit;fillColor=none;align=center;whiteSpace=wrap;html=1;" vertex="1" parent="8cDULGTI0yvlnEvUJcVY-69">
          <mxGeometry x="169" width="34" height="20" as="geometry">
            <mxRectangle width="34" height="20" as="alternateBounds" />
          </mxGeometry>
        </mxCell>
        <mxCell id="8cDULGTI0yvlnEvUJcVY-138" style="connectable=0;recursiveResize=0;strokeColor=inherit;fillColor=none;align=center;whiteSpace=wrap;html=1;" vertex="1" parent="8cDULGTI0yvlnEvUJcVY-69">
          <mxGeometry x="203" width="34" height="20" as="geometry">
            <mxRectangle width="34" height="20" as="alternateBounds" />
          </mxGeometry>
        </mxCell>
        <mxCell id="8cDULGTI0yvlnEvUJcVY-54" value="" style="shape=tableRow;horizontal=0;startSize=0;swimlaneHead=0;swimlaneBody=0;top=0;left=0;bottom=0;right=0;dropTarget=0;collapsible=0;recursiveResize=0;expand=0;fontStyle=0;fillColor=none;strokeColor=inherit;" vertex="1" parent="8cDULGTI0yvlnEvUJcVY-53">
          <mxGeometry y="160" width="237" height="20" as="geometry" />
        </mxCell>
        <mxCell id="8cDULGTI0yvlnEvUJcVY-66" style="connectable=0;recursiveResize=0;strokeColor=inherit;fillColor=none;align=center;whiteSpace=wrap;html=1;" vertex="1" parent="8cDULGTI0yvlnEvUJcVY-54">
          <mxGeometry width="34" height="20" as="geometry">
            <mxRectangle width="34" height="20" as="alternateBounds" />
          </mxGeometry>
        </mxCell>
        <mxCell id="8cDULGTI0yvlnEvUJcVY-55" value="" style="connectable=0;recursiveResize=0;strokeColor=inherit;fillColor=none;align=center;whiteSpace=wrap;html=1;" vertex="1" parent="8cDULGTI0yvlnEvUJcVY-54">
          <mxGeometry x="34" width="34" height="20" as="geometry">
            <mxRectangle width="34" height="20" as="alternateBounds" />
          </mxGeometry>
        </mxCell>
        <mxCell id="8cDULGTI0yvlnEvUJcVY-56" value="" style="connectable=0;recursiveResize=0;strokeColor=inherit;fillColor=none;align=center;whiteSpace=wrap;html=1;" vertex="1" parent="8cDULGTI0yvlnEvUJcVY-54">
          <mxGeometry x="68" width="33" height="20" as="geometry">
            <mxRectangle width="33" height="20" as="alternateBounds" />
          </mxGeometry>
        </mxCell>
        <mxCell id="8cDULGTI0yvlnEvUJcVY-57" value="" style="connectable=0;recursiveResize=0;strokeColor=inherit;fillColor=none;align=center;whiteSpace=wrap;html=1;" vertex="1" parent="8cDULGTI0yvlnEvUJcVY-54">
          <mxGeometry x="101" width="34" height="20" as="geometry">
            <mxRectangle width="34" height="20" as="alternateBounds" />
          </mxGeometry>
        </mxCell>
        <mxCell id="8cDULGTI0yvlnEvUJcVY-117" style="connectable=0;recursiveResize=0;strokeColor=inherit;fillColor=none;align=center;whiteSpace=wrap;html=1;" vertex="1" parent="8cDULGTI0yvlnEvUJcVY-54">
          <mxGeometry x="135" width="34" height="20" as="geometry">
            <mxRectangle width="34" height="20" as="alternateBounds" />
          </mxGeometry>
        </mxCell>
        <mxCell id="8cDULGTI0yvlnEvUJcVY-128" style="connectable=0;recursiveResize=0;strokeColor=inherit;fillColor=none;align=center;whiteSpace=wrap;html=1;" vertex="1" parent="8cDULGTI0yvlnEvUJcVY-54">
          <mxGeometry x="169" width="34" height="20" as="geometry">
            <mxRectangle width="34" height="20" as="alternateBounds" />
          </mxGeometry>
        </mxCell>
        <mxCell id="8cDULGTI0yvlnEvUJcVY-139" style="connectable=0;recursiveResize=0;strokeColor=inherit;fillColor=none;align=center;whiteSpace=wrap;html=1;" vertex="1" parent="8cDULGTI0yvlnEvUJcVY-54">
          <mxGeometry x="203" width="34" height="20" as="geometry">
            <mxRectangle width="34" height="20" as="alternateBounds" />
          </mxGeometry>
        </mxCell>
        <mxCell id="8cDULGTI0yvlnEvUJcVY-58" style="shape=tableRow;horizontal=0;startSize=0;swimlaneHead=0;swimlaneBody=0;top=0;left=0;bottom=0;right=0;dropTarget=0;collapsible=0;recursiveResize=0;expand=0;fontStyle=0;fillColor=none;strokeColor=inherit;" vertex="1" parent="8cDULGTI0yvlnEvUJcVY-53">
          <mxGeometry y="180" width="237" height="20" as="geometry" />
        </mxCell>
        <mxCell id="8cDULGTI0yvlnEvUJcVY-67" style="connectable=0;recursiveResize=0;strokeColor=inherit;fillColor=none;align=center;whiteSpace=wrap;html=1;" vertex="1" parent="8cDULGTI0yvlnEvUJcVY-58">
          <mxGeometry width="34" height="20" as="geometry">
            <mxRectangle width="34" height="20" as="alternateBounds" />
          </mxGeometry>
        </mxCell>
        <mxCell id="8cDULGTI0yvlnEvUJcVY-59" value="" style="connectable=0;recursiveResize=0;strokeColor=inherit;fillColor=none;align=center;whiteSpace=wrap;html=1;" vertex="1" parent="8cDULGTI0yvlnEvUJcVY-58">
          <mxGeometry x="34" width="34" height="20" as="geometry">
            <mxRectangle width="34" height="20" as="alternateBounds" />
          </mxGeometry>
        </mxCell>
        <mxCell id="8cDULGTI0yvlnEvUJcVY-60" value="" style="connectable=0;recursiveResize=0;strokeColor=inherit;fillColor=none;align=center;whiteSpace=wrap;html=1;" vertex="1" parent="8cDULGTI0yvlnEvUJcVY-58">
          <mxGeometry x="68" width="33" height="20" as="geometry">
            <mxRectangle width="33" height="20" as="alternateBounds" />
          </mxGeometry>
        </mxCell>
        <mxCell id="8cDULGTI0yvlnEvUJcVY-61" value="" style="connectable=0;recursiveResize=0;strokeColor=inherit;fillColor=none;align=center;whiteSpace=wrap;html=1;" vertex="1" parent="8cDULGTI0yvlnEvUJcVY-58">
          <mxGeometry x="101" width="34" height="20" as="geometry">
            <mxRectangle width="34" height="20" as="alternateBounds" />
          </mxGeometry>
        </mxCell>
        <mxCell id="8cDULGTI0yvlnEvUJcVY-118" style="connectable=0;recursiveResize=0;strokeColor=inherit;fillColor=none;align=center;whiteSpace=wrap;html=1;" vertex="1" parent="8cDULGTI0yvlnEvUJcVY-58">
          <mxGeometry x="135" width="34" height="20" as="geometry">
            <mxRectangle width="34" height="20" as="alternateBounds" />
          </mxGeometry>
        </mxCell>
        <mxCell id="8cDULGTI0yvlnEvUJcVY-129" style="connectable=0;recursiveResize=0;strokeColor=inherit;fillColor=none;align=center;whiteSpace=wrap;html=1;" vertex="1" parent="8cDULGTI0yvlnEvUJcVY-58">
          <mxGeometry x="169" width="34" height="20" as="geometry">
            <mxRectangle width="34" height="20" as="alternateBounds" />
          </mxGeometry>
        </mxCell>
        <mxCell id="8cDULGTI0yvlnEvUJcVY-140" style="connectable=0;recursiveResize=0;strokeColor=inherit;fillColor=none;align=center;whiteSpace=wrap;html=1;" vertex="1" parent="8cDULGTI0yvlnEvUJcVY-58">
          <mxGeometry x="203" width="34" height="20" as="geometry">
            <mxRectangle width="34" height="20" as="alternateBounds" />
          </mxGeometry>
        </mxCell>
        <mxCell id="8cDULGTI0yvlnEvUJcVY-62" style="shape=tableRow;horizontal=0;startSize=0;swimlaneHead=0;swimlaneBody=0;top=0;left=0;bottom=0;right=0;dropTarget=0;collapsible=0;recursiveResize=0;expand=0;fontStyle=0;fillColor=none;strokeColor=inherit;" vertex="1" parent="8cDULGTI0yvlnEvUJcVY-53">
          <mxGeometry y="200" width="237" height="20" as="geometry" />
        </mxCell>
        <mxCell id="8cDULGTI0yvlnEvUJcVY-68" style="connectable=0;recursiveResize=0;strokeColor=inherit;fillColor=none;align=center;whiteSpace=wrap;html=1;" vertex="1" parent="8cDULGTI0yvlnEvUJcVY-62">
          <mxGeometry width="34" height="20" as="geometry">
            <mxRectangle width="34" height="20" as="alternateBounds" />
          </mxGeometry>
        </mxCell>
        <mxCell id="8cDULGTI0yvlnEvUJcVY-63" value="" style="connectable=0;recursiveResize=0;strokeColor=inherit;fillColor=none;align=center;whiteSpace=wrap;html=1;" vertex="1" parent="8cDULGTI0yvlnEvUJcVY-62">
          <mxGeometry x="34" width="34" height="20" as="geometry">
            <mxRectangle width="34" height="20" as="alternateBounds" />
          </mxGeometry>
        </mxCell>
        <mxCell id="8cDULGTI0yvlnEvUJcVY-64" value="" style="connectable=0;recursiveResize=0;strokeColor=inherit;fillColor=none;align=center;whiteSpace=wrap;html=1;" vertex="1" parent="8cDULGTI0yvlnEvUJcVY-62">
          <mxGeometry x="68" width="33" height="20" as="geometry">
            <mxRectangle width="33" height="20" as="alternateBounds" />
          </mxGeometry>
        </mxCell>
        <mxCell id="8cDULGTI0yvlnEvUJcVY-65" value="" style="connectable=0;recursiveResize=0;strokeColor=inherit;fillColor=none;align=center;whiteSpace=wrap;html=1;" vertex="1" parent="8cDULGTI0yvlnEvUJcVY-62">
          <mxGeometry x="101" width="34" height="20" as="geometry">
            <mxRectangle width="34" height="20" as="alternateBounds" />
          </mxGeometry>
        </mxCell>
        <mxCell id="8cDULGTI0yvlnEvUJcVY-119" style="connectable=0;recursiveResize=0;strokeColor=inherit;fillColor=none;align=center;whiteSpace=wrap;html=1;" vertex="1" parent="8cDULGTI0yvlnEvUJcVY-62">
          <mxGeometry x="135" width="34" height="20" as="geometry">
            <mxRectangle width="34" height="20" as="alternateBounds" />
          </mxGeometry>
        </mxCell>
        <mxCell id="8cDULGTI0yvlnEvUJcVY-130" style="connectable=0;recursiveResize=0;strokeColor=inherit;fillColor=none;align=center;whiteSpace=wrap;html=1;" vertex="1" parent="8cDULGTI0yvlnEvUJcVY-62">
          <mxGeometry x="169" width="34" height="20" as="geometry">
            <mxRectangle width="34" height="20" as="alternateBounds" />
          </mxGeometry>
        </mxCell>
        <mxCell id="8cDULGTI0yvlnEvUJcVY-141" style="connectable=0;recursiveResize=0;strokeColor=inherit;fillColor=none;align=center;whiteSpace=wrap;html=1;" vertex="1" parent="8cDULGTI0yvlnEvUJcVY-62">
          <mxGeometry x="203" width="34" height="20" as="geometry">
            <mxRectangle width="34" height="20" as="alternateBounds" />
          </mxGeometry>
        </mxCell>
        <mxCell id="8cDULGTI0yvlnEvUJcVY-47" value="" style="swimlane;whiteSpace=wrap;html=1;" vertex="1" parent="1">
          <mxGeometry x="1320" y="490" width="250" height="240" as="geometry" />
        </mxCell>
        <mxCell id="8cDULGTI0yvlnEvUJcVY-51" value="" style="endArrow=none;html=1;rounded=0;" edge="1" parent="8cDULGTI0yvlnEvUJcVY-47">
          <mxGeometry width="50" height="50" relative="1" as="geometry">
            <mxPoint x="30" y="220" as="sourcePoint" />
            <mxPoint x="230" y="180" as="targetPoint" />
            <Array as="points">
              <mxPoint x="50" y="190" />
              <mxPoint x="80" y="170" />
              <mxPoint x="100" y="140" />
              <mxPoint x="130" y="120" />
              <mxPoint x="160" y="90" />
              <mxPoint x="180" y="120" />
              <mxPoint x="200" y="50" />
            </Array>
          </mxGeometry>
        </mxCell>
        <mxCell id="8cDULGTI0yvlnEvUJcVY-230" value="&lt;font style=&quot;font-size: 22px;&quot;&gt;15750&lt;/font&gt;" style="label;whiteSpace=wrap;html=1;image=img/clipart/Gear_128x128.png;align=center;" vertex="1" parent="1">
          <mxGeometry x="670" y="790" width="350" height="60" as="geometry" />
        </mxCell>
        <mxCell id="8cDULGTI0yvlnEvUJcVY-231" value="&lt;p style=&quot;line-height: 100%;&quot;&gt;&lt;span style=&quot;font-size: 28px;&quot;&gt;S&lt;/span&gt;&lt;/p&gt;&lt;p style=&quot;line-height: 100%;&quot;&gt;&lt;span style=&quot;font-size: 28px;&quot;&gt;C&lt;/span&gt;&lt;/p&gt;&lt;p style=&quot;line-height: 100%;&quot;&gt;&lt;span style=&quot;font-size: 28px;&quot;&gt;R&lt;/span&gt;&lt;/p&gt;&lt;p style=&quot;line-height: 100%;&quot;&gt;&lt;span style=&quot;font-size: 28px;&quot;&gt;A&lt;/span&gt;&lt;/p&gt;&lt;p style=&quot;line-height: 100%;&quot;&gt;&lt;span style=&quot;font-size: 28px;&quot;&gt;T&lt;/span&gt;&lt;/p&gt;&lt;p style=&quot;line-height: 100%;&quot;&gt;&lt;span style=&quot;font-size: 28px;&quot;&gt;C&lt;/span&gt;&lt;/p&gt;&lt;p style=&quot;line-height: 100%;&quot;&gt;&lt;span style=&quot;font-size: 28px;&quot;&gt;H&lt;/span&gt;&lt;/p&gt;&lt;p style=&quot;line-height: 100%;&quot;&gt;&lt;span style=&quot;font-size: 28px;&quot;&gt;-&lt;/span&gt;&lt;/p&gt;&lt;p style=&quot;line-height: 100%;&quot;&gt;&lt;span style=&quot;font-size: 28px;&quot;&gt;O&lt;/span&gt;&lt;/p&gt;&lt;p style=&quot;line-height: 100%;&quot;&gt;&lt;span style=&quot;font-size: 28px;&quot;&gt;F&lt;/span&gt;&lt;/p&gt;&lt;p style=&quot;line-height: 100%;&quot;&gt;&lt;span style=&quot;font-size: 28px;&quot;&gt;F&lt;/span&gt;&lt;/p&gt;" style="rounded=0;whiteSpace=wrap;html=1;fillColor=#ffe6cc;strokeColor=#d79b00;" vertex="1" parent="1">
          <mxGeometry x="1520" y="900" width="80" height="900" as="geometry" />
        </mxCell>
        <mxCell id="8cDULGTI0yvlnEvUJcVY-232" value="&lt;h1&gt;&lt;b&gt;Click&lt;/b&gt;&lt;/h1&gt;" style="rounded=1;whiteSpace=wrap;html=1;strokeWidth=3;" vertex="1" parent="1">
          <mxGeometry x="624.38" y="1250" width="243.75" height="220" as="geometry" />
        </mxCell>
        <mxCell id="8cDULGTI0yvlnEvUJcVY-233" value="&lt;b&gt;&lt;font style=&quot;font-size: 20px;&quot;&gt;upgrade&lt;/font&gt;&lt;/b&gt;" style="rounded=1;whiteSpace=wrap;html=1;strokeWidth=3;" vertex="1" parent="1">
          <mxGeometry x="626.25" y="1510" width="243.75" height="50" as="geometry" />
        </mxCell>
        <mxCell id="8cDULGTI0yvlnEvUJcVY-234" value="&lt;font style=&quot;font-size: 22px;&quot;&gt;15750&lt;/font&gt;" style="label;whiteSpace=wrap;html=1;image=img/clipart/Gear_128x128.png;align=center;" vertex="1" parent="1">
          <mxGeometry x="573.13" y="1690" width="350" height="60" as="geometry" />
        </mxCell>
        <mxCell id="8cDULGTI0yvlnEvUJcVY-235" value="$100" style="rounded=0;whiteSpace=wrap;html=1;strokeWidth=3;" vertex="1" parent="1">
          <mxGeometry x="685" y="1560" width="120" height="35" as="geometry" />
        </mxCell>
        <mxCell id="8cDULGTI0yvlnEvUJcVY-244" value="&lt;span style=&quot;font-size: 28px;&quot;&gt;S&lt;br&gt;C&lt;br&gt;R&lt;br&gt;A&lt;br&gt;T&lt;br&gt;C&lt;br&gt;H&lt;br&gt;-&lt;br&gt;O&lt;br&gt;F&lt;br&gt;F&lt;br&gt;S&lt;br&gt;&lt;/span&gt;" style="rounded=0;whiteSpace=wrap;html=1;fillColor=#ffe6cc;strokeColor=#d79b00;" vertex="1" parent="1">
          <mxGeometry x="-1600" width="80" height="900" as="geometry" />
        </mxCell>
        <mxCell id="8cDULGTI0yvlnEvUJcVY-245" value="" style="shape=image;verticalLabelPosition=bottom;labelBackgroundColor=default;verticalAlign=top;aspect=fixed;imageAspect=0;image=data:image/png,iVBORw0KGgoAAAANSUhEUgAAAWkAAAGgCAYAAABonJYyAAAgAElEQVR4nOy925IkSXIldlTNI6sag9vygRchRSgrFIpwZ6qqhxQKhfsRfCQBDBay+xv8E/4SBODyAbv7xhUCi8F0zwAzXdXVVV2Z4aZ8UFUzNXP3uGVkZl3sdEdlXNzNzT3Cj6kdVVOl//F/+z8FAwNPgH/9u19i2u0x5+fIkpD4A5j2AGYQ9iAIdgxg+glACSS3AO8BCIAZAMAQENqf8CwJkAwgAzIDIrYPABBACSACWN+nsidBJAF5BwgBfAfQHpC971nA8cUhyPrzeW1//1wYwA6C5yCyPlBenKduykBKSLgBC0Ay17Nh8bOy5vWZgJDAgF3l2c5MsAMwAfIegIBzxjzP2O8BAYNoB6GE3fQBBAbAmOWP8X/t/vDEizFwCaan7sDAl4mXP3wPpg8AJogwiDIAJ1N7ToD+Q/W9BVFtvYfQjgSOJn002/W7J4Dm9c8OYas5P/ThzQxsj2SnnwFaDkS18QwI62kh1/cpDCqi+1N4U0Tby9iFPtngN89AnjHnjCyhT8R6LGTo8KiDycDDYpD0wJPg67e/Az27M+uNQbgDkRK0E5KSFNlzaU3ZQyCY9bzyAbE9lY3mnMWUHFcp9dR+oB1C8rH9xAekODD54LTWtg0++zsQMQSC2WYNDKi5TwKZs10T0utCAMAQEex1S0gm6AxmBnALCCBCyKJkTDyBkEC8LxdBZML/PT07/WIMXIRB0gOPjpc/vAXzLYAMIiDxDMgexBnOOxCBiCALQDQbYeZiLTrfLXmPtAGiFW5z8lsnXymf13fWtjuDo09HOQxBb8tUrGg9963t9fl+/mBP9frkntup9lqfzcgC3AnbxwlEOjAUi1+ALAQhBmECwEgihegFO/yVD3oDD4ZB0gOPjldvvwPSHQQCKiQxq36MbFN4IyeiQMyHpI3+FS05lu04cKJa0q1I996lHpuGIE/dKVrRYiS91nCdVUgmSCZQFpWMVo7lg155La5BVxGFyAURaT4HTfqw99XS1j4yPT/1xAbugTEMDjwqXr59C9CtEq8AIgmEOxQtWmY1A81iExFIcf7lI633CExJrsdWkuvFBdvQ/hxg52PEHT7vOX8bdW4gSKja/IHDmCQxZ1b7NxxL7NiNgtIxuIRjtp/paxGGIIFAaogLbCDQPv4VD5J+DAxLeuBR8eqH12C+Mz2VLApDpQ9klT3M9IPkrNPteQZPCTxRmbVv86Q7CgVV2ogEfQhRDvHtj3gDj713KsSPr046wWwa/XLmILatZNLrI+oMrQ5YlIlEA7LzE7J2GCR2TKHWweqNEJty5FKIXk+RCczDxnsMDJIeeDSoFb03yYEAugHkA5SkRQk6m7RBBOIJ7kCb7+4wzxlpp+RARKvHkPiPT/EpEq+9tbavm5+UNbqD8v2It+/XIbhjz2mwEPRSzhHA/ImCnKf2U9k6HnVPjdxtYMhZNXANrROoNpTAxDZskfUsQyM6nuMvH0adH+gwSHrg0fDyh+9BfIcsBGCHed4h5YyJGYQ9lDASAItPEAYoq0RNM1LOkLusscHMIGZkQkfYLptYZAQl07b73hwiGGuDcqPlbm66HAPOBwFAAiSBITqYYYbFcNSNRIKGUq3iS7CMb/GTIY3owIRE8fQsLFESmG8uOubA+RgkPfAoePn2rWnP2TTXXSEbEQ8+cNJgQBKE5sI/BAKLALMAOatFyQykCTxNIXphX8mVBODZrEFu6G4TPu0/x0g8QxFZhw9OZtmSDRCm25s4oZtmgMRf6X5V0z/9uALj+yKx9P0hjeBT926dYYAAmfDXPELvHguDpAceBa9+eK0r+CCAhXMRNCJBSaXEGUDDz3zP5fzdF2LInCH7W+T9Hmk3gdJUHX5O+qQEr68OMW9PkHrMNdX1YSb5wXlXFvZ4N8I1CKcnwv6s7F7lnm0IYPHPrUbterMNieAy8BFEAOZsvdnhL0fo3aNhkPTAg8O1aGBWGcN+dkQZZKvppFCoE4+F4wHB70flNaAWpUrWGfnuDphncBJQsg3O4BERAiT5KyDYqsuNT2/3dMTjd1Edft65DaNTkj7Qz779chyEc+idpfoelWiYqkdrKCSBeawyfEwMkh54cLx6+wZIe6MC/ckxZbBZvVTC3YzAozV7AI2tmU0GkQwggZKT/amIYWjKYve1mAlYRPLltaiLcmxfjr4yCkg/o6DSQ79+VBaZHO9ZXbjDJfKltAMCM0wgonJY3YvxV+n3jx5h4HoYJD3woHjx9q0RTzYrmpUESEq4WLWgPZojzuvrQpYYc8xmbbZUKkAWyN0emAHaTRYhcg4kGJfSvP1w6KSOuMpwPcijkGzN11G3P9bVxhHZdwMEJrIEUpWaiWYQBBk7/CUN2nhMjKs98KB49faNZa4DgKlIxUsq8SQ+c7WiQ5ywNCZptXRj4iERYJ/VOpQ5g/Z78CTY7SaAyXiPVrjJLEuJx3xQVl6iSDluSQtKbg6XqE0+FmFk0RhpzWF3IAGTNrrxXhCyXdomClq0K9VUBo0sQ+p4bAySHngwvPj+LcjTfZboBSdWCc8165vn51gzH3vaWFUESotsKxUFtJ+RIaBdApFquL2QIdBtNSLEFtVQ0+i9Id3f9sMEPf89mvPPAHr1QyxaWciiYjSfiUiIXTmi04g5AqMe7U5DCu7Vej0JjNmckmmlxYGHxHDRDjwYXv7wxogHALgseCtpScXdhQn6U2xTbQJq2VFYjEJk2ukGEbVLnQHKAtzNkA93JSrkIIr2KwdXhl8XyazZwMgZ5ihcCa0ri1DamcRhBElFute+BVFYRRhjbsg6RPjr3dCjHxuDpAceBC++/8ES+GfECRuTgBcJ7D1KoX1E61kCKW0Zim2cA9V/BcAskPe3yPNsVqfJCQVRC78+O28bt73D0p9KHTAIa5za0OipR69bB8cqASBNSSoQlZaKLkWA2PeVfb+Bx8SQOwYeBC9/eAPwDIDNVahpR6cEW5ABAARwjOZQuYEXCfc9RE80gmEDIrZKMcokTcCGALczsLOOxJWKZZcao9xT+NXh10AEwIyS/c8coM12wQhWuSLKFHUwOprQqQkSCRsTNNU2V4eskOjCTRPGVV4ZJP3YGCQ9cHW8eOtadDaKdqlCrbLCFGzWHJkWjFxipxWBLKNluQWJfCZmG/uxnQtnkJPhbteyr8Vyl5eXXoCz4CZyIGjkSuCNRKHvifiy7a1qNWuokRo1/C6SNIEo65L0zgOgMsyMnBP+eiT5f3QMkh64Ol798MYqeEQnFFlctMkVZKZbWV23XYEEWJ3tN2jjPVzbZntuRFY6w8DtHpQFcjOZCblfDAKyDAS5HhovnygRygmEK1EIqk5UOXaBGqzo0Viux6xFtzJIMrIMgn4KDJIeuCpevn0LapyFFroF0ueeQrQkPqpVVwCA+tV2OBIZUTaqccNiNfjUjmYQonwSqGgvgOw76aOVGbaOTRsvDg4kiw9rdEUTylGs6C1c4jTcfo+IkDiHOpPRetfrp7LHoIunwLjqA1fFqx/emK7pMocSJQCbSgtKtW7PNBdJdI1PpGrRNWWmi6tB3CA2q0+Kil2Uk412MVt+5sk28pqKG6lQy64bLw6R+Tr3mpxQLOmNzlrXMsgIc+1oG+33fY/VAEiQKHw3TX8ZXrldhEA0YqSfAoOkB66GX3zzbVm4wqSRHBC1jRO5pUYQImjuYnOWuTFJPsFuw86KjUtoAh4ipDTSvtu/15CmMbjkjHxrVWBIj8ik+eXIq4tTzGfh7631ZNmD7S6JRh/mrI7CZun3Crmikishg8PSeWrHrO3+NLqI5cDzauSNk5VKMkCSGSKEf/vsDw83PvAgGCQ9cDUI7Us+DjYHoK6K86m5hxAAjQYtHmuwvnJOnCglY4Yti+ktXdF9GVkznUL5P6Mu0HCRYEHwROV9cRZVb2Utro1IuARbN20vLf9FiTGmqrsDlcxbn5y+yPs2qqPucABki1ikf/t0+Dn78vwmV0qVXBh7iGRk2R2dXQw8DAZJD1wFf/LNNyBWTdUdhNHJVfNF07qzcLVUVA8pfFdAzqdKsUo6mikkU11Z5/QZf/AkNixY2SkK/aHw71o/JDeUbaiFYMVOugwwTuDNCWyFFG4cV2rAnTbTjiDHr145atMGsbezJnfc2fixXQ1n4GExSHrgKiCaC0Gq7iwl3zGZPet51Wq0hZfKUnJbl42dxIPd2Fmk7UBgmwNBGljSF3UVs0nq1L+063JI22rHZxpN4u31YnUl6xmznSTZXyZCYi+X1e4Xj1eeSnwi7QXbHk9QnLISrovqGFrKbGOAzCBwvjWJZITfPRUGSQ/cG//7N9+AU03049ntxKfTQJU5PAzv7DXXUqxFCiQmRNUxaRLAUp6oaB15OnzU90+zRVvJ2N5rxW4AIaGTqGySu/aFSH2oqeY1OQRPquRDy+nRHd5N072zAGyzDjE9PFr4FPR/2aMkvxp4EgySHrg3kqWxdAcUCZCJMFu0BUNwCyBxtjzSVoOwszp74i7EGbTdqi6visUnE7Qd0Qh+JXf1FWb2Xn6wt4v1ddKsffMelAFODGJXz6X8XXTENf6VQW793H1Ys0FOxHRwQb67Be+ADAaRyRkMk1UyGB8s8ZRa0gNPg0HSA/fCn33zDZhrXRUq1maNfhBQKb3kUkgN07DXXZL/OruvFKf/zZt6sdd4AWrz61tWW7SKJSdVQLwIrr634ECcGVmAlBjMZGfhjtbqJC1askdj1E0OHlygy7uzj41m4VOekfczcoYlV9ppgiVyrT5c+5FD+skwrvzAvcDmBFThQElYyJ1OveTRO6haLXSdTP3fSKjxcwpNyMZ+KE63O+tLlR7ICghIGBAeCORmdahN6P0VwZyVyhN30kKnv7uTM0rJQSJvWhZo5tUcyLlxdRp7E5HGjFsMe0ZWpyfrPv/PCL97MgySHrgYf/bNr03bBNRk8+iGqAxTsZSbBEkW2xa2CtggS0LVEMqW1YKnjvSckHrRQMp+cWHMwxF003I5hzr3KP9mwSyaG5qZLTw7WtHexIbUYachdp3nnDGLAODixBUhZEk6KwnJkjz/tmSt0C5MkKSpsUZkx9NikPTAxSDLf0yUm1CyNqdzFRZUs+7icb1cVGy3fNpbxiHGOVqXarrrp6VuogkK4kRtvZLYN8LaMvT7g1DD5fwqxFcHlHMR5FkJM6XUDi7Wd+6ud7GmRXRhTq4V2JdzC9ZK4QLsqBkimsFMSvpYr8wySPqpMEh64CL86Te/1qxpPKvkQa7wMoR2uloPnjta59oEJ3WxmGpUUgXQihTV3i2f9AmQipRRZZfVz5v3/GgUtlJrc9WBeAlCqEdpsekK21tLC74o5FkwUwY8ET+5bGQrNwMxQwRZBHmeu7YWB4aTLkV5R/x9f0+JnGHFg4Xx17sRfvdUGCQ9cBESCTgJEmuK0RrG4HqrKr8l5A5AlRXySnSC59sAqsZdbWe2hSJVLnHitkgHagm98nlvS0Y8nnXYKu81QqWXLprXc0bOMyhNoDSVvNxUpImMbPJIe5Re3Omh3826D0C3z5LAedaqXiP87kkxSHrgbPziV78BJoTcETWiQ0otQwkEXZ8D29ToBM2WcKku1I7aqVu8rQOsd8T5e9LRY32m7bSDxQEZ4hyERBq1V9WBefpx1Eqe93uwAMkug+yBu/l2edjSbBQu+mvUXSepElE1z72voh7HQdJPikHSA2eDOCPxXckfUcLFwJYHA0CJ+nCCjlPxNUddbw0CCzoXi24obsINi1F870jwNQ1nTXofq7D0evd1HInLVnxhyOnOShFBzpolTx18GTXEsaKQtNeEFHQafNly1floHkMA6lwsKvUIv3tSjKs/cBb+7JvfgFjAtoCldYixRQyoVq1YIaPNhRgx0jmq1BUirTCiWy7puo/oiEepmnB77PNBaJcaxqOjRK/IYpu2NwfbR7B/nawBJeI1deNIW7Aq42DrJy0bkBJ9oo7Xf/vVCL97SgySHjgLDHf6aXJ9lqzWFyVguikz4xXJuXywVky2Bst1m4fnLr1mU2e30LZSM9PV910yWddlTybs1c0I6FOIUiW+asHPWw0cBBFBcjYnH3UDzfHuLd6LzsNsjl8QCHf2thy81gMPjyE2DZyMP/n2H5GnDOG9VZTOIGF1LNFOiRpAsdAarXMZV+HwFKNtBT53qtWUTEQEJgZTUrLaHBFQ0z2vDgd1m+W7F8LVhRXZpT2K9+p0ghbL5qe1DSft+ByLBGxh7awO6eFkOUY87A4WOTNI+ikxLOmBk0E8g2gG23o9EgKIlSzpxlMUhyiPWA7KcSjG4jDpxKzQURLpKSTZGxmERFmtQ7c+e+dZ8JFdLntoQ8VfF2YNtcnLiK5JpSRkjtMJwB0w26pAYstv3Z5T31Ir8ERRaEMft1jvv9o9v6jvA9fBsKQHTsL/8evfgHgG09601jANpp0RdNA5CaisjfLemlF2LGtGsTqPlR3Z3F+P0hJ0d0xW1ebCQxxEO0YRDhecPXQtTEaRCeU8LAJDsiBLLfCij9jWCQL24tBytdDxgcsxLOmBk+AVPEqmO7VTATBAU4mbWERnlMiAbR12izakbyt+4mR3KBLDynfV/VuSvj8fR72kzhiWcnw89ino3J5u7btwjMmiMCQ8gOM2lzsbBWTpSvvEVo0cVPoy8JQYJD1wFH/ym9+AaQZjhidSUtcdA9OkqaIpA7gFIJbxDgBmzVcMDRsDtDytZ4BTuvRYjZaYSjY7uPa8IopQ82cJiTTDdjx33EErkmArEuQC0DqlVWmmT6y0FhlyKiY0lW08i1JKoZWuffFz9cVH0lj1QgyI1OtNYnHSA0+JIXcMHMT//OE77Ihww3vsIEiYkSBK0Dyps7BYs1VBZWR1BtIMoozEAmaAU1INlRhCln+OgJm4lpqiaPfWtJx1bWNNiNrb29I9WlSyvwYpu068kN03UZ12dVDasLLD281WFKzpxf4S091toBZn2OqjOw01leqMr9/+00lnN/AwGJb0wEH8D29mdRh6zggASghOtk4uFhNQEhxls8pQ3idAIzOShpGpS88djEBRn7tkTTXOo8UavSmFVSu8taYPOcnOuy66T605WIjanYUN5/a9PN06pUVbAnCG5ISaiL/rfBZ1JPqiltAhKt+JF59dP3E9sxl14c3AU2GQ9MAmXr79QaM56M7eERRr1CtkEwAxG9cch7rQBRBUDdv3F2gqTM1SZ0QiyVbRRW3VS3Ax2pWD6GTvpQJsH4S3eho3CzzXo5UahXzZ9L7utR4l0ZjFyw2w8cEG/BgTfFhqPxIN0SMAXGc6da7jksdW6+4SFsxWxWXg6TBIemATr97/AOI9osOPihUNmBgNuKVM1WIGfGreWa7hhicn6ULAtuw5kLKH3bU8QaUtAayuarCemyOuLZ1pUcPvzoNTa6TYNs1Tb8nG11utxddo3iOTILTKuQ+YB7L3CWBlV4LzUcUoQT5I1Ez7RlIaeDoMkh5YxV/85ldaKJXuoKavTZPdgmazpjEDXikE6hIs9loz3V4RK4rjytqFQJC70LEoVfQwQjZ+q47BfvttKt1q+RikSZ607FPr6PRz1VfK19suxkMgoCwkgngyKyfqlVmFAJAZYAZoBtOtWfbbUkfTnWFFPzkGSQ+sIiOB+QOENA+0Ss9cV4pYjg7VNS1PdFCPiVpSrH+D9bbCjokIJEmtaakWtKfLrFk5TQ4RNsKKqoZr0WtEvdSMzxUbzoHzsjsY/UDt8TqpRZYfLZH1O5AVyWPZA43+IBssNqzotraiDpYkoY2BJ8Eg6YEF/vw33+pKPQq5ohGdhCZ5YK+fmZOwyhuOC/NTsMocObtDzq1Fs17FSdmlEM/hWdsQ27quUnTrMVqertTa9mfVOKTVp7Fwbgteee9405tgmHXeR3gAm85Ames1WcRHt4cmQHXtQdBPjhGCN9Dgf9l/B4BqRAc8wkArWVctWkomtVKBhcQy5MWptBP3CdNrg0fiMZFW0I4rF6HSCHGyOoDxYREMpDHcZKF+ZFHdSs8MxgRYtpAsNY5BhECZNR+JUEeAG30Nz1fPbmHRX2MRjR/NHn7BSl9dq17uof/Mi8+abQBAMkg0Nv7r77+5So8HLsOwpAca/Pe/+4AUNGYvLdXypDuixOocwhyGbSRHS1uXWNQeLbIDaNJUnXMN1wMY3EWICQmIqWady1RkEJJITkpsXu3EHZa6Phyms6PIukuBorbbnOWWpNHIHedei946l+CDJOjqw8M5qlVeJsyZVUYiAiXp1te07tYyoMhlES8D18Eg6YGCl2+/B5OAWReglMzO3FWLJgJoX5L+ewY7NHLHNaMCyAIUCJRsCTrNNZKkSwiiGfLi3q5nM/I8Q+bsHjjrc9WC12q+bPdqSdDqJNRP9bME0KSzD3a993629HLQcJKeu/fbqxCLku3zhInu7PqttR4XxQySfkoMkh4oePX+bZErZrsxmZNlIHX6mlTPZCdoz0AcS2k58bXltS6HR4u4fOFLz4+TXc2FnEEEpJQgiSthywyIFnmtsdoCCNueXbxI0K23Izui5WsPch24k1D60lUnw3wBFC3pPhyPmmdkZjOTIEtCznskksVl1BWeNRXqw1RUHzgVg6QHAAD/5p9+iT0lEO0hRrDMCRRTYIIB7AC6A6HXnVFI7bpWNHT1IrnjkKAWox9/7TjRYeioUR0EAlECc9KVj3kGJGPOtV2PRNazb/SU0s5KwFuhdApXY9m7+10bCnKTsITokQODln1ehggC9rIDzT+CPawy9ljcaUhhpenAU2A4DgcAAPuZNImSO/2IwcyFDBQ6pS4x0eJSh9/jkTgvtRDX4EdwF58TyNajc1JSLta/PmZ7ZFASpGkCTzukmwk07UBpB6FU5ggx71/fent21eauV2A5UFxtGCt+QtOWXdZZtF8HDvUxZv2eTRbKOYcxzIYmqRIQyYyvv//VfXs7cCGGJT2AP//2H0CJVOeFQAjFuqp2tDNCqdtRQu5oQZLAdcjZ0RPdKcfonJary71bKYSTOhIlA3nPmPeC3CzmmKtDzR1tbtQ29nanVruVe5EUfWwnt3yj3DG3n7qlDcFk464IQMLI8w483yIjgxODkJFwW0maYJkMB54Kg6QHVOctVjQAkFrRDSFWvZUgIEtxSQtn4dU7F/7qIHHasUI4mmnByxqKpseWpFAof4kIPGklgJwz8pwhGbrAo+jtqnlEmUMRQybi+/W9/pPL4W0KXJcmzO3VcSepcLkGGuII7PMNaL7VyBcRgCcQZpM7YGeW8T+9/o/I8gf4mz/8/av0euB0DJL+wvGLb//BojdUQhBAdWgj35ojIgEeTSFSrG7FisRwb1D38OOcKxZ4v1pH44Igw2Cj4Wn6lgiQOCGlhHmfkfPexglCG/3Qk3E4B2k/k/C3vrL83AWnnl8/QDpR5/KOix297uzOWKEJgjtg3gNgMM2aSY8AyWIEDnD+HsAg6cfG0KS/YPzL/AbEDPAdBFnpjEl9dAviNYuN5pLlzkPwlqR5GsFUtXfdvVYGh2JBRy36eOvlj8c8r21CgvVMeiZlkPostRh6wu7mBtPNDVLagdIU+hgjLGL/o57eo38vDkrrC1KW+/VtTKjXzNpczQKo2j4jI9MO4vHh8wcg3wFZILPKPW71//zN/7fRn4GHxCDpLxj//B/fAjFPtE2Bl9aqkgyhLnLxdxW95HGeRX18Dd657bENMW7ttpEe7jir5xOrlHfnFR2nJBruzIw0TZh2Rti7HYidHCMxW+HElZatQRyMyNg8v/isePxMr/FiAAkEDyN02cf3cclIV4lqMeFJr4QAMt+uHE8H6Fe/G6sPHxuDpL9QvHz7va0i9BWDhMQc1lmEnB3gIge0xOx/++eHSfVwZZC61bpqeyphmwbd5RPRRTHV4UmhP7WqjCCVxx6J9mDaq8TDWaMpklrXPCWk3Q68ew5Kz0AUyRpK0tmIeouQr6ESic00aEa1pO1BBGGyXCeFcsu/BGCmHWLq2boox7fThFdfD2v60TFI+gvFq3dvoNaR1fsjChW/XVbwqTygmfAqua47DM+3otexFc0BLNpfkSuo/IcNKePSXpnTsITyKVkjAdMOePZ8ws3z38PNs59g2j0H841e11AfQQ+/NQAdR6XV+Dd+KqjWNMJ20cFYtyborIIpIdONyh6ljBkj0rpa3TNefPfbi/o+cBmG4/ALxL/57S9xRwQUbdkIekWHZksYz2aBcpMZL/4FDhFgtJzJLbWNLasmG51hEada4WsRzdJstYZDrVcL1GUU++sSOOv1ZN4hs2BmLRArWTRbX86mKSVooa+2pkszw6DmDxYfNJZu3CqZzOLpSU302DhhIi0kkLED+E6HNxGoZOJx8wBLxowdCO8PXKGBa2OQ9BeIu1ks82jGlDx/v1hEQKQosv9rbPQSp1nPvLK0eNli1G4PONoa67iNYWin+StW94WWdKhmWFT5diWiDVYElNkH64IgEUBuP1gK6AlC+7brsCga0cGrEHX4c366Dx0EmoxPoVE/BvMMyRrdIzJBZLJCD/r9kCQI7eEV3RkZX7/+W0j6z/Dv/uCrczs1cAEGSX9h+MW3vwQSA7Q3udKmtgtLU1N86jS3LuKo1Hqa/nw+OoJd6Lg9UbeEhtJDT5/a1hf3I1yK5dlGEnSiNstVGB6ZTClhhkBy2D5owIeXuR+eo6iZ6xp4BmQP5GQVbtwp3M8sfG+Vi9iKCChR78t3PCOBMCNDkOxaihAwfwdgkPRjYGjSXxgoSdFxCWRFpVXCkLLEm0pUQrSgl7HRpxH0+bkqDmjQWGrQ/dHqMbs+ymkEXW3xvlZ5GwGydKKG/nWJi4jIVnHWmQKT5sxmYjBNINqBaAfBDQQe3tdLGyd0vlwBRgYjIy2rYC1kce2zYCpFFLSyOEMklS4QdBb289fDgfhYGCT9BeHPf/33ABjgqkVXb1af74IsVAolQPQAACAASURBVC0shb6AoM+DWZXUc0i0VOPx12WPOqhco4+yeNQoEI/jCNdPoAtBrHqMkz0AcEpInJrWi4+ORCurlxGAIcSaQ8TziGSGZLKVjz58rtzCnTO1IeienEkzADJnJNYQw4xJ2zapK2MCrDiCx8YLC178buTzeAwMkv5C8L/m78PNKyiJ/BcyBvQzQC0rt7qbTGjbKYauAdp8dWhw6PVsMXZ6qAGlRzieGEl7zwiglEEpg3fANDGYEzTBUa1zXgYAkjrAkDsZtfABrABCu9BnbX4gyGBN8n9w/hBkIMpgBoQnZGErROz2M8PdvT5of/39sKYfA4OkvxD8d//4HYDJ8kVPYGZwKX+VA7XFm94pZK0cFnCM/A6vKFyCTQJo9+kIZpVv+pA0gUY2yPYuZ2KLCtfR69T1ehEBaUpIKbQoXgI2g2jGxDMSz+CUwSxK7mlW5y6rREKUSpmwg7cxndLzbrZAJpGAQSxInDHjBr5IyPVqIsGLN69PvioDl2E4Dr8AvHz7BppESSykjpBoBlNPwECkIy4lsaKu3JP0ZVZqdT8GUcMt+8BvrRW4cazm7QQl6Iu6dQ9EhyBsAQvQVzXRGQqBOWmd13D9a1ZB3w7IyEXAIfMjkKhD1y1wVVgsNlpsR9Y6jVz6sHVB4sXLpV6kUIKIO5d1cJklQUoub63oTvIGwB+de7EGzsCwpL8AvHr3Gp4gScBFg2yrpwAwjVNv27xCzNch6DWsT9jXCPqQ3MHl6XX06NOwPJL3u8aUK/GG10zY7dQa1rhp7//yStQCC7Jx+i7iuwjONhBM4DRp8YY1w371TLwU2mTWNKF+ExNqOQQ9v1dv/g4v3t5uNThwBQyS/szxr3/7K71pkUGJwJxDStK1u7U63lAs6b401ta+6zgsdwQtudHMe0I6ZVDow9keArH9Y32KA2Dv5DTpIiW3k1GW4JdmQ+y6lQ7TS2VFDGJ7TUii69kMZtev+9NwDR2V4F36IjGncqqRHnY8KW3VmQPtvz1wDQbui0HSnznu5j3UioZpmBJIup+K+w2pOuSydmG0vq9MgpvyRHAEbm7X6uhx04dTPfrZRa+dS60AQ77MHujjoZk9dzdVn2M3h6GNs4iuUg+2I4IuWS/OXgGxV6LcQJH0BaCMRHsknoODksJvxhVSP+eMV9//pyPXauA+GCT9GePPvv17ECa7YckspFydVIjUoq+cxFWP7pd/H7ceCYKEGcnSYK5TAzUEczhd6anoY0K2RYjroLbWyjJrQ4NUKaIMcjMATdrEiZHSDoCG282YkCkhhwlFPNqh6y+LVxbWxzvkfOoV8CgTglBNw5rY2kINI/Tr/OL1r09se+BcDJL+jKHRG4zEQEpm2RlJUyixpFCq9Bp467LGcet5SY6HNGRaiQ+uD+m5j+GmZjd2RGK05EcPZELXI60NWPZpJqyf9/p7WrrLw/JU1siYkIWQxeOiMyA5XCepssea/l7e06XhKlX3iZdWdiuOQtWmM3a6whD63TIAohjrTSDM+PrN/3uw3YHLMUj6M8Uvvv17ABOYRVcMc105V0uqKvxdt6KrJBLZEDhmxZ2OaL+fImOsHLcZQ8LO3Uq/R4fXMjzTcUkELdfVLBX3D7d2kvZ8VzP+ZYD3GqfNCccDuurvhFlAlCxyBCULosX+lK39+3nx/dvTTnbgLAyS/gzxL+UHkFnRumDC828sHYb6TMmQbRHF+tT6WgQdWiG46bb4vI3XPoZI5vWd1c0eAqdelo3tRDJE1GG3SwlMrGF2kuxxpOMHjz8XMqcEgHbaZrwYq/tX2SvLTXEggn1JS0JRzElnZpS/O9zPgYswSPozxD//zW8BTEaANnUtCzuykbU6fRRK5iVHdImwOH9l4cl5OjZ4R+KTRVP9G66BpPoyRoc8AsqQJnGg2HKwHuqTaJFbIiS20DzRyi4ihCxeubwv09Vr4m2bS7ncJJW1cL/w0gds/ctK0tLParQNEXUsfv3m7/Dih/2Bcxy4BIOkPzP8zCuuIIEZag1xTTVqyjNaAmFLQazLwKXLc3wKDq0sbOuenGYh9ysfT+tEDEV7Akj/oh8s+ufu2KukLpJLaF510Blhbx9soy+mW5coEwESBZI+fCIEzechaYdMN8iWLoDgZdZc8gjZEvejvNa1MUj6M8PX774DeAeeGJyyr2uAVirxTMhuEdX6e4zZHEMxXOz+hBfJOXugGC3LBhxrpTgMC2rwWcV5A8vjYcuJWGcsOtuZQbQHcIfEgpsbW4iCBMIEkglS/jt0uJXoEr/aJFpGxj2QZRyxa7yApj4Vq9oiti0hK9/bdyD2+3r15j/hxfu00s7ApRgk/RnhT7/9xhYh3Bg5C5iddOPqQr8Z9QajEm6nn9XUnBFXchjyLji6DmxaLMdw3NV0bnE7V7Mfz5peht/pu1VQkNq9o/1qLwgzI6WkeTpM1tE1KGpxH57v0Hrkh4hFkOxgIvXijNrJji1+Iq386Bp06SNp3vFK3jPo9m+PnOfAORgk/RmB+Q7gZwClJpJD0VvHkeTismX/9HSiq5y73KeROci171M8eKfIHV1UxyOS87Ifoa/x9JpuHTvvOtCIDUgppRUydWdrfKxo06TvsuT6wAyW2XTmWN18uy+uTQvdIK85MS1Tn/qAZ7x6M0j6mhgk/Zng1fv3Gr/KN2C6BdE+WDw9gTkZu/iRi9TREu2pTrgTyJFcCxXjsS3PoQdIr5FB/yJY0hZrfU5MyFUg3SPKCv7WWTp5JGpNZrSbCJx0cBNxJ94WufZttSC3dknMOg6VzMu1bwd0HVP3AE2Qpsityi66h1r5vgjq5euxCvFaGCT9meDlD28A/io48KIVnVHrFPrqQ7WiEmVMZQm4rwTsi832iZgUZSlykBh6J2Gx7kpVEjnJkpaDYWdRL6GTWPmaxL0esVaP4CWpwLnb4UxHKLqID/a8zq4nO1mv9IWBZcx4l+P6oAPRZY8Mpj0mzkgkAD3rLPY6M/O8HskiPQaug0HSnwG+fv8BvlKNaAbzrBVVSn0/t5SdUKsFyhaet65DH0ZPx8BaJAf0WKTTYY9ZUCWTvLzA0iAtWJkNqHmK80nv+lhGq3TEuLn68fAshagOkCXig2P4XNlybe/wx2sc2kyDM4h1pSLZYhUU2WMdXiFeiwIkzDkhoxYTECjhS5jVMDJefTes6Wtg5JP+DPDq/VtkfgamPZj3DUG3KUcVgoQsHJLmAKdLGxeAjIql1lAkao/kGqwHfy0JuNfS/blFJTxp6J33yfux5XTtnYyH+pzDGh/TpzmBacL+bo8sBBK3dn3wcrlC9y/try4bt4kNT1ocV1D77qsmQ/+Jsn5MBKIJgrvSvv7LgEwQK7emy8oHroFhSX8GqKWWXM7orc/OpeS5GMoNvvY4cswj21RLmgHW1WlUNFtqFhnW9PWHwj5665G6l9K8XOnwA0PQpg8Nx7Vl+auzgqNoiZ2IkCaL9ojWq1D4+giUBTQLOMtq+LjyrSnKxTFJ7QbhhaYwvQVo1gidsG2Rd7CDZGuLBD9/87d4+ePuxPMc2MIg6U8c/+p330ET+ftKQp8mO3qfv5Inky/7XVra90VDtszhfnapxT7bbmD9ReMwi9EUPTk+klXdONsMQQdensYlI8Vy4GRmva6Lo/QzkPV5iVKzJWdKM7CznCEHZY8wwJCKVkK9SMYQTJpgSgDiGfzjf7zgnAciBkl/4iDskWmyhRD9QpSY/sbpW0muVY2d2E+zoLdWFy5DwCyiQzJIziHSrZCwfhtCyUvxBLq0Tgx6qWOhFGyc6jmErY2IzBbxIdglQmIGE2nR2HIF1px6R8AAJssdLan+Erq+k8loKpM8Q6V/E7E4gejG0ptqzpifj3C8e2OQ9CeMV+9vUawls6SJWkp2qvYM0r6Elylu+xCVTAhEjESCHenqNF2hFktKqZ7c3upAJZotCWZpLT4NaPXpYpPV7HSX9dsH1SJ7kObUkCZ08fT2y1bJnZJ6lLW9CUCiGRPv7bt0acOd1prnQ3OPJNthxqsRjncvDJL+hPHqx+8L6aol5yQI1KlulD80MoBLvuCt9Wq9s+4SeOyGkbA7qsqw4TLLkqSrdt3XXwzRItCSYLXqyel6+tVg+q92SYLUseU4BBba7xlY+hCg6UdDBZXVfQ4d2fsN6HJx8fwc/ZZ1ANA4a4BpAkHzYCcGON2VohLMABu9/Pz7YU3fB4OkP2EQ9hBMYLqDZ7cjakm6euAJQDLCjDLHlkPrfLJrEyhZDuIz2/HyUX3LLTzETMJObpU/DEmvDQESiMsHybp1nbfQsUCOs3tSZyNMhF1KSDSZZcvVWUntt7zenF07CKz6AEi00vihYmk6YDCIEopPhASUZou/1nzUiQhEGV+/HnHTl2KQ9CeKv/judyglseC5og9Zk2YfUfTGY2P707Tpdo9IrEoU1Sm53l6xrsMm64tYog14jMAfBlEY0nWAbVxwO3Npz7lS5X36u3beLnURmAszl/eIaXUBZ3M1naA9L0ryuOnWml77hRAzmHfgUsRWt8o2uxOC5Y9Z6f7AyRhx0p8oCLfIsgNiruhYMmmhNdudQjPEFidI1IYBbJIplhZqjdNYsXJpwlp89jln1/aH1j+L8sKBQ12fH2zGILUvHMi5ClCH+n8JPA94O7IRABCBUgLyfPI4QH4mMqNk1iMGeAKyADQvvok4WBJPIAJyvqv5PZCRkaA58TT1LQnh59//HbII/uaP/tt7nP+XiUHSnyC+/vED9PaawL6ogPQ2o4Z4/WYOifF5hmCGFBI9nth/jaRridkVHdQz79HK54sl4VI4th8G1nrStvd4VvRqPzzPRQlEbiO93arW2cHSnFwS4Km96UifCEIMSgzcZQgY2SrDU5OL49g52nY8qXQk3UDg50wccokAkrk9bxbkrD4Dle2pVgoaOBuDpD9BvPrxrVmyMySpZdzKHT1a62vdAr4fao4OUuseAlq9KVvZQkiQqRJ129c1VGprBg9qP30oSPOEGqnjIAhAJ+WsXR0fNs/tUxmSy1JOLyxsn6zkil684+fCFjM979FEpvg5QyN3KLnuPkHmPYA9AF1+7gUCfEciwqs3fw+A8Dd/9N+ceYZfNsbQ9gmCMCPLjeZSMD2aEKMc2q0FmrqUGzLHyraX9aY+VS36Epmj8tch+zJ+ZqWdgOZxrIv3R7SirS9H2j8+Q7hHb8oq09C9jd/B4Yb8EbRpmoAmnanOCIh2Vi/Xq76wJeyyQYtmK91Sr5Gr1UOcPh/Dkv7E8Be/fQPPJew5EhzrC0zCNLtYuL2jC7iUPBrJw/kLrdPp6P6d87BvvaK3sh9H7ligWcCCkCflAAWJ/3NYsb6gM4ANViyCxBrzExPgleOsG9RdL0KvaIcS/UGAWOJ/TgSwVpIBiS5eodRMM0qNxmZeoJVbAOBv/ui/vtdZf0kYJP3J4QNyQ9CCnuHam16dOFQI+vzp0+FIDt+IjLDOVVilUze2KKsPUchXIrlzURd8eD+OwyzM7hyl3WLx3ukIF5CoGMONcV2cy3Uvd34KevLOABjCE5A9kZIKG5ySxVbX7Ikz+/kloJnRpTLDExPoBDNW06sObGJcrU8IX7+/BdMMwQ5Me7sBvMIcCgnXv2wELWDOmNgpO1LeiZrqQTCIExJpNT4v9nQK1gl2y4Ju5Y7HgixeuBWdS++O7r+Qcy4FLZ7rwCuFiPOJ8xj9bRCYVGPWuGcCJwElATFDphtk3mnqAU42GPu525WRrEm0qM7cuEgw3sc6g3NreuA0DJL+hPDq/Q/qGAIAnkE8I2EuJB2VQ6URS+VviZQeZvk3AEpgotU80ceQhJCEbHWar5zDSj+peXquxX5VZI9yOHO/aOKG5ETLudAlcBLMqJ6KU/esA7tHiug7AuKdEbBlM+QMor3lJs9mgmcg9TOMPtN2cPTSjJff/epeZ/slYZD0JwSiOwgsmdLitl5dF6aTVKoW9jnxA1uJlOIWpW7hGefRtQBX2Gmz3h7C+2YxnnHAuKjuPmhox51szUKWQ/s5Dnd8u4tbjtRudiEbA3HvYS0ORiVbzeUSUgWU6j0JRDvVp0mX4Ze4fJ9NJNWmkbyocfSBcD08eRrdjFdvfnnwOgxUDJL+RPCvfvs9QBlZJrDlq+iXdzupxldcSGTNXtumhJpTbc0ZGYvLalknRszAdz6IJOiiBxj1HgVni+/ugt2bfd0h9ujW/JaKrWsgvU+JaqbDU6HfZi7PAVHyTQRKO7AR8OEZjrm4uhnD6nFoP6zpEzFI+pPBj2WaX/IkbG7rtml89RAyB+ljkYb0dLhQI8KLG7qiq2pNZYg4y4K/1NpvXLKlYEJbJOxo22tZ98/uV3+kfk/tz8TQhSYUxqQTNJUoTTR9JGred6lD00brohfCrCRNveyhe/R9BGa8HNb0SRgk/Qng5ftbMN1izl8Fh037oO6VUAKSgFJGJl/0e74ZqXYPl0dTcYXSCZLIJVizGAkPpqmf2JPaD5cJWpJeI1tZa+Vgkd1TseVytW+Dak8PNtFEe6jcruRLLTk3A6iUvxqFn3UYZaCsbG0Oo6tTiUWb8us2tOmTMEj6E8Crd++KhUJl8Uq7wlCf+X9kVrcVEN1cjXg+4dWVhRoJAMBvQZxuE3pvEYqbcJO5bSmgXpGcL+JIUmtfoJb8GbILk63tOIJzxInlrVu/a0IOhnt34IP9qMlj9TshHYunDJ6gi1aCDMZ2HB0UXC6xfrEdzPwHXteSfFtya/qbk8/6S8Ug6Y8cr368A+EOWSYA+46kgWjVoZCl53Gu09O67WGcZhmrFg14fofL0Nj2xXAzUm7m6uv9fFR0SfVPl1vWLND+ed3SM2Uv2z10pLYtl8JEDjhiV65vdX96TfeoN5uz1p2GQqBct2F4IYmwn32fREF8Yz+KzUToDi+/G0R9CIOkP3K8/OFHLQCKXdFBqyUCtDeo1ZizG6JdXdgTxGXSh4AsJEusJNY1yNJuYIlTbH//ASzpM9DRn/3J/TtHWrhkxnIIK8ND91YtsHAKrBgEGEksEJJq9Z6SToAmG5z9t1UPzRAkypAJOuuT+GntXH2mxgUwX+4s+EIwSPqjx48AlCCJ96GO4RrxhjuVvPrJHD6POM/Z1yZQaknzfvdYGEaICwnExuvMXZYOuAdGmf7DiIdqVM3p5y2ooSvSkml3rNPQ3bbU/x4IWkn89PmGn6dX02E/z1CBfpeyZb6LFF3PqxyLp9pNRpvHI3SIzb/y6vXf42e/G9b0Fsay8I8Yr95/ANEdQDcg7MvN0i7kCDemPdyZw2GbtozW+q3rOmNEbghBbSa2Nu47wlcS6a2uBM2o1m79+CFvPdx5eTqa8yMBXNfe2PY0C7qn9n4vHdl02ff6ddsSW6gMwBn6PUh5XdTozJgt492O3ThIpRVhBuYwkBN0YM+EOByo92SGYL8d2DMwSPpjxst370A8I+MnYLrV+nEUCbe3Z3ydX82rUHGaHn14AwYRW00Sabn1KKR5FocMaj7J8ARSEAkWvKAuw34qPVoAPhT6+NiIVxFA+DX4kpJDCyML6ZKlCyijLsGzQc9F0goFB+xSNN+bJWFKLMjiJkLoG1N4SeHtGTMYX7/+JUQE//6f/VdnX4XPHUPu+Ejx6v2dWs8yoSRTohoVsbSgfG4pJZkSVre7B2z5N1/cXp2W9/8pdJGD/io9xC89Pik3PV6xXu9t0a+LJccllD6qY6sfmg2PKZV5z+FWXeYwrdkULQaUfOVOw+woY5cIzKlE9tRuCJp4eU7tSZkTMdYgqGP8DE3YNOhoDeOqfKR48e5HJLqF0FRSQlas3ZzBo07qPcc9VwHqkVx/nOwQh4oLHG6pRe8gXEOvez4Fos7fzl7OgWy8WnOTtjelv9PHfaxckxB/XSXwbjv76kqNRmYw8ervS4UMk9dsOTdEEy957UIN12OL1bBFLRAsChsSQMyh9foxkwB0h1fffYsXQ5teYJD0RwqCVgAX7MoKLw9bUkizdcxTfFjmOJ3wGjri6tW/BtY10Qi/yde2PL8PF0sUAl/dseKgO6ORM/KNbF+bzpr3Ntn+NrHb230sXgzSxFbEpDJOyd/h371GdhRqFUAkg5mxPlTZ0ifaq3SSY5QHgJwt4169FvXM9gDfWnKngYihSX+EePHjHRi30HA612mXN2C1qTwlqSfKWWt1m1xqO+2OTZCVkQK1G1zMfsd28zJQpagB+QEfD63UQc2f8xH38gF1Lu8c/3b8eWdJl69IGkIk+x1k4lK9m8p+ZL3QNKWthNaeHZkvQEPwYJEaovHQIWuVQMrvTuBuBYa4JU8CT8TVDL3202ICBHu8eP0NSDL+3T/7L1evxpeIQdIfIV6+ewemPWb6SYlV1QUrwFrwkzMHkyDx1grD0whu1UIiAtHeLNiYQ+PcM1vrTU88lQzbLl9LV79gHyFbhNE76o7stnp86eb7p57XCkFvH6Xrh9GzqP4MIjCT6cp9xXg/mlS5o+mDNuRFaCvxC2LGOyGTPGYdiCTnOtYTQySH70KPRMgm8Q1rOmJcjY8ML37cg+SuLG4j3gOcy7Sz3hSOmvGsXeByf4dhydGBKjHcg5dLq9Vy8xbJnvl/CeRJ5v0nWk7pIXKFbPe0fhGuy96jrWKJHncRVqxIHc3HdmHK1x2ubLNLHeLVTch1e1kn/Sz+Ta0IMBbp0+6hz3RJlQBTq0sL+QCBVgYhNzK0JNfLN9+un+sXikHSHxlevnsP4j1m3KAtGgssyddItNEjj2uSx1Cdhaj+qntBDrxaP34Jw+t3vMcy9LMRaxledZBynNNatKKDhHDgGNnicGoYoz4n8uiMNa3czQAb+LvfH5GAOIPZrOnmnFq6FqqZDSUr3Wc7LjF1qWm9/QymW/zsu1+fclG+CAyS/sjAcgvVKusycMa+m1bGm8fKY5X31iyfC4mtq1t4f4LSVmrVljWLklafPqYe3VxFATw16v37EAfX9vQOt9xFdXDWR0/S1LbaFkrz/OLJeHMG8Zp0E3Vtnz2s9I4yKGksdTkrr1hTji6eGq+eJwEgQmL1pdRxQo+jNWVmvHg9rGnHIOmPCH/+2x8A0pV2OjO0iI5F4n4HmS3tlZvPD4+L5N9+oHXv3EincrRrY9kmBXopiYD8ncdcmtYkVPJErRc3tvgrkBOTr27p0d0mQHHQAbDFT07QDC5pRE/T1ZkOf+dU0trVrimvE1iAnWRMiYC5rQWZrX+JE0Qsh2JcNm+/5599N4gaGCT9UUFkD72BdkikFgVKbcIZXoGjLv9gCAmEZwjNyLpGDOcR9cZ2PIGZMZE+dFnEdQjydLv8IeSGMxBSk+Jas4mymiNotZsb90c7IHOUt6q0QSSYaIJmPUqaapR5VUk6eswNJG5zrbghHeZ5sP/r8ESqTxMRKE1lJyq/7AymO/zsu98cPPaXgkHSHwlevr8DyR3057yD4BbAHYC9kbcTuCBaQmTTw2vp0d5qnZJfW2Zo1xjS4hPvvREjaxXrx6LnToFdefd0uNuV4LVlLrHEq/P2cMmutZZt/lOiOfxSSvO5SyFNrZnOCbnZO+JAvkvjgImA6dlirUxJCUAE8bJb5Regv2mm/bCmMUj6o8Gr9+9U6hAKxJvN+d7fLF5Zu10Cvk0Cx2+2coNSKlnMLl/+fRjbRBW9lHZspkDSD6dLL1s2fbU4ZS9HVWklOD4PRW1Q91jv4bGjAWo5c3Id2useHh4qcuY6UB47LqFdIt5BK44nIN2opNGMD55hjyHFmvbeZSPpYU0Pkv5IIHIHtR4T2kUOWqA1xwR24qFp1aqu8RhXsKLLooNrkaIceLVyfKBUlXkMh6FTUS4PQs52axysJXkpegLe+qzb5iyZQgc3YgJPDPAEIU98ZA878aWbmU6W/tVKj6F47Y4ZBCQGbp5DcNPtbb9dAoSeWdx1jPSYwUObHiT9MeAXv3treaKDw2eTIhm1jpzeZXW7tT3OJDmyfR4kLeiaFelDSxUHSkw2Zcvr4CkzL1PFz9lHAM2XLJWk47W4n+Mwruw7BWFmUVZehn0FsSjhSu80sx0RkJiREiuhUswD4hEZ/tzakdOd0MRsg5wgkz5KjeKwMIV2N+W61tPw+P4E4EZ/euXXn8HsEuCXi7Hi8GNA3ttN2JKvP4gs3kGAtqxRBmSGzLMZTj0Jnku0nldhX3KiPR2s7+LTc099ebrsEZUFm+0fOlLdWOK533+wOuwY9PM5HA6nL7uWSuRL1x6xVc/xRU7ByqUJwKQknGdA9j4yNRfJvQMnuXeJ+joQQVaxpKkM8JQg+2eg/K45PyGAeI88T0DJWeP7znj5+lcABP/+j/+LE3rz+WFY0k+MFz9aSlLoKrAJM9RJOEMDp0pmDo026DXb8PfedMJ1We9j07OvNQRs5RnMoirWtFl+F1j4Z51LJGhuQ8eui9Zluv75qQNF2JaocbZyqKzClEE8g3i2CVkC0jMI72y2kiBNoq5zTqf3YGTMK+3wLiFjZ6dlM0dRA0MHk68CQas1/6Vb08OSfmK8ePceoDuwT6+RizNwIXhIXcHVpgx1qxNVrjgRdWUhh6n9cefS/UGLV56ovpRsMutSIGo0ZkYWRkkZesSvd3FItceRHVrMcXG7/eAKtNeify7rH/kbbv3WPAII2fvBXJebFGtagBpPTUjJ0pbmBMxa1QdIEKnfwTFwStjnDJK5W4loERti1nZi8M1zyG3N5VHOhmfQvIPIBCm5YvIXb00PS/qJwbgz0qkJ+5sft6PchEDJ7dtZKj5rPR+x3Yd31LWadP+WW35zu8dqgdpTVdPT0GS9W0lLet9hqzrWVpx86HTiaD+tFR2WlTY4NQSdwkrUuiI16+/Ns9uVWQtMDZmQbhLSNIFS294heJhfRK5zwAY8JdDu94stUMZE1iXnQs8B8fzUPiDP59r2nw2GJf2E+DNbYUjiDrOwyLZfPNFY0UC8YUuO3ovg1ld7jRh8vwAAIABJREFUvOvdDst+rdvpZBb00mHlFLaQYMPnV4UQiLM5cB+KGqIe3aOPCw/Oy+LYQ9iGA0HXq+srVct3Gkqq1SNzbQMCiCXhZwbRDsIJyBarL7ISDupnI2Bm5DmXtil8Vmoaki1Pnxj7/Q0w31bfKMjKbxFEnkGLMJs1TRkvX38DQPAfvjBrepD0E0Jwp7kKxGOeZ6thSDXvjf/DPrX1KaDrpanejJTryvBT50hEoJSscO36IpNr4lhQnSee78EWNSAmdzxIJjxB0KS37d57wb/YfIike4eh98+2d4L2pYM02fMQIYRQJWWrK/D5mg2K9vtKEGSxYEQCwIQsk07T8qxpRpt2jO6JShijdRh+BYmyxUL7sQhp9xXmOYNk74XYQSRIPGOWHUT2EJrhVYaozDi/LAySfiK8eH8Hwh0AWArHDGFBEgGJ24425fc4qmpWl7+1unN3Y5/0eyaAJ7NUO8v9gaAxGv30HtC0SzVxPK3QMJOmz7wmlpEdniD/+jHachLlB/JeqwQjgZx9+9WKLAJg3wy7mgS2PavZPvO+MTJEcnnHyZs9m12aIJIhOSPnzrImWNUWwIsIexs11iP8nQiSfg8yvwVhLvXJmQTCwDw/h8gPJZ860x4vvvs1CPmL0qa/vGHpI8HP3r0H0R6ef6PNtOa5OlAJuqDekHpbrWima76pNVy5JNYpiNTX9tyWLcMSOxFMO7WMbyzG6VQt3kzn5OA/iprSMzglL25r+U2Vp5vzFcLho1L4Ldh2HNur7xPF/OK2K6p0FIdHP1/9azliVuUzy0VNhJRSebi/gCGh0gsjoWY8bGaF4Rewe8bg9JNiZYtVe2GewUwQ7CBuSWMG8x3kC6OtL+tsPyIkiwctSfVdsijeP7sZiwYpqOWK6sKGNtF/wIoRVuHTZLNer8l0R0CHXgViWFWyCa0VKdt0FtFOwZcoym0Rva/pjgw97IOJ+88LhWKDJMN2ZVO3gVviJzp+DlFtF5vJMM82IEodHOPYES4/EyExY9pNmKYJzAkpMSCMVEq/hT6FI7LJWpwy0rQDsAMEyGEFLTNA9Bwibv9rPo8vLY3pIOknwJ//0w/FilaoBbPIWVxiXv21bYv4V59z1HGLhrnVAwIs8TuJPMziwq3jlrMsk2kUdfQIQV6iEp98amIkTWgiHq4p/xzvC7VPi34ttX9uAzezqxx2YrOijw+8vQfCU+OW3pbfHXUPc1IyW2a9BJ4mpN0z8HSDNLmK6jElcQgRi2ysM0dKgjT9gVrIUjVyphmJGRnPym+DMCPR/osqCjBI+gkg2AM0w1cYal3CSM72nHx1oVk2ZZHLbA62mr40i+u1ZjfyrA/MgFQHksoJunCBc0Yiae/3B0SdA/TRC9X6o0b2iXvawnHS/U9Nw3+MaFsl/hQr9lJQ93ft89jb+Hvguo1p0pEz+7ZLGOeRL7ZUN5QUZlQnnnvoQIlqJwI4YZq+0pSoK99xkwvFvkDmPXiawOkPkCUh53oNmGYwaey0/sD1vRevv5zES4OkHxmv3u+hDsOq1cVcFUg23WychX7j+M2HspKshTmbFsuHM2ouBisUQGJtPDTWpvfcPfcQwiMk0fM2Trd0t7arqpBbqg89rVjqxyfZ7GQzqlD2cWUj6LX0QhFcf0cr7atx6nJbNBTucw00Wmi6eY6aqAtojh/CPcvwwrfg6QbAM+QMW6WezXImZHxlFeRVn040fzHW9CDpR8bLd++h1VdSa2dQOymsf1p7MWT8PS82WnLQutWL/5gOw4o1DZaKFSeSkcXixTsOIxtYuBhxtMY9l8FXfPJDD1wUvs4NsbcnclviTZ4TeqvdQoe91LG+B9tiE219O6XXOg7PYzgxOO26yt9mW69Y+MwZRITp5vdAnLDPNmbajDFNhIwblDyFdIeffSHW9CDpR8TL93sAtyZ16A+cLYKhKLRCqDk6onVpK8e2HIU4xFe2rajX3a3op0AcbhR8stxScpkYQZvdeOK+B/rTOAzxIHJHbH7Zs0NFDYx81xSixvCvVvQpMyQB6SIq0QE75Q2SPnvEcgODMd08A6VdGQg802Gj0ATrnXgPSgk8qQY9z/Y5z0gMgJ4hyw4Qlf2Y9vjpF2BND5J+RLx89wGgO8SIDnUYAkrQQNEdN3Fsnr/1ga5KW5dJHhK9xaW3bCTXugTilH7FW/0aNm+43p4T5AqtnnX8xbkQIAlllSl3gsGigzVu4tTvVqTuwwcrvtTu1eFk+xrVSuQAMWM3TaA0LX0IKw0wz2o173bgdIM5M2Yhq/iyByfGjOdWF3H+YkpsDZJ+VNyZFV2ntYWgG0Qtusn2D6BmiVvsJ6iWuD8yA2IhTukGSGqZlBjkR7Sol0fqM/qdAAJKcqBGrz9hv9VOGQP5kreT3JGX4tgAHPsFxHzS7qfj8HBDuubiPi2qA4AmqhJGonzyWBczi+hDw+KKs7pZMu6RG4xptwMxm8AXatqvWtMue/wE4Ml8hXocojsQJ2S5sV2UqD93a3qQ9CPhxbs7AB/gE3SGJ41R54h46RWpBF7zJ6tm6xr0tjywpnESQAmYpjDn7h8PB11k7CkwY6pV758tAz9jsKAa1nDPvjlBtwuG7tvy2pk075Vig7GIa3fUEj1xevwKARt+ivZ7LhIPguV95Dhr10QCuboc1yfMJSKkNGG320GoyU6z2qhWOAeEd6Dp9wFJtjxAwJiRUsZMz4GcIJKRaI8Xbz7vuOlB0o+El+9+BNEMBodahHllim035uKm8exwZx6YGEiTxrSKaJ25R4VbT+vT+iL5lMxsOMqSqgrdX+4oV0LCNT/REj2MjcFysY3/jYOXvy0A15S1tNKMuDxW9OgNKcsXQon6PCQndeg1qViP/y58qy0/gDRFK8L7BNC00+iNLu90tKaFCJlh0U0z0rTTslrZzkos2iMJZuz0XGgPkvxZW9ODpB8BL9/vQXwLUCwE6rSVW7IoqCFz7TR2+2ZaSpUtQQNXMUCvhAvqKBZSyRARZEmYJWEWlDjx88cgn22sDYz3wdasJjJtfC4oZL0SZrf9tZlCX6qwLAf3uGWjRZNJFV1a2GNndQxS/vXFMdks6h1SulHdOnzzLn14eLQvqiEGppuvQPQMkIScBZDZcns8g0Bnh597pMcg6UfAy/cfQHTbWiDdsl0qK97UimgJY82pdgKhEGsRUAgglmQd95/Onwc9z1ZgcaLwgeNccrSpOvlzLo2f5noMWq74gBmTCt0Xy1akebvOLvTIEwQMIYIw1cgVqo+1jonEDBxrBL0OKUmkTtewgdaGWMgacAlHP43WuavQnAgpPQPTBE1JgLKQUoAwy7PvQ7JWOp9+DyI787NkEPZIDAvJY13wgj1++pkWrB0k/Si4W3mvWm7kd3DJ60ztdrpViRMub3cPKUESDNAOYMufUJIU5VYThB8X27Pye0C6v/W5k8tlmnghVIptVV32rA4GbfY6p79xMVtPWflcvGalsXJ1DlKIB986lEslPts6ZBHXQUHIymrRqRE19Zua3eIlS4SFWH+z073tmSf+9ywHPGm5LvHci/EE7TdMoZgtp0nLfFl+D7Wm70A8YZ9vIEJgusVjmx+PhZGq9IHx8v0dSD7Ak+u4apiQkTJQ40bTxnS7kvbiJ9htru2QteVJaY6kF1r7XffvXagCtM1Y+nxfmKGm0wVWNIzTwmB2qUpRTbgLGzjzWKXPaj5mhONTXCl4QnNO7Eb8YrLZKk0RaZY5Saj5SeIAeR65qTDjv0k7Ph2usVmOxAAb7cgegGh+aiL31FC5TGpNM4gJ8/QMkmfTtPYA9mCakGmHWTISzXj5+h8AAP/hj//zs87nY8ewpB8YusJQw+6cMgUZLPaTbObB9lPeJOtDr2EEPZUUpLXMlr3s/j482mmvRE3WDU0+gyBXB5TDS5/XelSeS3fd7yF3rExsNlCtbJE2QX6VH06dYXhbgpJutAObHCTEyETIzGahXkbQW3vUOO01BFnPnMOckunT3OjT5ftktt+GnldiBqav1GHo1c7xAZyALBPmzADtLx+wP2IMkn5AvPxxD6HbYkXXn7AtyS4/KK6ESq0jp9zSRx1bTtA+OWoJOrZ3Nu7N6p0EYLHJm9EIh9qxOTAxihwQEy5tYZ32fLA4dm1PR6T5uTz6CGM9tohJWJxt5ekJfXBpq2TF8/7PiytA3TOxa5fSbBMaI8QT0Qs5rXjDB38mnioMgFV/J/A0gWjX6TkSojT9exEkJuxunkPSM3hYp4elUtohIyFnxk9f/wr/4rvvTz6nTwGDpB8QP/3hAwi3gNUjcbQX/Zg+a06XY1YeUSBolOO1N5Rs32UPCB0uoh1PNhDdP9ytOYUNkovWrZImYUZCiUN+ULkjnneIEU+EaXeDlHYgSoWoyP+hlSYiSuoAHDyHmNhWwKHtTXFk8wxWX9tpkSX/d02dum+9OhGpcDIRMO0mAAmUJ6v12ckwbk2bYTPdPMeMZ8jYKVHLB6iUNmneaRFAPpx0Xp8KBkk/KKIVraBCE7AbJsSrlpuN4KXsifZgL28f2CYLaVVCShCaANrVaX+agWSZ7oDmAXRvPDBR+63pZ986zy5zHJa9XR0qqsU5J1OZMOqz17oc8Rtv+zWV76ksoY5STTeWNeN3f7mKnn54ABcAIgkCS6wlYRZ3JGaxTDTC6+ZTZvsdsebp4JA4jDRixeZNxZrWmaE+oZQwpa9AknR1bH/ywZpmzOCUwLuv1HKWCbpq8s40bf1B//S7fzx4Tp8aBkk/EP70t+/A9AFeVc7tKEZGYoJMqLobby3RXsmaXF76zc0gYrCTPbdSydWwNtfdtMirJeSOJQqvYya/e3XJ7/YY5bDWaP9ekQqoEMAlWN9rzQQmAAkqR0X9POrPJyxUKsQaJCObZfHKAFXnX2T/d8UhzsBy3YvO3AgJ5FVYfCUle/4Oe12MjjoQujYNEvBuAu8mDUPNKThZ/eAm1djvJt1MoPQc2WUP0RzTRDdltvDT17+96Dw/RozojgeCyJ2mX0S1JMyfX+N7JaHk0DiQYGgrY51OHTUUqjoJz7wJH2ymX6fT9Zazq0GCiQSeiOfyLizNzuPEHwgal0sdrWFb44Pbs65Ds1rP0ZYEsFbN+4SRy6gqnMO8QfBV6oBZ0cuzOIz+8uhPl01aIzBl09yhzjzaAdDwOAAQ0ZWEpY4FarKD0mbKSDc3ulhl3rcfihO9IskMoQlpeoY57zGLmBqukohA+/WYOWkeGoOkHwAv3u/BdGtWRlvmCnADwkLuDsSquhe+dTLGD82CBkJbR/DA8kY9SO1wMQBBZnD5dTgctnX0KJTBgOnLqvsL1uqMB0gkyWtKHNquKgnBskckmS0d2C3plX43b/m+VafyrIbL4Sn+6ti2zdAqPe3np6BszSF6SNw6DteTGcgTgH0ZNv1790HUvx+GlO8rM7B79gx37zWWf7n6VmOqM+m9wBNhJ89xewsI9jWtgE5RP6KVtffHkDseAC/f/6jTL/sBVheKkYJnqGssuaXUccjSIWIkilP8SnznJXB/qF9zOzRFi5NDf+93hFyWEOvdn4qLKRPKY4FG6rgG4owgTvGj/FK1Y6q9xCWzHykLcLJKHUe+w1yoMh5n+fs6rGJRR9Ca1zv3x5a5WNl6/lqswNP2VTpvhxbirBnznn8Fxm7RAyLRlKUEEO1BRODdM3B6rk5DJGSPwSfGizdD7hg4iFsAlqcXlmi/09jUYeN1gpYEzdBkSO2tZXYLERI9RykeQNmklY91ikfFqdOG3V2DqI2szS7TN9fbbZI8NRxwH4uam+8HcQXham/7HnnmOFq1/qR2LyRU8sH50EAuxarXFYYr0spa77qfaRl0OIbr6W+WIFXqcOQZmG4A3gF5XxokSx+jD5tRxd6arME7Bmcgf3AfTUfUQkgQZMoQMKabG9y+nyHiGncCMdv5fh4YlvSV8ae/fQeiO3gtikoAlUT1ZvMoWteSe7jVbfv43kQgmqoNQvNpMoc2dskpXQQBMBOh1EAn1c/VqMqBkO7fJyYqOr8INUnflkdwTfp0h2GrP8c2G2UVMRp4TSVfFzoO98EDMdwO93gdXeAh2E7bWu3141HkzUm152SOwLIilgRsFvy6HS6qTXMyq5sWm6hRzXqPCCMXCSoDREjPbnTpeLfkn4UwCUAS6nQmRpq+AkEjPcgPC8FPX//T8XP+BDAs6StDZA8ivflmc5FwQ9YmdbDn81i7ebZuKAJjsgQ183kEvdHeQ0FggYYEwKrC7Ahorejr2f6V8y0mneqASBSuaCSEzQGyxZKcgezJ+ItleyC6ZNnL0JL9Lo4MoFLiok0yOlKj0j8VssT+p1jR5TnZwhdzdoYwUhKfHfbxOcHqlT0INwAmKx57VzexbjATRNj0565vRtT5vRG+zyB8okQCEh1+EgDsJtzOvwfIjxrpxFCd6zPRpYclfUW8eH8HJk3sX63kqBiaRndkIUecibs1BBCYJjBP+lm3MvFUPP7vlnXqSxMuij45EVqoxa/c+s+6WaV3r+GhHkctW7UYE4CJgGTGbc3SF/9utbfW3/VtG4eybrnYRmUOLrLZaefrsUisC2xYCbqEgVqBYAnbryLPId1BKGxAOqNSU1ps4QsjkYbxsUW/EESz3+00RalWF2qvi+dVJGRwEkw3zwDaoQZ5ps/GeThI+op49e5D0J7jhLjLbHBG9jHdSyUOJWheioenTt1l5fFAKBEOhaAJLn5c1372VW6iFhQRtLgBmkUYdXusfXDgPOJzj0p2kk6IJOQVveKjHtf36y+8/zKOXZOgRcPDzcyZttpnCtb+8suOa5lKD6L1zJUwa6ud9LaJmpGPmPT7t9SkhThtkGHOmBI0jLSIQ7r0Zbd7Dt49iyfVzR/sGASknWB6/hycEvxAL77/PJyHg6Svilt4KBiZFV10Orguaz92QtH4KqxIK6nqp6sId0h8g8Q71R95BnhvC2CAs+sU+gz/ykbtgsyqOGhv7rEcFXyKfB2TpxhvHl3RcJO/1u8jlaUQp/agErTYAg6Ca+xiU3AsTjFandRdpTbLNup3sjmQBpV7MyrId/M0ohu/Df8Zmsari0ASJO2AxGh8KKWNJbVvne2c56oAhYG6nocu5CKKD5stiv5uiAG++Qo03SBzalIL+ExhBiOLgFmQphtImspgQyT4F5/BopahSV8Jv/gndRjqTaTs5/m9iFQbBERJtkyD4x0ZBQ5UogFs+TCqxLGiQz/6zK679/flmU2XkUwx1OsxTbMmLgPKPP56hny4fuSShg2Ofq29QC88Xmbp+lud30hot1jPZP9XFo31z5cOtbX8LL2Nv20R1/Mha0UwQzYrv3tNSQ/RW/6+wvUBAGIwJ7Nm4xksLf7DCOQtc/u2rQtg2XtShAYTm84tgpkTkKl8lXLzHLj7AOw1J4dm9GPT6c3uZpV2Micgq6Li/ohPHYOkr4Zbm9LN9lO1H5BVYxaQRTWsmUjxl6Q3lL/DxB1B30+v0GUB9yT1DWsxLn4vGepEozmYpKRpbdnsWlRdI28FDJGaYKqxpo1gN09mpVV19hImT8hUyN+szPKyv6pbejQd+Kzv2lI88RlUzU4ed3GdvIaA1l3jABHiTshqHpZPT9OvW/JfOQ+Zoass/fNJL794ybggCBGMVbXfYjHvzMCcEpieIeeMPAtKoig7h2niUiEuTYx8673rv+tPE0PuuAJevt+bBhcXkrgF5rIHggffNYd4M8SlxfYTJkZiS95fZI3tae5TQoqVyeE1gFIBZG2fe57Dyg148J708mSrfYkPJ0Vf0k0W5mc6KtVHIq1QRmSxuyTw/2Iewm3i64h2xRxvVzCuDdD62txoKO4/znA+W6F6VOJ057a3c8wMKCbEaqulVznMrwgmeexAmJqZRz/L8FJgBLu+xJj4GXj6fROpyAZNxs0NgVMt6Jw4Rtmkz2JRy7Ckr4CX794BtEe0TnyVl5ay0qobbXKbbbIgAYjJfnAoxLJ04pxJctSRwZV4vubaizer3khO0A9WpDwekutgKFmPL2W4iFP8rWtPpd9qhSUk8pJlLkNtzaGd5qq1WirR2M9AFy8Fm/vANVlKJv607X9LdLUIWLMESmqfQGYskDs9CecP/ieapxKKKZfcMklXbwcZph7djRNbyGXXeZcSRBL4GWM/3yHPM0CMlPx66L5EMxJNuEWCZpvcHpQ/JQxL+ir4/9l791/btqS+71M15lx7n9sNTXfLigluCDQ0hm7H0EoUOYYf6MTGxib5zVL+ikiJnThW/EtkR7LED1GkWIryX4Bjg3F3X5pnIDbgn6IoBkVO3KD04z64d5+915yj8kNVjTHmXGvvs8+553nvqaN11tprzceY41Gj6lsvzxnd1Mu2WGirscel7bGC8JsO9zCxSDuqE6ggU6XokSJrY4U6KLXdc/Yx6LxYdTvtRKuxeGgmkndXKnc/05Yw2BB9whJZT0Its1pmmnMx0rHOMVouYYExH98grQ7JkLRtkJv/Ot3C8y1x5L3Ln4zsyD+d759Reh43GEibRJd+BctitpkR42RjzzMKLj1HiHcxtmly923YQzP7SZMuiNtZ6NK8bndnw8dFJsz8lTk5xr7xMp2jQOMJpLQULi/foEwXlDJHc4aJKV6VXLX4n2EH+pG33zrTv68OvZakPyD9Z998zxfCYMQZTTNA+/0sNdwx3iPXwfOB0p7sLnuIV0UokkE7gtduduu96pAgKm7X8kBzlr89OaWlKF3JGJMJ7aT81qBRFg0pVCQulZLdHbcc/ziBKvZfjBjuo2gPUnibLdT6BJU27QgmuCmP1d4yUlGdQQuM5t672zG+j23b/35mQ6k1KtZ7m4wV7AAYtSVoSv2j+IgJg8YRbobm1pQyT1zqxM31Q1rgUnt2/1BUWdeEPOT5CQnPiF4z6Q9MW4+OnKTOmH2xq9YdLruXbvJjhLXKyBhe3gkmYdSUQVNYI2g4vz+nmvck/clqrL0/KU5tgNXqSkmTQEuK+2QB1nM4Qw+33uLO6RZ2/m4NABm+8Q/texuky8zRUsfN4Zy0u7teHOEbeBoCB+l+0w4/bhONaND1rYLIFNdZN1Mv1AtunZuAiEvHW80k4Kwdyrx57HaBUMOkghUfGgMzjfUhjT/beDwJlfj9S1HmaWY5Rla/MQ+qGKUo67HgMa/lSWWRl4Zewx0fgL5wdfTJpVuGlApojRp2nqktf7mdQVMmikr39npJJQAX2O5KB+meLEVP6+6dPzrfH2c1nWEI+98SnrAxIZGve3dJdp9nG3JuNGRa6y3Pl5BKv7SJUKtSawaQJFSRVrvRSLy/6B7+8pdZzqgR6/d7n/apb0IVpSBecarmxuTVe6CgcugM+lbaQhyCexipFkqZmHVmVi955c84NWOete906Fc4MUhoRSfx9kS4e8u5QkJEuWL22oiPXJlnT49A6eMLOOThyaByy3rVg1peM+kPQP/u1cNgwJ0ZJb7p0mQy6LugDnDH/imi8/CFKIkr7q3tt4Cgj0EfRLCoaHcLfEr3ePynSSaYxi/3yy5SKCja8EgdGPTYsC5ZNkObWHMVdIjm0U/QQIwmtGaCp24paJ4K4pvQNh+SPeIuI8M8rSI+AjXpAaIbjc6xddGCTgcoC6cp93cPk2cHY1adKDpRSkEDLlEtTNOElomxkEHqU1u/Jen+8QQMk4maVJtvdqYa3fi6RO7obQ7w6DcRysHLdW3glwyKUbfzSBiTf+Ttt2/v5pecXsMdT0h/7mpBSI+OLiWNiWdcdd5TfuNlgsQUKZN/Xlf0oIhkdN6Khy2MVDey1f1puMpjnOySVFfMRTVw0dMja0Id8Uke06XjybeekJl6zHEk71HMjsDk2Ci4xhLh41uU1YJRj7jxIzrqBHvetmfrWmdeHiqr0Vgy7YBlBtz6xJCZNzuBatIGAFU0apIkaBTRq0SkKsfduXK2w30DFtBCi1gUPPOc9HYJzshLEagzqyVu7OH/HZCRMwphbDZaoZbY5PJ86KFBEmhHh4ZaH1lFy0SxA4uZwx5mbWyzErrZLZvSK0SvmfQT0p+7uqYrzU4+9XKBpqfDKDltF79k2lFV3/HX7m99nmz3/uyptVg81FtFzirL+exGYqL1kc18FBJ7n3bdfUYyujxhh7GSwUXuvXcvuEX6fcfRsLj+JltdQFa3Ga4y10e/cG4Qo1dHGY6NttKZVn4zStE14IZZprj3HRJ0kEpqSDro14NG0TrcmbYipCd40YLZHD8vmFXMtnlafO/bSsQi5p4YiIeR5/NYz63dKrtkIFF6y1gkaJoOHhzTJqWElC5eBCBysr/KxsPXcMeTki2+W6chx4FMuhtXz+lwbnGIKDodKBcX6Dy7R0fZZ5LYO9jJ8P9zpGDQLkmdl6J7vN/9KBnbWEHlvstoHwaxV4ZV8pj0ZAjJCkluPER/7s8/d8WBxrwnjVPvjx3DqwfFPzWryId8m6Jx2/ciMSNC/a9k4Pc4L5yxS+aJaRkXbx+ZSScmnV1QGA7LjHIQknRjkPlbGFsxJl2YtDLpRNFLVA9sstLV3qcZ3J5rJzcH2833Bu+da7p4Ka1FS8CEQ7BPMn/JBACFH333NdzxkSKHOly9Eu2TyGrikHDKcrq7kOpM0RmdZqQ4o7e6uquSrXTJp1+Ns9d8fHpsBi+KJQadwQm7i4zZ4Z5ulrs7msVeefd2mY1cRuhlygipdm1BRSlcbyJEH0VnUCMf9oG5pwfDHcmvZN/WzRVl+5JWOmE3GzINUgnJVluUqrBCg81On69WL6KihYCwbNsEfDMwAbWdLBeBKTJK+kCGqhtCkdlbuxZ8Pu/dIUPjFKPiki9VqVYxG5xgmiSfDLhGWx3/FzPQ8M4xpeW1kTDipr/8vdwNX056zaSfgL7w/pUvRO2Kv1vjXRI2GVPI9ImsxX2gFUWjzE9OeA1m7ZN6jzvagK1FfukT3r1lBvdSkfbGov3vA4OGe6F/AAAgAElEQVQeDZajJLuVRQ2VldOq1LdTylaj8n6fc/ay7gYeNjpz1AlYG965sROEtnNv2hw6Mg9/bwEsJMTQZdxgSVTzp+2Xug30ScjEGdP4gKOrYnpUtGonWsKdbQSlvBW1GrWutOApCpMORuDEy7EwEsqZju3knuiJfxPSMigrmGepM50jaOWGrdHbr9fgpghAqnVpT9iOG3Ch/n2ca4T3Sm6QfocqihalmsM3Vo/82bff5f/4xHec9PfLTq+Z9GPSF64Wum9mhzOqpadBV+MIo5BEhrFSwq0ra8ZpReTo0l3quBNkTCG4mmlVqFFEwAxMhY3J/ClKro25SyyykHT8O0LJ7VtANWWVEnX0rK2Vx02D6kv2vkz6Nqk3JU/PjSxoSz6fjgIdGx2l0vvqFwZmm03ytMWnzGwryW63l5pdO+4c7aUhRW+vbdJzRWOTezOIRNL8xedGnFRrpdYGHDikXHHvCJ2GiMoBjrAITtKJZa1xr+4L710YDLkKCyW3gbhWMmNDdCVrOKZbYe8Pf6mELiNebMDxbMUyHZilMLPv3QFm1AK1Yg2DJiAfT3r26HK9Ly+9ZtKPSZ9/7zpgyEqu1WopLefkmFAVdKK5X6msUSUbD/f2Gj8htYDq1hxXzX1HSzlAmajrkVpXKkuUJBohkSelW6atCBYVYO7DOJPdqYYUfQ9eO3p+PMoR7XFpQIHbxiISqnGyow1TvP+F99h7z/fBIKHeVtRhf6+hdzeHD4bDTPexCSfv95RgPl45/ghUrFaHDfIeG8XMNzGVuYsCW79Aiojny8Dd7cwq1TSQbWMToRLGPO/ZhD6Mqjs8Hjc2LnagVxQKZh1IoBtyo6RW9unJ8Gy/TFM1olgw6t6No0dK4Tbo6WWn14bDx6bVl2jmGYiE6aLFN/RJKHNhmrsaqdI9QLxmXKZvtDbpTxDsCAYxO2J1RXVinh9Qpks874LnPTin/D+K7dzlGecqapTosrsrTFdTVvOovs0z3os6oqq2Zdp30f1Nk2k6TD/1vej7BAs2hds91tJ+TOgjsOiWKsBZ+fYRzyP32+jBLpF6Vj1zdDe0A8KYWwSwG6jXsF5TzatnW+C7W8rIQ3VsXsM4aEAYB2cFoqjBpC6hryhr5P3Ioq9YCb3Kob4aeawbPjze0fBxRhhCCuneN4qpICUFHmh48kYJ2TFo81f/Pq9nDUJJw/Grajx8zaQfg77wvvuainbm5VKVoCpMs1ImdQla/Vekp620YNCZ+AUbql+MUVNB6bvrv6dbU6r0E+glvTzV3d7TiYnSFskZdheJhXzjeHT9RIvFrVqDST+JZG9PTcIZ0Mpm1nJv6TX8tt3c5dDUE0jviruOpC+uChvbX0uFeg/tozGpfTuScen5/rTuSeMAxDXVrlnqkcWMNc4a2zUmklIKReaQWjtskbNjLoBkdRP/bVKYRCgcuoth3MAaC+lJnmp7rjwm+atvyC7VOkOv1vYH72IxpESZOEoupG0PSWhGkneJ8H1xDTVRN0vYK2APMP7sW+89cmxeNnoNdzwGfeHqOvDl47C2hDJ5bTXR1b09Gu1V+tjZzUhjVmfSkVbzzLrVISNYkR7LVs2lFpEVW72MkP9iAYd0yvSPY9MSfnF+UXztJQK9FzzPUTySRvDKwCWfiLZ445PSkIFwx+QyJuJp3KNTbI6W22B4KoR9YgxNOc31sW+J7F5Gs93loFhIlg2nNehWgy10JF3TAxArVLkAUQrXbrw2TQSEElK5MYGlp2HIyVJYrIRnTFZR6fUeNbZC/zvd/mqztUj8X6isdoF7nmwr5IyuhA5dGKcJlEaKcxWMAnIENMZZqWkXkhinATZ6leg1k74nff5qoQcmxEAbHjY7+aQbQ6XHOWUNE8sKxoNrVuNMcd2dBDRK00lN9mnXcFVRq1GrY5KPRVIQTZ/S+53b/HPTH/epzP30oD29mPfEeU/sMcozQ7Odb65uekqXuzCYPWlTG6CTG1irPp7ub+fb3edBjugp094z6C5FW/+9+Slr7LCJscvu2E4jfGLmtpJWPUjLUB1MmbTP2gZGmVJtxpi8AIUVamSk68kQmjc1mWvEWBAr7TmaxinmzioBh2Si0nEMvYpPRLZuEmNtexbcW8oiGtIICWadfK2aRaCYBK/Xs330stNrJn1P+tH3j+6OxrF/Kco0vxFGwK4e9pwbnZEVzWxc4RnSdLJ+OSOMWztGfRs1dhNqq0WaU4voEDcghVdIHJjuX+3W6QrIsPk8gnJBpZT1BMABLRAIuoj7qFNuudMJkx42Nx02VQ+mc7hjMQ13wZT67qaz+LEko3b13yXSLQZ+X5bQ5cl87e0BndmygSjGTWffP13KNyuIlBAXjoHYBFNUpUS+ksolme/E7ADMKA4/FK0cJuP6OHOzGstaIylSxAs0Jl/imXwN5IYk2XxgrRqPUslRy/arpDF+wqS2Y7a9lTCIbxgOO3subYpi69rhj4BGjMKP/Mmr54b3mknfm3IihXuTFcp8gR7cW7RnHetMYfSS3URZbXCBLhHVgDzKLeWmHkUNY9QCS6Gytiix1SrGGlPbekXlZNCZSvPRdxkYYWYAflLppEumzaBE33wG5797X6+SOGRn240sYB/SYzfG7gnIlZ+Bqe40pL4VjiftRUKhBznl53wd2yENISP6Sbq+8cgNMuEOmz3pUOLzieGKBsweBkW74OFx5jAXLqf4Td1NNAO43jjc8MAuuFlmrhe4SW8SG+a1hb/2GVvFpJW6TlTpVRpb6HcbLhkCfvJ1ZjYIdEBboa6ICFUVqf6c1goQq0OVrxi9ZtL3oL/xbcd3XUIOq7YI03zBrZMnyI2KQ5hu+8El5p3g/JTIL+oBMi4V1bqERJURWfEoGFuf60ddOQ1Wrt4/TuDK49Np3+7lfdn9lrQN+95umppuYyn9Pm6zYswqwVRycx4KP+xb3pDpYCpbTHof+j+mjds+reiQfAhcWxoQgURBmnZhYYBDKGKUiLyrKMUKRdRfOvN33vkYf/VjArO4feO48pcfiG8QxiDBg8g1h8mYinJZlZt15rgKC0ufYxaCQjN+R3eZUaWwhmi9KfXV3m1ovw79YJujyGuSwWRrMyz64Z4hUVjccG8Ln3v7Pf7PT3zszMC+nPSaSd+DrK7DsvDBL/MhQrqHBZVYqI2TORi0HzBMtmEZb7hEik3JUM4xwXtAE2X751wmzEoEN7hRp2ao7F1cancbE/HgFeCgywlP+SDUeyQlxXPP2Btrm+Mh3b/cGexM44czJRiE1QmRBR6lvZzro71kLEYJTWp0SKy78O/zrRol6WEj3fw+4s9xrW1W/b5pWGK1DlVMRVGrFK1RiGJiKsJcJi7KJ/ibb3mr/sl727n1S1f+/tc+rpgpPzVrJEOqiCweRFNg0sI6FY7rxM06s1plrbBWwzPquVRtVLDYssK4d9f0k/b/qHHkGebaQF4v7Q2hUXpe6YBBaoIur55D22sm/Qj6/EMwW1HtzFV1Cik6cyPkT+Mu71iYlm0l5q36vRPjQiqopi0SLI1gT2buGrG8jHqMxDPrk3LW8GB45lbyU4Y00v7uTbpnSEKU+R5IQbD2DVQg/dMdr7174xs33i7T5d22LdlKyWlwtN386DBXp+a3c/qUzUth2OTHArMxeRza6NKlIpHhzqEpT1hUeHCYuDh8nP/67Ys7nzvpf/0Tf//HVH76cuY/vjBnxOGhJLJQZEHLDV4IWDnKA65XokyWOwe6Z1RFbXUfezyqdbtGUmuV0PZ6kMyW0haR4Ft3B1SVEEYicjb7sD46F/rLRq/etvKc6UfeW0IS7gtimi85Ea02zDbUNCkRQmyBzd2PsfXw2a6iPxmdBruYGVafjMGaFdYoe1SGREVPg1IA3H5zH8rlPUpXsClQSvZAJvaPl4aUReKWd/uab1sXARvN+6AOvQz3u46ceVmDwnrKivz/9JrOt0eQJdpnisocmHMaUr2C9lQOPLj4VDDox6dferjwt95eefM4cygP3BUv+qIVT9Ajsz5k4oBwQWUO/SZhMnPvjwiKae2X3heOUw9Q0Ym4kxtuMnbogWK0ogKi4XcddpgfeffdJ3ruF0WvmfQjyFgGLFnQ6YBOExsPDdrPMXvCCb8x99tNPGOgQY8fkA3HOmVXj8O4k/kEFviEDDrbKtBzdJxv3BNee6OpQ0iB47+7ntsl4szCVzHZGR3PRjS6N4xnUStUm0Jq6xVfgrV3CCHHaxN8lLkyTgGa+2+yKQn2jWXcPJJhJwiU2G5jXhGg4xnk/FpuKAuVn4AamPj0x/8t/tZbH3zp/+LVDf/Ftx/y5uJVcTDFVkWqhBLnRbRcyPE2pbeHUJlQxPw8DzuPvpVcMcm6Y1QtA9k7s4Y+Cv7en8tzmhBG0liT6sFaP/TW1Qd+/udFr+GOO+hvfCvr4BnVjKoz0+EiXI32FIulhUF5usjT6ix7Nber5CN1j1pI967tVR5Xwo4gBJv86rK1uSunG4njfBpnuwFKRVr03ggnPBs6fcpzG1ZLk/oIfHN/Vl5LRVog0LkjexgzTVB3hpha0shYb7/j3Zvr6a7XZkh8GLJxQAScOLSzlSzdZ9uLzvZs0yswMZUL/su3nu6Y/eLViorypVm5vrlu0ZQCXudyTVc+UDkgcnRHjOqJlGpIz2aRdCEDYALREYmN5yQNrWyCvxqk0R5P3DWwusHV8fuAO56iFvis6TWTvoNWO8ZEcX/Pi8Mh3JhumeTNFag8ek02StWOptplcIjXE6xNehupPBZzDLyyTfJQI4dLRL6xk7a57T0kmOau9awpmN89HtHwChxmEn3FGb/au6+Q/rS1DlGT0t/OXWkLr2Qa1IBBxuMG5t6veG5i6PbADYc+Z0JNttx/6e5qE8IFJZJ7ORZcgZn/fvn0mXt/cPrH71fsgfIX7IByA6EHFakctPKwKpUJNxqGS5ysaJ08w6MktNFJ8jGhaTHNeD/0qwVE5H2t2wto6GCqkL7TowD0CtBruOMW+sLDYMZioBNlvmCaS4RS3wZfOOaVlEwx5ayVdGcSzxRfFaulMcEPhj/fQRYpTk/8dIdDbr13zxPRVNB2mWc40a332/DVyXf7lZ1hy2TiHau0YgUn1J85031W82hkP1WoVToMw4CPZnj2Gcm3/7Xtb4Fo0znsO7wXhs3BFbM92py37ZDI+N4L86aEny5uym/pJ870wdOjf3JV+dVVES4gKi4KnsrAk0AVqpXw1s+YxmzzkBNatn2WG4/ZqbByslVF5OFqXQp35FGH3+dXCpd+zaRvoR9+7xgCp+clLtMlk9y1A/tsyAgnDV9Nk5D0JGuKBzPeq28nizpDcsvprXgMrLMxqm27N4aXu05vTJph4RungRkfjLIWpNzJ+EYKDUT6wnV4hmGMHrWJhMdBQEGZ1tJyM72FxmAeaXPkfH+cAS/g5NhkULYZp32agU5tx+i/t/Fwv+BJs1cioEQKX1sf3P5QT4m0GMhMx/MNkcocEq0Fo+5PUoe+y4x8sQlaGP6Q7jJ5hlG3e6cCtl9XnVPHgZ5p5LPfejWSLb2GO24jq+H+A2W6QMoMXOeP8TZ6Tyiev2PI4TCsMiOSsm/yDceirJAMp0WsxWIt8AF4ofm9Br/r/lMu6KGUFHtG3gNXKsJMHZ7tcSCF+9Go4ftC3lYwOXe32nIZZ/vv26YBriA3IEHL5NVLGKqfbFzdZHfu/n5nBss6E9/KxTl/RqjDnMnoRE+zmrGXW+k5GftWii6oesh7JYsCw/8mz1aKTvqlh5U6w09NE9UWsh+FSpFu/FtMEXN//WITGf251xti64oNUdtYjMZ8MzeSNqQoqoS34CWVLk3bSq9z+WpAHq+Z9Bn6T//YWs+IKNM8UzSZ0hgGXeKj4DkwciH1RShkzg6P9nOf0DJEGkZV01SDJRKb5gQKyUTHnCG27CS3kfHfRhIQQvg5u34AUVVDWVn3IdIp7Ftg4Gq0FKbPZX6P5r1TrSMLsXr3Wmg+96PbcObMASG2NldI20AL4fURwmzuw+fuu5Wi/YT0VBhYD6eJf4rjye26gtBdOFcML7A7hmK7yycUpqwaBAgrsxbefA5SdJKWhUO54Hq1SK/rbZ9UWKq6NE3xKt+sCHN/hpPIqIzUFdyDxccl88aMm1zvwS1AkEmWRBevJRrn/PDb71Kt8K8+9fz65knoNZPe0WffEUqJIBVTDpeXFDUmuSXHg8Qk0RmPE4ncEFFyPrEwo0ZRTzmJaRAWiAQ3hLpvke+3aFynCi0Jv0ycJuQXTlhPStBaQmgvrMwUjhum4ltPYWT0RsFscrzc9InziTwrGtmQbHzQH3/3sM2nCCne5DXtQRKnUvTp/U5GYqPIyO6orUTvjNZLPrF5pnGjGNohAc2Igng5LA1/6ATY/v76p+/XEU+Jfunhil3e8FNyACzkY0eiZxFubMZzk2QfVNTEU51qz0lyKuiGO2SOS+tCazlqWv6aFgTWDYdSZlhuQGA1Tzn8xErqc6TXTHpHn78yXycmlKjmvXVWGxdZ+CBPM0jBxCi6NOmnU7KUYMK7hB3SpIL+TVFn0uHGi+k0pNhIL4THS26UR9ZWYWPZ3Xdg0OE/4mpmRfVxK688C9q2oEuk+esHF+8by9SCtZp5SZnt8Exzdp2Tw7zF7vcZ60aoo904+nqAYc7ktmiHE3hrJMgvQwIhoTLp9NTC9h+HVGCahJvlAuw6PJYc8qDOwIwEo85ceZ4aVZpW5LzYBR63q5QIdU8YKjQf2684QaQweJSHhuTRth4XP0G95nNvv0M14Q8+ffm8u+je9JpJD/Qz/0Yps09y0cJ0MQeTCqzQfxmgBvXBlswU0ZHRTmnFHnDo3UprqTWHCMEihmovQurCQRpk1kFcux+j3hvCQmYczvX3Glb5UVJtHhPPB+Pw+wtdmo3vkrxHtfWYp90c8PJ73ULYPP5w9axao6IDBJQMVQYR7+77nf9V6P7laRzLXB2Oq+4jOffzqUd7SJf0dUKosbX6HKnrytf4zjvb+KzoF68W1kv4CXuAyoTFnBUzDmLc2IGeuzz61QzPxOeMue7ntviIZ74S3YxDjmcYGWPuNKOymEMeopgdI8/H/Pjz5gXQayY9UCmL+0FbZb54QFHHakXGtJCDZKTqSZY07P1yujBl80noYs2oZIfaHnXljHqSHU/wyhmWdeTEotjoIC2cZLPb3l0RrBoiRpVupulHpAEHmpawUdWfDyXfqVXddYswprXmdpfFFgN4po3d6+N0EbZvZP+tM7n0lrBWAV52B2+veXKZ9rZvWFfFtxukMxfVqHJzcv1BAGinDXg0inJsz1rrkboYv1ZeYO5kUS7nynEpFPOK965tVqa1sAzRsP7EJdzjWwhZXsjHWhTPtxK/x0ZlKi2+zNege2TZRgMJ7x0tsFy79iozlYXPvfUe9hJL06+ZdNBf+7qi5QhMlGlGp4lM8L91+QkpTpQyRfFZcmHtKWtx5AJPKQfYSBFezHNCPJxZ1i5YtLvChJciXSmsMmGyRB7fLufZMFlPtghzFVHji9MWj9hrJCsa0m8+T/J7V6rJIDH1bVKzrWLB8+7XxtEz4twZtVX8Tl5Y2if33BFMemmyrTayu0/AHVs2HX/tYRAL46APUrvmVnvLw6UnhLOCakFloXDEzFjWa5bjykHfuE+XPDP65asbuDR+qlxQV0EorVStibHWg891cgs0xrBvN1dnoJCEEppHajhXRQ9Z30b97CE8HKPIyiozWrIauTlOXaOKy4vH8m6l10wa+Oy7gpQFjUU4XV6EENkDOAx3yG/AxDS5+tSKCI3eulucN3f2rereX4KAVtDFFyprO29EXitQ6Kqx6YQYrPUYwSoeiNHm2wCf9pwTqW5nO9i1t6v1mSznRaiDXcaUXRBOekdIwATbxFWe+2Hrzy7NBXE87tHkucCnYbeU4X7bjduVmEGbGv3g25dbNjK2WdWGDfF2fawyXDeqrahUNwZbZa3Gurjh8LfnFwN1jOQxA8YaWLDbZRybnqSEVcRumYlbl0URz25nVqgZ5Tl6JBkhiWjDqiW9pyRz42gw+8gpEuv8h96+whD+4FNPlnTqWdJrJg388HuK6hGTCZ0OUNLFqi8ok16wUyOMOJU090dNhroHKfaMOT9r+102tRNPjZTJEqJQUJPaqwjG5FKJHcncSQYbuMTXh/uo5u/j9bfUVdDnReP2dl4q1cZo02+7Qx13XxMIV7ohKEisGZ3G8amZg7mdGwn204OiX4A+KtnpXRZkbJnQmeoZBp3fqtQQCW5n0AOwRcImIhLeOiu1GusaTJ+ZX9cXn9j+n17dUA/Cl6ZDJFFyAaTowoHKUn2u9e3LNmMnG8na0xKsljBcpbmtivV8Z7mPNWzI3V+lepyDThesR3djzXWnAnud52WhjzyT/qtfnxA9QnG1sRzcbahTBJngIcOoUEppxp5kFglkjFLzyHo6deZMFAQtrQJzV+e2zL17GHhKGmfmimPL0ZDdec6oRzQ1pcxkRl3UPs9E9i2XvfXxKVHr3+G+WT1Ro3dz+4sl1T5tgZCzFw9j6PBV838e9IzM6dA2NBCKByABiEQB1shRbKmQyOCrfKYlgzRtGyhl0AbU/edN6p19vGlzjF/RirBgNUL/o/eKvkRLW4liA25A1HAfVZkRChbFJ3JUfWZ3f+YNGc6YaQMA8dw1gIzqonKfM7ZSrfr6tQl0Js/o9Q9XPvf2Qwz4g08dnkOn3J9eopF8MWRqoCsiF0wXl+FyN1r0U9v1wXQGPV4hWYe2s7QpantFbsSnayTAseCVETnVnKjdcT8nqjOqSh0kbcUo9SYqYIwS8E4iz8hITSNNPS3tl/5+AMzAwqS1f0Uuni2M8CzwakFcVTVtYcDpWJaY5egWaVHHb0zqvw8vj1V78lEloR0P5Q+QI9J95itKMNW1GaY8KCJG2Cwktw6DbNKItq0y87MMm6HSxrXaynwCLQ3qUfZ2fFYxlGsEi5wjmRtG+e35+UQY3of+2cNruIAvTe5zXxE0UhXMKDeD/LwVSWDbf/6WIpCXP+twYIcH43gRsMpqaxQAKC7Nt/wDgqKsukAY1F9GafojzaT/8h/NiN64QagcKNOEnAla8WHTlo8ja23khNgPa5f6hl8tmQBkwdKW/8ESX91Kwh3kOO/oWs0TANWBCXSLUhk+529npLydyp+JcVy6PL3nRhVtjOku2oj6Z+nkl11ek4RvXKvpkpVutIYwJiWTtn73nlBvVJtjVCVTtyoySOh9c+qRph4T5Ey5VYg33+gtCvk6E029KmdJ/pcKfR+rZixkOZlHYw+1GbC2HsHsmuNq7fl9c/WN/TfKizUa7snxZNCqrCbUkGDd2D1BBJZkVpTOarf4v+CyxlrP9FYsH5OEOGCtlXU1qBNYcY8sgDLBcoRk2GIgKz/49pEK/OGn5tPrvyD6yDLpH3g3KkTIiuol83xaRqjtqyIUVco04ZFStjsmFgqQE6qFfliqtXlGJpQpKEppbnN7P+pkrsvw+46J28JqNnxVhmPhXtjyBvaIoAiW4YD9xjGeew8puiX8HfrIxp7aLsKT0+N/a1GAnZGeNCekp63D5Cifef+UKAzctZvc3MZyaDKMA6GNBCjTvAH6sRZJgfLJ1jacoZYbA9SRSYMqyEJWRGzb2UkyLM9nblVjGvimYS09J7SwcFso8vIwmKRffvgQM/jSYaZa8fzd4ZlTTGOL8rXhAMi5EPEdNSEDfN2M/WGYVepSPONkilriRXApE7KuLFZBHL40qWhZEXkNd7wU9IPvFVSPIMo0XwaMkfACXRQLqUtLL226VcAyE4Z/U+m5MVLlElwtw6p7kMSVk2GJeDSVr/sCZaUzzBt8Y1hogSyJjdZzftHbZD35DFtGGNcZqVWV9nNT8e/Hn2eM96dBMhYZWSHaDJrWO3fn0YFlpRRFYkmn72yG4fuhnsiqsUMrAWnkvT2XhI+btYjCEdbx69jgLZk19m7rAWt7UfbZpbo0mGlPVxPqEpnYIsmWyBFsibnm0Y1rDWk97lZtYDwGAXIhdqTv/DHu0W+/c3jxXh1nKTa9IubQjOc7oMjEQkYIdmBoGbyrNhXFJQPnoy9b4YVOZobYFAVoexSmUvG8J8KqhboO0IiA2MoPvr3wB598eVjjy9OS50h/6d/M6OTGi2l6g8PhEHn6t1If8VcpE6qeWWvcvUef2/FvC4ai4X7kLnZr4Kx9IqbhSYbUjZfliLGycsBi4lYyJzKAO+ODL24VWGyOrWHE0seAiFzEaXAJqWuc2JKYdmfGvdKWNGhjy8seBWWMjPa2I2UI63WJ88bSaOj+4+5SpxtJNX2WXSKN9okh4gmtzFI6jb7IvRdITaGPwfgseeDQ7oSiTIeNK/tpPG/8ztusoU6LFY4lcizXyrpUYG0Rb8Ya4c/QTdEj2yKeXzEmxK7pm2oGHnk7f7O8nAmD/tnDh1gVvnQI24j5ulBTrE4sApUjJb1qYj76CtqGxov4vDEGXHqjVea8SAgse9L9g9aMQFx9fllEfhqguvL93zq+NJDHR5JJixpqhjBxmC4GrHgrbQohQWtnXt2q3yk9OgSgFv9LzfMUyJDRblz38V4F1PxuD3RhYsFMeCjgxY9mn1YqHOuRSo2SQLQNwyzVs8oJs2mfnck0hiM9SGPXovbNMtRDLGKUEw475EHeFX49YcfNyyGXHUNu4LGthshEBtMbHnV4Udzo1DxWpC+8Es9SZWl93TxsbzPEjbSBLgbtY/D+OF+75hQe69/nX50hZdoICU3Cqk+mbge5y0UycdpgXNZR2z6+1r1RXlL68s0VXzp8JypEyTIDqWjMJc/NWDGUle7jMcKK4JqPIV7/vFav3WkpEGvTbLQodVXM0tArYGscKy58VaMHLXWvj5eFPnJM+qe/fqCIwwnTwautdHwxOXAJCU0Drgi12HaLgjgvqx2Hi5WWlTItjYlug8wy8FkAACAASURBVC1ohqxqHi5bUC71hiLHUJEvmWxG1dviOYILRa555/gOWo2SDNey5Tq0a4/zdiMXZ+feqcS7Z0DVNAJpzknNqcLvyQbm7Pf3nAwJNoS3iyhISMnm/ZkQhS84l6q88vWoHfRFTrCwPZ57tk33oZPDbjtvZO5bWGkM2XdvhH6WtzU9Ugoiox2gH9XfXftZa6THNWXaCAyO4b60UMdAXzke+dI0sYbJG6kcpHK0gsnKGjlIUr/aOmCCb+SOI9V1tCPQ/N9rGBZFQWqh2pC0KtANVJyJ15UEKWOk+MF3Xh7I4+VoxXOiH3h39gUvoGXmcPkAbYJHLKhgxK42x+4aOGZLhJNSVjJ3EWwNdVh8J3aJ6Rw8IBSL3AKmTBhvsFBsBS5QOVBlBlmZi3E5vYfqilnlSOWgD3jrKtopKZOO+TZGaXa4+8albNcmC6z0kYaaKZ53iR6LhSDd9zuNd12ATUk7+l0CMDDrxV+lgEy+iMSQGlWuce8L6eDw8Hx7Zp0q8D2Z8CPp3KaT0vT5zSrLVJ3CYNoCiYDtRhIbp1GGzfx0N80gHj+fNk+dchMeDdQvL335+oovXXwXU4WjuaapapQ1qrYIiFSKVdZg12nryUozPgMKWCZv6nOjxy6IV6qblHpTmm4mIm22eoEEt9GsKCKLf8/K93975Q8/+eI1k48Uk/7cez5QzqDfCMa0U3Ml4YrJCziMZYj21LwNIv+GZPTgRs52ebHhzpEg1IQJ+DirpzWqM//N+i7wfrv8f/KxwnJT+SsXqcKvFJkoesliDkGKRL6JE4+OM9nxLLwDyoBdW1SLkT3j2xoXZWQ8NvlC0gz8SfhkUEklc19vIQLP/ezt1OxDy/b6JqLhz41BtSUYe2wQLHHtbOf4cRzPc2SP+H1zsdNTT445d7+ReUr7fxJnAmb+fF48tzP0rb/5HqryMbJmYJVIppWbY0Izwm/Ky4lH7+nL19f8R/PMcQFicy6iHCle1Mwy7DtdTHMjzvwmcSEpAVdoaCOB44szaC+QQKSeTbdNcbxkrTGPFWtFiBNcMT77Vn3NpJ8n/fQfP3CFpgjzxSXTnDkZcrTTgq8UVWfQEp4XG4NcvJpbVfEXAKvnAjbpPDMF1fhDQoqeMD7OygyUOvG361snbf759/y+iTP+pQvhohwpUjiKslTlYLijvqSvb6rdMG4sFahSUV29QXlMe5wx0KYEHDNsYKJQDu13WJgnD/qouWY20l36aWcD1s7785rtLdsT7HvQUHonQsf2E+KQvrCae0Vh6w5hWz6656mjvfS2YzY/jBvY6YHnAtUFN0alJbaGAVLQmA/DHnP27LiubQ/ywhLJpKGU5xvO/0HoK9dXfOnywLQqS4zXrAvHtYQBMadml4ohNjPDISIEFWXBEKtN+2qGQolZaKBFAgIJB00VWP1vLcq6eoi4Nc8bCwOi8IeferFs8iPDpBVnRPPlJWWeneecqTbiaz2mxcbo5EykOae10OqCmLvvqTq+7G5ygxq+gRqEwsQbLExAqXqWQY/0j97PTWJiqfDvq1BqYWFx167AfctmkY/Qh2NtqylUQ3Vg3g2i2TMcT/zvZHhS+WTSGvcLUT6NY1EWrJcDW2nMTNL7YE/KhlMKzoDTHbJOIdyIW1ib9hO/52/NiMmWuTO0p7V9BytsDITjeSPdAiOdkAz/5z13DNYy7WxeVsZke8NlRjvDGDY1bj7p2WH8zvTic3U8Dn3l4ZGfmifWBfdRzoCx4VmFznS72SM2thCI3W6Rwsl2HjfzqjMAXytmqHjkoVl4eZTY3Ksi4p42KmvM+RdLHwkm/Ve+/gYiwuGNS+bD1CtT7w+U0oxT7s46BnpDXzCOERoeFKGTNa9m2nEpKQrU4pFt5jbsj9nKASg28bfrN+/9HP/ofceC14Px7+nMIkewNE9JOKwlNjcyaWmeFG6Y1EgDmpJ3Tmzdfc53TzC57bG+GDLhk6oz7bV630SscjDuYNRNVTVaVWgCawR6lpw4Rrt9f/sa2iAWbRiY2eg5kvetnJ67Ibn9p7PH3iPgYuhhIxnOIO3lXZt75C7BVh6fw+pcy8ezhmuh+g+/qa8G1JH0lev3+dLFd9Ex/soslcXGuUu4KOY8Lk3CBs+KV1RZqjN5kU1Htakk4jl31qVHh8qQOEtUQCZf87bigTWFz75d+cNPvlgN5dXRjz4AqQjzgwPlMDfpOJGuRqKgE7XVJBzj+H1BZqJ5C4+LZOqduuQ6MnRMkVq4MOE7rHIRLPXvrPdn0CP98g0cygQStaAbcrCXh3Pr6OHSQMuIV200cvXnTI8S38MPwAUwb466XZY0Jl2YdPHakBNMk6ubUtSvKfHS4oV2i+GpWgd3xc0l9zvqljEOTwaR6lVkQeXYXiJrwFfBtLOg7IDnPppGSXor4eamfReNe4+fWsJAff667fqbMPnccHHJLxLhnwTjvCL01esbDlNCb56uVW0rTReEWtVTINQJY8K9XcKfXkq4Z0pTxrqy0fvRC9LGebtAMNXwu0/NULw9wsL3f+tRG/GzpQ+9JP3TX/8408XEdJFh35mesDNpCQaNOM6HjlCHT4SVdAkLzwWTqAw/SEMb6aoEzOHh3zPwhqzR4RP/7fLHH+i5Hr7/LkwRdSXp/5ztzbaEWxpjCs2QUgLTiycavCJywRSILGWilSLHwLyh6EIRWBR/Vsvw+VQ/HY6o0rPFFXHBeh3a5h9Dij4DLQEDAz0nSd+HsjcsHi29S1LCDWm+QvcQOHuJ4Y9xYz6Vczq/rN73rdq4hVQ4PP/+fjUZxO7rEW5LVMjaVfmd6eXK1XFf+vL1+/zU4QIVDxX3lK0TUmPOqo+YomH7qI35BggSQWN+PYv1qQiL5byPcRWXvDEvweUGxxgLAVXXAlPzEnzTeNEuMx9qJv0D7x6YLybmBxd0418uqkFKVpdKJVyBLMJMcym1fTQj4cISmNFL7ecmexe0aluMk8B3aLB5Kx+YQQOsq7EYIfl3961tcIjgOe96OahqDpkUmbxUkwTbqjJYawTK5IKurFFzTx0fphclaJSJhWRrYt0w3gYn50a26dkd+SbXz5XdtXT4+3EY9rDYxvObC6GGdApND94k/N8z5+2GIZy2JjF6symMrDF3VFlXv47ifrpd947/hlwfPYglLyqulke1h9+aXy2oY6Sv3lzzF/USN9jBXCrLIpvOLBIRv03scMopJeLeG2M0fx/tEFhibmeVF7XtCKrmvAr7STgOfPbtBUz5w0+9GE+PDzXc8cNXH+NweTHshF1CbhFtWkg3MdVw7xFpv9dUhw2a8TAGerQ45xk56Fn5WEz5OMf4fn4qDBoyLeU2tVMdVMSkjiWPMEafbM0NTMSLHZQCUXWmSHX1M/Draluc7y5Kpp2v5vDSVPdx6u2vuP+tSzsNKzCNV2kwz93s+q5WpwdPrHIRh2J09pfMIKFib9jD6EJ3epeRlaQeIxGibuKsebXJ51lm8Ws+z7RZtWaw1O4RJPpK5NVexl++fp+pQI61hnQsSOTeyOkZ6896n+f8n0SZSO3Qybe13chEJEv2pwxzTRRUMz4iD7c+J14Qvdqjewf9zDe+iwcfexApJYmFF7UvJPIGMAZN1CZEdlLPaVyLZyALaGDE/0bkOrHJaspqytGUS47O6m3i7x6//lSe7S9cHbm5qbG3CNXKnawzw6ujI/CCs8MzJKMOBo1G+aGQkGuEYzuue2SR2jNm3oOyrJdr57KNSTmhva4vu+PO37RvjudDXu7Z0tOrtQUq2/fANs8gE7tnSUhlyyy6+9yJz0Y7zkSCmZdISqXOQMQ3qSPCsq7881cU6hjpzZur1h8qHtpTwkURYkuU4uWzcO+5RYxKFL5QH4let2icSTkOxPDFsTKMaZCnGOibsWvXle9/+8Wxyg8tk54vLpHi6SAbAx6XVMTtS4R9d4NiyGUh8eWiyQKlZeDiLQIqydywUc1zT1xI5YIbbJ34u8sfPb2HE8GmrVRnrTVDm9GGpXfqUoIbY5SlFkydOcMwpYNr1BrFwcxDdlfME7aOXHHPHfMSNjCe/E3DRTErlZjgvuaDG93QEv+4hx9GOv1uZNK1aUV75r2VikdDa1/iA0YsOLjeuj4X+Xkse1v5pcMmTRiQbT4K8vumEQmjwdevlIbtjk791ivm1XGOvnJzxZQ+pGJMaiBRGce6hqiUmJodYmsjqsOYtU+7bTQYcykKKi36ME9QjWhjels82nh9YQbEDyWT/uvvfA86nU8glPk3ihb3jVRByqhK59HbMlMicsaCPoINnUGaCZMZH+cG6sR/x5N5cdxKKpi8gdkBDTfA9C5wxjyxMLESdcwt1fWx6RPYhEwXTPMFUjwsu8hKkZVJV7cJVmE1vX8VlkEIrbVSax0MZ6MKMkqXI+2/Oy9nbm94F+Wi7VJtwgpeQGDGTTO5SYx+27K9hBKbhWCtOIJE3+6ZKZhUau5BYtiw3JoLWSv20JtrCaWZazmdqRMXyy1mzMr36tOb11f0TaxGEiW2/RaZ7dJY3SNc+wYHhRVlkRJjvO0jd/AZJekhRa9YQB5Tm1oqNXymXwy7/FAy6cPFFAPQF7DF4KpOoTZNTb0aMS5Cik5M2SI9ZBE2TNrXbQc7qnXj3FyNC1ZKhb8n337qz/fF62PHISUWq6V7oDTJsTGkzMUs3f1NdUKnOcLfPQRH00NkwO1XNFjaKIfereRvycCGVKvN/Tr+Psuok4LDjYfU00V3e1tyARacGc/D31Gp485nCS1MRv0kWYMO7T8vyecng8asWx82SXp/3uDfjW/8/RHjczOgFX77JSg2+7Toq8f3h4o5xpzw5G6OFHUwJJW9ZpFQAVWqwCrKaqPitVu8CIgG5j1q2JVSJCr2JF8wRBZ+4O3HA8+eFn3omPTPvvvd7rGgPkIu0cimGrCUqUvOKQzFQDeDYgZ/xI6tJz3Vbcx+jlJroVRjYuWSla/Jw2fzkEM188zn0KCDPVywkVg7o9ailEkHDL5vVJ5SU5ok3sAUtRY4wclmcB+mLVvooGX5u4VO3O/YfR6esZ0zSsejhLxbjEALL89XMyD6S2RFQ7MoulD06BuZEMxkis66+9lb/wy5N7wXNcZvIhwh43nivL220aTo+2xwryZ9bbmKSEILaVpP9kBBKFKcweYmLgOjliZu7WCtvICEQVi7RN1+M1SXWGLSvgvZnO//9vNn1B86Jn2YFa8Xt+9MH0wpU1hsXUJqLmbBndKIlszHNaKtxCPjJ3NJ1UxauMulOGv72pAs6WmSTRdDS3rFmPR2yHZRS/9bkkHPIOV01wnVr4rDG2sUBnCfhuQau3ZEP63xqtWLxZj1Vz822zswXpGAEMLDZqimTXuewd0uL1j301ZoOVQspeQMwNEePizQQuAlvTlq/zwwaK/Lbvu7RBMiD0dgl9awkDzqNBMeA3S2uV5XLdhTjQLCzsbp7cnrmDbvhw8LvXl8r6WpLbK0jDpNGAGy14SZHgNAF4bbhpd0TlsyRAs6RSGG1v/mcQElAo0MiMRpKke+/9vPH5f+UDHpn337T22/UGJluiXeEycJWW7Hdm41jbGYQvVhLqpuxNiRB4CE6uuXCyXa0/T/Pb7xjJ6SwKQHz4smMaszMJsQi0AUmxApiMyIXnheak1hwxx2KAumlVWVmq+QQrc9NMIHWyv4SJ1Bj9juGUkW67/b+AwlNphTKaq1w3ZTN8Lv20ZVS2P4CVUly0s/2a1QfmaM9/NjfIbwp62RZdu1jgmLEPpkEu0WTYrOJ+hMvBU/GO43MvTBgzSe3drz/osHL09V8KdFv3J04UbEOBSYxOfzniaV8N3P8bAuVIlQJAsOn2HS4on9dQptaGdwEoVSeuZK7/YVYeHf+dbzlaY/VEz6cHFoqo+l61S4MXmp4rDU3yIXW/UFU6vLLGWTeGg4Lt6r+CsUXwrCA1b+/jNk0F98uHIUY5XKYsEc0jhiipaZIgd0nvx1KEyHCdUDKuqh2iX9dfecquEQtBSmSWfclTbH30r5+23Hjr/vv0+JcZC+k8akVSlxI2CTM+hRdpfhxY4dm8TGtn2uvSwGDH7pSRqZAse5IXF+wT13vQjY+c1shIlSIo+Nn2Tc8Vjg0mRLUiV8GOEO6JujR/y5AfGk5iXikYaEQBUS73h+P7af08mhTpGKTubwaAouALKiOoEUzIxa3Z/EOPKZbz2Tx76VPjRM+nMPP0bm6bdxKcWuOkWF6GZkyOT8cWwNFbVGHT2XvoZY/t0gj4s1y0pdsPJwPfIs6cdbqazudkeZOTw4MF/MlKmgUwnjaGGaJpcI7jPSyexCChUJJ770C1YYg2IKBw7MHCjMDf+95dIjzLHBl8+pokkbEfJU2DUPXUcnf3Egi4zmZr2BGyVRngQQtir06NlxrnxSNxZ6P3mRWHe57Ex9h5fjaa/U0kvAA4QIz41NhGgwme5V1F3JPN1xSNG5WX5ImfRXb/6kQR4qxkHNMzzW0wDpoiAR7LM1m8dobCJGx/6qwBHkiE7xveV/XnNSSkWKYKuxLkfSb15Y+L6n7LB1F31omPTn7bvOfBu5mzUikTI3tKb3wsguhCrhQi9TMPU90xnVUV9TU1zuYK7s/g/l7WfwdAPp1O7fDIHpZyJp5BQ3iAzNLmqN6Wa1bL9Ql0gVQWtB68QUVWN0o3mM0rCr9ysPWHkDDVW/MmMn/s7jNc7YChiw85PjB7LzEqkzLK/S4biGxBiHnLrz37ZRCm8b8NbTYy8z94CUro2tFozePD9HbXuJtXPS+Hyqj3lQo1FZyNwweXxkHRyk6JMozcZQPpz0tcXd8RThMBERiafCkgrMWjy6JbIcZiKtbajR+Hk0ErshdjmuLMeFm+PC8bhwc3PkuNxQ10jxi0RYuiFy5Hu/ZXzfN59P/38omPTnrt4YymBBqsBiStESFZttp633wUspGlFUHLMdF5Wvh3AjGxACqZHEDeOCyj/g6YR830Y/frXu2q/OtEW2qZrtlJWlx8Ym5Whb9yE9WkGtoCYUXTxRfbtmStgz2AOoH8PsAZ7Pzw211lB5Z+Ado91rI+O0y+T9IcVmhjorA1MeJJ2RweaA1mhbKwaQ1x36IcasGjDFwEV6yn0QjUR/jbSFJgA1ilZadfIzMI4N50IPTOnXsiYIWH4frpwmpbnt+bv2JkY//IsH38GHld48/okHsgQE8cYEs0pg02kPidkkMGkacSNhvwCy14icIefqNiOYc0VUnCEvxrKu1FpZ1zXSpKRLgI+Vu2Uet/PhGdKHgkl/3j4ROXJyELzztBSKlu0muunXjv1lYEDmo80rRXXD7YmRVbO41spM5cvr3Yn7nwZ9sV5CyAdmElGCHibcJOm9fm8u0YkaVoxFRmaznWTueqi734KBVnUGzccRLihFOOgNcxQ8SrnRPSouoEmGSg/8ULYQxygqMmwEjolnxKSZh+VneLslAzd1FdhCDW6BIV1s3tcZ6NHZFnuTp7pUmT3plGh22/a8MwvSXT0LRUoYqbqhtLbnhO7ZMUSEGi2Yomd0G1w/ke3e1P6IncaER+eyfrXpa6tL0+mB88ZMlFY79W8v6gJW1nEZR9CFhh3+X4261siE5+Oo8wXUA6Nbn4hRVPDk/+FrIhXRhe/79sr3PgfY45Vn0j909QZ6pmyQ4FGFXX1N1Wa/2GIJWKQWzaTze0kKaRqSWkdfJ2BW45+X66f4VLfQVJAi7lEgxXNtZIkvBSnaX+p5SUy6AXBMreoPtX1Isz4J3R03JVx37i86UVSYpyNzuUE1oRO/5gVZeCtzUe9plKS7NOQ3181xe9/rZF6JOK5oLKh0MYzrD8xL2n+3PbJX3yiRDdA1KfevrnX25EcWxVE3UEvszvQUr+nV0SMap8Zc04Q5MmGQHZxm3XVxcAdrjc6GJ6bynKS4F0lv3ryDpIocUX+XJcWUrByUEnXYnaIepE+z2OTjei1NL8a6VOpSQzlWRCd0PqAlYLOYVyLmGjkTYmOAi0vTz4NeeSb9Bdu7ILkYNM1Td7fL72EnIjkTKlac8cqYLimOsISwfaH49Ois5iAr/6A+W5ijN2ZsW0IDoUKfObwt9mb1pjGSGhFbzWUtJmaVMKdaj8RUKcw6MYkyl/coHKNf5OTOMyszRi8WkL2VsMIoVUdBAjyZ0BjsUSPEnVueUE5gm2BkK1183sE+5+xsTbaKcO+xZuPtxRGSKlo88s+sZyjvLc1rydZRBuieNT1/R5egfd52qGbczCz6TPndB995pk0fLvq19T2kGYONgxiXE6H59rllLTBo5maZWWskohowznU11gWW64W6ZmX7nIMuxJTDFJpazEfLy3g9xWTUDolVvvdbC595xtL0K51P+oeuHqBFI6Q+Q2WVUkqrON38OSy6dgNS4oVARbf8LySkMb8dACqU2pfggcrP2VNMnHQH/fhDg8kxtxCbY4INRtA0/AObUNpQIBRhAVYKGgnpqR0vNTx3h8M9wkpxvN1WDhEafVy3l3VKJhJltKhIPfgmIoq1SuDKORXdEEwjoMAyqXsiiG4AStnYeyDc2kbUBAYu3CXpar32o8i2lKBBy7IGjjV6pZvCttDsXrU6hW28AnzWi+xn1bzxZo9x+4gXB/FxtPbMyVx6VGEbS8lN8Yyq9yGlrzx8C7uAvzg/8D4plQsK1eB6zc0fMK/j6S7PFbNKXVckhY5aqeuRWqNQ9JmcHohDpFoUW3MuCu6O57BpPZbIYBhbqix877cK//rTz248XmlJ+kfXT+762sNFp1IC76PhjplacrOyrTQcK7bG02NSDa2WqwqAYsZyfA4QR9AX7YLUEnJhb+ECaewvw9SNbYY/g7B6O3Zq4YlRq0uQ0hFTx4Ntoi4TPLxp308CKspB0rd4zBjmfSxAKccw6B1YrUS+5C1W2Jo+yMommVO5UwaLrBRWJlYiQnHDoBk+nF8we5Z7Pj1RWv3Hi+8ZdDLS3LyzdFPPn2K4t4eaBiK6v05ujuDpC+K5s8qOBcRjw/Gh0RnC715+eHJ2PIq+ev0Wv3Z8jw5tVC4nODToQ7qkC8zFR7bWXPO4C92KM99zhuL4rMUohxnTwKbR0F7WsEFAxhA4olIRWfjMN58dk35lJekffP8BZZbNvBc8BaEUGQSOsKOPqnnCF9X9h6uADgvTfw5VxyTeu0W4VLgsxs/Nz9GrXVMGjCmVWboyKTkNXY/FHYxv6CJHBaRNMOL4Nf+ObqumyOrGwmoLhlJXEFMmvaCUyiflinf1gj+qaRZch73SUFZMV5Z1ompx3NxCTZVkNVuGWltmsy1DdYk6d+PAyPfVYYZ7d7bfNYtzwufZZSXSu9q27nO3XWi1vrHEtg4RwpLUNZv9Xcc+2AoHbZ5mAyLkvkvyHx168/odMPiJw8fxxFfGHFGCNyuAUAPmKpETZo0gFMEN0j7H04YyFjgeSAQpiqnA6hGGvdJ98XSqlqmL05Ok8n3f9jb8608//XF5ZSXpL9RPbDIHGgXR4lV/k6T9xzgYXmm5UCQjy0YZtEtYEtFkriZ7oLQKzMX4OZ5OAv/70I9fVffaB9oibjzLoQKUVuGjjipyk1LTi8AhodpyfribXGKywoQeC7JGTwQPKTZzUT7GG+vCf3Vl/ML6Bl89Gt9VCjcoxw2QAGoLRW48KtMmrJYoIpqYuEvGLctbbC7VfNMYtYEEUTJpkis9w4ab2LriBgSR5gpra6yvFnY+dOxuPW3k/NAYerKmUx/dPGcdcmGLeTUewY22JhFifyYFQb9GbgRDysyN9GEhWXfs+ncffJyPGr15807kM/FNai4RdBZLQ6PPvOaha9XUiYlCKXNo090Dp5MM35lj0xMszE2z9rkRMJq6mIAJahH5KKcw3tOiV5ZJy7zNK9GiCpvqDSmDscmF7Oq+0nHoUapMGcz5u4EZpfbU+cWEXzk+/fSjd9EX1zFvgTS3uy2X6W1PNzqJiTPCCbUZ5zLXRMZ/uGeDolCUqhMmwrTeoGtlpqLHK/7z1a/189eVXzgqv3ksfFfJpE6ZktTbpSzM+n4Y1abWho3XBi7qb2M1OoO2aGv3BonioCc0wA/YadFxA1bXEGRVWGNDqMpaT42DPn3SN1bYGj3ziIQjXA/e2zViEIZUsZ3RZ/6Qdv7AJNoVNhn2tMH5Zx//I0K/tb5DiX6UYNSThAwjbkysYWeay+QeTqhH4kZ64hTFcm61OIlk8mpM8+TrIJKnNSYtUdorbCipQamsfN+3eSawxysJd/zsu38aCYg2qWyw5XNn+QK3Gpis4Pk9gBHmMKKsaxiwinWcVk15oMbvzVfP7uHO0XTY/j0y6VB/LRhyeiPI4DOcBsWUQF1Vs46rUQPPC0mt+OTTZaHYSl1Bq/A3T7LPwS/cgKjyzjrxH8q1S7hDQVVh4VCuONYHQCaGSt+MQbuJ4028HFgHDnJAu3FS2XMpwX2lwyXKCrCMv4bmELGW5guutrSfnvshF17m06p0qa0bPLeTq2ZwjQpWJ0zSZzyeYJ8IangePzUxjBhPyQ1i2AzCJ9zqAgi/9+DVr8TypPSVh+8A8BPzd1KtUgQOCjcVLNLorun7jAfALHX2jX3Cfe7XNTTIZXf1gVGLcTgo11cTysKwOlo8gttPLAAr6wWbnzK9kpL0PM87bzT36DjPnHEOZQJWSEwU7TJLl6D9uBp5qNV6dUAFZqn8nP0/z+7BztCPvV/phTHFn2UDfUB3F9INzLH9nLt+AQ7YOvXajYlfD9AIFWQx1IxDmc4y6KSffygcqrCuhWWBpcKx+nuFwO1WhzeitFgW+R1hDb93Ssxp3MxAk8JcKrM6M/UFMoxbc2kjMMO+V6zWpfL4eWCjKVUJyOR+5dGG2gyjMC7gfpVgyKJDMQINLJvmfufzat9rDvfk5/YMGXWYfTEGyNi2ustHlb7y8B1+9fhuSNQwFzhopHRVjzbMfa9olMlDUC3M8zwYp/fFhaFDHsI0PjqdrgAAIABJREFUz0jJdAfuM22xkTruOcd8yeE1vvdbwme++XTH6JUb8Z9959/eMWOhaGJHnGHUOryiRmE89YnvaxquTNBaEwps0vX/yP/7tB/nkSS623yGAJ04go201X7zIJcEHjoj8HM6Rt1D3cWMuiq2+HETR9TgVy8ejX/+01Wx+kZgzk6ZFMil+5zMhUoJPHrryZFGz+2YZYBNujzFtRGqeAbA2phd5MpujNe1ihrY8KjS9lB1f2VgSYe6hw1gA3NsScJIugllb/h3GXJf28CoE3MvZ5g3Xa1oG5CGvcE9Rj6KePSevvrwbb52fLdVcinFAvJw/lnS+UeESUGkoBiXszKV3eZ4wqjdDqGiHA5T5KPJuekOpatMIIqWnqhLonDEZ755e6KxJ6FXjklP87QRalTDJ3rUiBmkqqSm7rNZnpvFEKeqrWgmU0FQZupxrxo9H/pivejzRwSKJ7LPL91QlUwhS2UlJUMaesOkSWidDVm4J3XpW9fKVN2s98snauF5KpRg1NL8fuuqLSfFRoUH0jogLagljxmZZ2v42XvWNAZKpl4FNhIwkFJ3MvVNRegITmjpMfO6MBor2W8mZGRh6FriWlqUrvb7t6o5p/DMmr8N+c6Hge73y3DydSXdG1+Tk2sWbrgT3CWvJIMWHzsxd82bIjFZrcblwTNEdiEgNvU2Jv5SdX4jZaZmDppW+SUgFRUycVArwCDrU2XUrxST/uvvfE93ZUYQmdAyRYVf6XP8zFTONJXuknaLVERg0FaDPXv6S0X4h/PzCVo5oYRxBFoFk6H9G0MnMA5pHRL2+MFDbo4GoYxAQCexitnK16b7T7ZfxwspmM3NKIMJtg4SvsG+zJf/FbaCMm2k4QGwoV+gn2kmiO20jcYUA7o4k3Y0ACwaM2/axAiHpJG1tCopm/wPpnh4cBho081zDOPePWs+7VqjnZIGxd0hTfPx+2Tuid+/vDzzLB9N+pXrd/j15U8c0gj+OWlK0jWCmELSVqWIz8upKBdTcVe9WB/V+sbrEkvMYIHDoWA4TJJ7qchgIM98IiZtxnzmW4XPfOPpmPxeKSZ9mBWRNVTfiBQ8WQCc+VvgxIDjlPUMMUEzeXhIWOa+DvxP/OHTfpR70Y9dMTAYIdOShujYjuuq+SAJ0P2lW9WpTIFJeHTEWXvYR6pL0lTja4fTihi3Ucjg8Tq0fMlWIxeCDG2Mo7NwFdDGgZBM83jfhEMyIiRW0isjvXyCyxpsqsfomU3GRjwynj5sg45l52L1fvZgnxE3H2Ea7XuCKJtiCW0ujT3kUrQlc27VZ2x3XD++mlKr+6H/3oOPThDLfegrV9/mzZt3mVSDSWv7LGXxorJhgCo6U6tiZsyzMpWZ1WYfz9hMzSTUKLc3qMI8uTBoTN0mPkaWiuDZKGG07JxPJfD49Mow6Z95+3s2GqEAZcoMcKnQn5voIOZwSPo7pANPZrczNHJRdAQ6ZbvfOr4gCRr44nrZ1WAJEUG2TK7TqCLnV54To6pHD7bscShqvchTk1JNYJ1hndB1Re4wFp4jbfCBq5Ii6VGR6vwAYwzh2FvJNV6mrW096MUlFpEJYUblgMrEoqsz+6xPKaW9zAQW7dn1NhJ09wLozzAGzvgGd6yJb5dwyer4fosSJDcYGWbjVvLO15L9kVpF4/IjFk8b+42E/ppO6KtXbzVG7YnVMs+GoLJ6Dh+cmapGkQY5cJgOXMwFs6lvugkHjtk0NaRpKx32gKZB5TEmyTcAjD/zrcKf+cb9hZzb6JVh0heHzIblE1enqUEYXZK6haSiw9JrX4MPpCml5jX6YpqB35/fe+rPcl+SaTRYKegMdb3l6I7LWxF3o4t6haMRzFmze23E0vd71NIqX4gtCPAbh8ebHl+16kmXLCEYjQWQEAZkdIyJDMZD6YzaBFhBPMOeMUA0dENkN+oN+YHbb8OWbTgTrALrBHXe9Ol+PnSHS6dWL2BM4SrDGeJpYEWs45W7pF4duxaWltBfhs10J1wIbVOrNXJFmHyk/aMfRV+9eotfuXmXqThGPas7CXgVPYu88sqks6cpqF7j8PIwhTARmzAlIEIj7RwuTXuwXPsN2SBZIqAlxj/UMmG9iyvdm14JJv2DV9/h6kUpKCWMhaOXw3kJQ8yrjJQTqc1falBMmWysDO2sXIF/yL96Vo/0SPrz70PLNxKVu4Hdo44zJCXu7THJLlNFd8aVPeDRcV4TsO12aF2RCr92+fiSmwxBH96jI+RwCjtl9GNtEninjhOeQjK1povceppMatMeAjqJElsb/Nfzl1Qu4j0z741Wf1pAxNYTpW8NLQe0EPmvpx7A0o72Y9ZBYms4ywiLSP7nKnpFw2f/NR79KPrq1VtUlDJ5qt65SOx1FVV3lVRxSds1o8pUlMuDV2FKDamiESUbQpu4G9/hYiKDm7qg0Cecqrp76GBP+J5vznzPNw5n23tfeiWY9Oftk/0PcZc7jxyCU5ijHRiHZzGjAbkcT7E1wr+79CPA767/19N9iMclVXrQSmBejfby3+g54d+1zSiZhaXLHTheZlhT6UYmZ2hN75bHp1+3I1Znn8Rxz8aMYDCk6ZlXwjmduWUrxwpYXTOwOCaDSrbUGbSCOJ6tzCgzwoS0+7iK6wmnUnvpOH8JFVoorcL82I5twIq7Bvb80j3P9CayTRhgjv2uGvfI6NBaQeD33/joBrHcl37t5h3WasyToqrMkziMKeYajxZm9WIgngTLOMwThynqYwYImMbiJroFNi1yiEhdOWE7Lkhmvc1Mblb57m98sM31pY84/OzVd4YWGRKuV4jdAPenTNrVZjNBdFSH+8+ENtOV4/zBtc//vZwu+udJX1wfDKMz4DqbR402WqrZPY+y/xzwQQa74HzBDdO1nzo4TqgZpVZ+47A1Tt6XioDJMZow+m2PzBl6ghu275Z4YIcwLP5uQI/FVtqMhO7rXTf9I5EnXDnoyqwLi154Pg2Dilf7cDeuvS0jmWRpkrzbMAqL4YUCMNIPu3vYKSbWjM9hdmzPrbgKvodU+q3HzTLzsChWQeuTbZofNXrz6psIlZ+8+CTzpMii1LqwWI3AKg8Pt7oiUlgriBYuL5TV4Hi0GP4VxDDzEmkVhw71oNSH4BGt2/VhFtWRVGN5eQqDFfju/+8BX/9TTxap/NIz6S+sn0anFQnVXye3ot7OQnyRKQWVrUKSpXW8FJ4fJ01ijL+B/0VeHMyRJGXIFa2Oo2bCp+2mMjI+hu+NHljR0Xg3kG7ZhGnAHmboegSMX7t4sk3KWWqlRc6lF0PLQ5HtT++JaG/+th/Y5u1Rh2dKa/wYhptFCvLkwhzRlBd65I1y5FjmxiBbPUGZWb3FXDe8v7en6WsmrFnNm5aNe6Ol5VjkVTTKAPQWDhK60aGf0SJutL6qdM+Pf/ng4vEG4iNMX736Nmbwk5efZFIwLayrIRFGvkoBZgRlXW6ikrvw4GLm5rhSq9dGVI7unqeOVaMeprDeTK7d0HPjJBTmwydIbgRhWP7ub7zB4TDxf3/i3cd+npeaSf/A+5/wKsEZVaRp9Blr2e2Zli/MVgprIyoy1Cod0w51Ks8m/P6x6M9f6WARFZo7WsIyG0Y2ML72rEL6bZ54BMhWcmzJQQ2kGqUut8l596KbmxvWgydqMnDVX30DuJvty8C0bIAC4n30NGnPtN+scsPa5uAoVKpeoOLeVYKrpsQ8mGxhoXC9zqC1XXmMgHSf85SyAmYRA1l9rOrUBeGh+zJkKMsQbP3FR+lY2p+ZqdBMsbrejui9plvpzYffBoSfvPwkM0K1iYe2uP6jHoXIWjw7o7mZT1W4vJh5eH10T47cMD2XMeCh5XqYOT6sCEdGW0+CIw57ZC1OKFKpUrg53mb0v5teakz6R+qnaDUHVb0KC2PhpG4A65KIS1pVaheIBte0dP1S0uUuSVCD/1lfvBT9Y8dDy5IGHinnTAEPFpE0VImXuxIjA8AbY245OfZMmpbmsxXfJQ8TxFZ+/fDkqvV/sHofO04cGcYCjukMKhhycwnMIgOF9DbLtm7GdmTkjL+5a97GxS9+uZRrMGNdJlhnJmY0jZtDZZuJwsQUHiBDfmix/7+9d2uS7TrOA7/Mtau6zwEI3kzqTonkULwClHgRhzZn/Gj/qHmbX+HxOBzhmBmHHNY8OOZlYmRTtCSCIIBzCOJGEqRIiNSNommJJIDurlqZ85CZ67Kr+gA4XZdm9/pO9Onqql1Va+2qnSvXl5lfeiBJO9qoH5d/B3XhdI19Q1vvKvRKgjoB/OL389EXJXlFoobhpsFHPwT+5Oyn+K9n/x2UgMWCseDaPZxghS/TtETbvHm5mDBN9t2IdMtG2BFEhDQlEE8Qb0AROyRBrVo0szMVmVoi4Dd/+ig+sX7/257HtTXSH37jnZimMLITUlr0WtEANgkP//KTutqaXRK9ZoPHXrV/DgG4hwOK+D8APC08QJWglMDJxi2IjHBFn4PboKt22/bxRnZ4WwjkC5degFTw1eXDUR0AoMn0Kqq8o+lDSzem9vXr5yNKzfCbAGIx6q3H3B5jpeURDCQwWIx4Yc0ATvBlXYL5FIlOkLAE5+T96pYAFqjiU4vCQ8PHX3nl2HVELnc0LEWhYwhcGkUotOk2X8+zFUzEn240tJrp8OCNFilK/wMPga+c/RR/evYPSIlwslxac2rys0xhqBeASwYgTTg5PUVKNR5hVZ81CM6cMC0Xlq8fwX1OUPYIl4aGuBt7dwhEBC9NP37bc7i2dMcn8rvBCzEPOvQ5iokKrrD/8pc0Mg3uMLpXx132wWQA0zwyq4Rn6bA60dvwxOsWeCj6oik12+zw2ebztsebwxCLlT1cV/ck8L1I7l9DgSSXdDt5GxD2DAhNAElVCVM0vDMjVOui2qsUiCj1cwCjlwmt34PWcJIS2mcygAkCUsb/khnIF/j/Li42xvsvlif4EieIZt9VJN+VXPi4Qw+lfU9uTnZD0bjHFH310Bj7fjdArj7V8hj18ayeYese3jdPr14QcZvxlbP/BoDxP528F8uJsV5lc3Q8DTIRsMJUXCBmwsliiZwtcAhkpBC5ghnkpVN665yRYY2b45rNq+pgcEpYrwmghNN33AHwk7c9/mvrSU+eGE5E4DQbZmdHWq/Kb1OVvyknL45V8i7X/SvcvyZe9O+tThCBNnXN2rnDvEFRNizCJnqjS9vSvgSgLCDJ+OoVqA4AEF4WD1Gp8QFCf5e88YCYalyNDNjnXSZXJhmGOX5acaQw+qkz0Fb4YRnYkh9s4P7fi3OoWoFDpGua5ojFP7r2WRHg2/DsgSJPSuFEzBdSPwywPRG7nnSZR83NzuDmvYYXvQt85ezv8eern2I5TbizmMCUSgcX5gl3pqX1OyWjRBaLBU6XJ5Yjr6bamDUhGgVTYtA0gdiU8NI0IaUJaVqAU/JCuwROqcgoT29DB6fFtfSkP3L2Tm9RQyBegqNHXud1tF/etmggtp39oVWTg3wLXEEKPEPXw0gjpVK5JqUd2DxtfgalVpirfcB+hU4xYh8St8ouHaQZpPlKVMcX31gDp+4BqkdgI/gyW1pUvRQfcGoqzfLVW8xpDq1UTnjQTXCYlbDUNUQYf95lkWzHV9Zr/DNOIMou2o/Clwd7r4AHo5snOq0BAkRq9k2Vga3aKB3lplVCHmBkbs5LWSMTkK331/N3h17HLvDl138MIsKXTt6PBQvWqshiZf/CwJQWOFsLVrKGkGC5XGAtioucC3VaaVOApwks4pke5IUswLQkqC6hohABpomwzowfPfYPDzXua2mkPyXvdSE0S0hviQ3D/J7m4u0uyPnlYip3LUgJ/5qOXLjSgLgGm9By8KIlwuxHAgrX09VL7JCW4xTkBSp2vBmdehhrxlcXDxd9LvDFRd1oKoBMC+dbpQyz1VAxbzUCdRnZ4wlt2nf1qMPkVe+VADD1Jf9MGSyCtSzwlenNdwYmMW6NS7W+IVpiKYxsyRpqoOqeLyk01wVpvtwZ42b50uaEt146PH/bJyIMa9A4POld4r+89ndgBtZZ8cXFrwCqoKSuhMeYOOEsL3C2yhASLJaEfH6O7J2aACqBd2M+FhBZQxv6kNjiIkiwVF+acEeAZ+88nB79tTPSH37jMRNEIYCmpU2YAEBKhlnlo1vvCnDf2w1AvVDUPUlrrN1/6TdbMR0Pj7+RIB6IUM+1JA8XmuPYZha8GcJAV6qIVAEVqIeytBhCBec1nrx7tfF/ITNW7iUGbWBaIesiJatSfZIYZZjYEmsIGsAPig4nCvgrJi/xDfUPeLodAcSY8htYScLX3qLYxR+vz/A/Lxeu40IQ8nPujzNpDXyWFMf2tcnHqUbpMAES39K2BRgQxTcmBSuQljHxeZbgqmZ8887go3eNP/7539mNRxhfnN6HVfaF2pMNiBhLnvBGdkE8Bd64uPBs+nAUXAed3Sh1NKIdI5h8N8x456MPXxp+7Yz0J9bvsQYbPFknYFI/eQDaCziq7GB/1w2lafzCb8PFaaDclDpXCuF/uwaFK4EnVifQUyuGUE7Wa9HcKj+iNRC19HtTHzuooZlRVyvbaBldEEA5A29R2P9ByJ6VUjIlqGZGRDfyYB8iXxmouxyQid6Qu5XmeVb9joCF9zISTHPFYpAKEIPkAiIKaMKfvgUvOsAgMCmSV6YB1QyrUv2Glf6RcQy5DEcU06DsXIIqKSa9yJL6YaHg6PeZVomfOyVoFjz/2Chi2Rf+5LW/BT1K+NLy/ThfWc9LArBgwUSExIwpneL1NGGtwPnqHPatjQ7yALOCOWGdgXpdkpeOm4FeEOH/ufvyQ4/z2gUOp8mjopw8V3hTewPlbyoBnNYzA9B0K0le3osmUOMXusyN25GRGoH6EliaG+F+9xAdUGbhQTMUah7gWhhZCNGZek6rkq7xtcXVy46Foh2UOt3hY+229ebtKjHW6FXnqhpLMz8/RspXlTF5A64iha8ZqtkateYLkDCmtymz+uV8jom8jERskZv74dHuS1B1uUMBT+GiT7K5N6usUqR1NQuPBxztc3QjrtRVtA3sD1/+xd/gf/3pc3gq/z2YamDPlPMEp5PinXcWeO9jj+HR03cg8QmIoqjOflJamkPoQmFrLJHdiJ+mCXeWVxNYulae9EfO3mmeVEpeuBJbdvtdKdo2gOMcqxKItqgi+L4+PJ3wL0mBf8WvHGJabwmPv16DhBra0S6J34SV3uKrRcVapXOj/L0NYcWyx7rGk4ur0z6WJ+pLqovfKxiU+iJqM0wCLcY3ik+ijVVkSKAbqcve+N5Ca0MDAcz7VCzOVkCa8GdvM5BOsEh/ImCtQZVV7ZH+m9UsIuJFKuLa1RZMQF0665zb9JssgIpJF8QxUWkIEDTnWbHVwD7xldf/FvQI4w/4VyC6RrgKCQIi4HSRcPKuuzg7V/zi7AKrnJGzIOcM9gyPi0yxtwOBcGd5B0yC7925WlLCtTLSn8jvASUgLSZXt4wvfWzz59VedjGYNrJWQr9BBLEgJfQDALj3EPmK+8QTqyVw6vPzkvA3K6QGnNTYjKxWuA5E1WLrfXES2Yl4zxfPMmThzVwbb9G4OTNEjZ+C2vkkyJegOlA8fgtuCkgITIJEa0AUq3broICsGWteYrk6xwJ2/J8u3x59o6pYrTLAVsUJ95mtzSy5Soj31HPfHh7oK+2XNoqH2qWw278UiqTew0USFWAwrUZ+9IHxJ6/9NfhRxtlFxj9dvh91N6VIyFAi3Dld4PTkMayy4LU3LvCz134O4gVYT6H5AqprMDEeWZ7iZJmwmAgvpas1DrlWRpqS5R+mtElfACgqU/aHGXDyLztFc7pQxyOUAgnS3FQZ2vOe5WuSchdwaUUlgjU1pW5RiZBZTw1U/3Ruo62gou1vaCeLtSkOUTOCX7tqVgfMi846oSomMxSTaWFwLhv3mrvSLxdUiltiAgoSlEovcjqASsYDlWkpGU3AuoZk4L+evH0P9D/LOT63YuQlY8XJiIk4uSoATW6g4bsA3zWEUp22e5RWWyZOEJU/ozdi991uZABsp5Hx/N2rbZMH3j7+yy9+BMA+jy8sfx2iatlCEAvm0wqqGUQLLB49xWOPnOL1izVeP1thtRaQEt555xSvPvLf8Jz+aCdjujZG+iNn77LLjhdNQBDlu66+jazpV+iPabaN9rAb6Kyoaahm+u7v6OTtCp96nQFOyCVYkTqmdpOkmOV5X/K6ER61bRuQio+LskNJ6ws8eXp1T/oP1gmvnzJAa4iRB76LyWWB0AeOvMbOuVRKBk9bS3Ln3qqAkZH8O5IBTMhrARZvj5P+UrYUvHW2goXMpmIHElhnlMkXkqp8hs4wt0mA8Xc0qG3na8ZfJOZYi5WKty0A9OoL58DD48nzvwYR4Qsnv+G60uJ0qsUhuBAbCXemCd/hv4HeVXzt/If2Ajtkqq6Nkf6YvBeYGNOiBgjt6y+VlnbPpV4LFqASD8kEqnqZX/DamAMlPJt+cZhJvVVEBxYAm41TaxYHEEa3+s8bHHz3VJds9ZLneIXysAIkV8/qAICcJkRic5gxpWqsWv0L7YwawYqg1fOdq5evGn0L3bwJOl7X3itBib1RgeJCGE89+pDxcCVLEST3khlQ5MLpq0oNPsd3SsPz9fsbLewC8z7qdxhN2nv79hrffcXzp9fm0ry1+OrZX+GrZ5bb/M8f+626AVWFKvCnrx3G2bs23wRmNg3lRqUK5VZsPdvKL3Xv2S6K4guqlR9H5q0612nBw4T/nV865LTeEj5d+GgCUfJTULfL4RHH7dZMlUNnDwZPajSP+rlomFEhcF7thOoAYGpgVGU+AYpyQmyrOOyCbzAdi5yNoinUlbpcp0adZE2vjPeJDuOkGdkzIx4aXrou5PrakCpVCiCCkzWR04pbqo71JTGRCOA2jzM1RrnkXgNW6biqNNXAtcBXfvbDo733tTDS//IXHwItyRSlHPGldn94S9mzWHEGtVm01EkNU2wZCSCk69vIkxlwcXzhhDRLvar6FrMSZ2p7GvcsUWzDXcLIzpG254pBkvHk6Y5OCsey2Jir0J8QF1Ti0GDWZhqzLAg4D10Mn1UiSpQnFVqrijIRAZzXgAJfP3k4L1rVsjSk6cYukqosbIhCUd2lVe85xtlSVNrcRwgNVqM6wnBHGl5jpClB1q/hhXeMoOGA4VrkSafJOFmq5gSxn9xqQlxjWmkzl5WEwLl6n0kZyeUk/zVdPy/68Te8Bx8ApEVRjWt3ElUuKh4Jyqeff6TcCahsra0TTeiZtEevQbrayRy+eGaCQZ2XT20amtjYLKPQeOqgrmAqYxW9zsXcM27zjO08eAqfeheMh1xz/mleQomLFnbrpWsEBoWg0nLPMb7ZmMo3WBtjbHuAjV6MhX/311FCvrQj/MBtxNGN9IfO3mVKdy7IXbd51P0qt7trxC6ISPsXEISjMgyYQicBhKRnB5nP28XjqxPnoRlIDMUabe/y3lur1XmNfMAmwnmLvoYQN2JuPATQnPFU2o2RFrYdgLHlXuRBPPOI/cMTMpvccbj90OscCP32p9IeNXBnVaXs3ujTdx7Sk0Y1rWiNrbpeBxp94W5ONbfZMj2cRy+62XVH0z63T8mL2zaXF+9ciw3uwDXB0Y30767fY8ngrtHRff39AimeSLufbyrQOuvtPGzyKsQolvhX9BcHnNVbByWGiYM3PI3/FK9R0VzUthzpTFQontp2nRIQoLll7P2VCUkznlzuhur4fE6FkLGClNpVu5SDg1C7sXg3hxII3OKdeipivX8+1moEOa8KsfOwUFjucvsdK4UliACte/+lMKV6v7HzK8YaES5tFtat7xyvBQAJqitslvkP3GYcfclepCUmdm1Xnm/JN+FsZLllMM+ZJL7w2Y+1izzJG9dgOdrEp16fbPcAuDfdbJMLwojBWY4gNJqH/XfZcgsVOUwqPHQjGKTiAv+7gfDm16g4yvPPCXBD3WaxzB6PkRY65JLvhZLRLLI2jeorGDct5y9KfqT83+pwdE9A5f4BK8GnYqxbjr2hTjbeuH1dhojgxXc8nO7wwM3EUU3Xh8/eA07eBj28kI3rrN5Ri3QbKIEySuFD6DmE+gLJ9ehbuBVMJoxP7IE3bBijNp3Qinbcf3M6lghdwNAPLEYlqYAbu0ECK2CZNruUPCzaIpsSMCyGqhXpj1nYp1QU5eaWSxsjXWid+OetsnxBpgywrAEQvn6F0naBVW5GqXqQQ3VJbH9aUDdkEVdOa3Z4pf7KF8rIsG2fb140oHk3KZEDNwdHNdIfze/z9ucxDBeqQfVqqiezjZz2rAi/eILtC4gqSK5ZTnSDT69PjOrgdh6t5l3dChNM8CWRFv6+BcXx8XfRn4jXQq33ybupMgzkZLnKZdTuHTajgani+WeG1ojH481A4/gy9/4TjudYo4BcxPbfZBP2FtAE+GC6gDVbpcnUaEZlmh/d4BsevTXg8+du0jdEhBdPrzqHgZuGoxrpaUqmHZ2Cu6zok7IevJFV4rq9h6U+hff5zDXoW3gpwjh7MUuYMCM+3EA3dsm20orLcgkbfxtCjKQZrOYXAu6Yqqer7Qj/41nNwtHIx/YsiW0jrCltwHarqr41iEyN7XNVVyMhWSEqGp++83B0x5fyAkXcqbxdLPlNthHie9kHBYG6oyGGtz2rQ69KhS4otVU4yfLBBwbmOJqR/hc//5jZpsQzg1wvDgIakf8Hf4GJfNNdNHsJJ3qO++kf9zeJK+BTbywBuNodW+CNqfV8yx4ZRILEJuyp/lM4nkbbuJgTD5qyUENEANFD8KnpfGfzyExQTIi8dYHY7qct0Gjh0rIM9Rjo7HPtslnsjtafLo9ERWmpmLxqsI16j5fK6WoiANuoDipsP4Eqt+15131OdTtPaV7CjL7IW5HUGrhtOJqRXiwmsHuRhJZcbVOa/OAIyDwARNpdQwus8fQ1aS67DY9rxdcgAAAgAElEQVSvTi1YSJEjXg2BOWFaUtgUAhExzWQVWHcVwLIN1A232v2luhCN5nLdspNmPLXcHdXxB+vJPGfA89at0lG2BMk6fl1n5dNdLPjBXnRJvYOJKoF409i/DbQOgkZXem1fsi44myRT7QakiOdoodPVv9PcHDffJxZDvqMS/YGbhaMY6Q+evdcU74it/LYYo+otqW+N37TM17/vts0mqOdJk2bc44dr/HgIWIuwGjDUElaqIbjQMI5zo85XqIlaQFRhCXZSPDMuwqCEvh4RIMlIsruAIQAop45qVbBrX9Dl23f1z7YMrfmMnbcWJSszp3pW7Fx4QYh/5qTW++jrO0gnNPu6Sbv11YTuMTdLXxjxDIJQf2R8ZjHLEnmgCKh67jjsO/DC6dH8poFriqN8I35XftWCLVzzNYKvC58lqdR2cpfVc4eBZm28FGCC4Bm9vl70J18/8XlNNfVuq0FreVD1QokSjnKhl6A41ASA1GgHhtMhRe7I8PW0O6rDEDxzmKqmjdTGdBhB1pb06LbZLhQl/zhicK3vWU6Te7XBrTeG8GHR9kGh7tvkc0R938ovU5cgmJvvcjl8y7i6zA4/EVbReKUpDNxQHCVPermwTThRpJ2heMzRisjuA3ptjk0QAG764ZEQkM9xf7q+AcPHL06BpVMdxEZTmHvVHUekyCGXGWaw7DhCN1utghCtcVMPGK6reVECyXqnWR0AkDdypJ26Ui2dZnw2hVHOJI1qobG+3fNbqmObkfOcaG7K2h82aFjg9jK0O8gLajqvuDD8lf5oM49YzSnmxgirtuZ9k8DReB8FRrusgW04uJH+4Nn7QAlWNhz50WSeIlO0TXKfrCkL3rwEqXRbsZ09m4aPXOAeXV8vGgDYtUqQUmkX5Q3SzZCpb6m1zr+eF9/uR8qbtprF3tlDGSeyQgqvFWaAljvmPL9wDkiKwosYJxcWoO9OiWp8w4GM6bW0h1NfUatXTXx7jL1n5Ec/YA1/W2jjhg8+bvsBDAWJ60i74d3Me69Ht0bZqL1hpAc2cXAj/VH9NcvEYHZPyy7YVLbl5m+tiFFDiNXYAOQKpeoXgl8Y7miyyrX2ogGAWKzpbJoQFWpbL3vv4AGqSV/+QDUURRDIdhEk1ig14RzFQINAqvga71a/REoRElBoFTIfuWZN+5wj9lDGH3GEyuxaWwLLpqg5P1pfSO2cxN+sa6dQrmal+zBe3ZXUPV1IDMzXgzbaGYFFP0KArPHcPl+9/7Rds+ZS0z9w23FwTjqxbSmV7WLe1jw2GjC1Gaptya64+10v/Phbrr0X/amz00pzoHHcqJkr2QUufv92A+6cNKKLtZ0XBbn6cVExAgDQWvDUtFtP+vN5gkQ2RAwrFtEmjkDN/9KZqVqyHoZOyXYKlr7Weprx+p7VISvEwnCVSsM67vgc2tLuOtI6GaMn+udGhk11JeYj2uj9HQY8+HxRvLgr2diBG4WDGumP66+a1+h5obUVEpeLrw/XbC8FJ4UXsIQXZv8SBPfT9TbSj6/vWmSfJjNLXXVacD/VM6vph9t8rea4YgQJCRlTYxJIgLS3cuPwgxVoW82S9Mc0DnE/5n7+tSejbMzWjgzOeF1e5+k7V59DpMxVgaVNokU7WdFNrRB7vncy7z6b/hXh87Dwrtjxwz4PXIKDGmn2fNqUls2lbdxcbHdty1s3y20hAYOsX2H5QhcBSONf5fpvGG19msxQAzCOdn6F9oah3U/UI1q/DWY41OiCCet+E07AU+mNnc8FFEtojCL6Gs5m4juemj3RetC94RbhZme17byYNU1yDmhd3Hc2JW3PXDW00ozRRhY7u6pNYlmFMfpalVhE8+qT+9n59un6f3sHjoED0x0E5SXACZwWYOoJjSavo1weHsdHqTVzwyDR6QJkutEK/JvFy4edzkOAAAsaMs+8p8rBhmraZVvnenSbr0uFr026ghW8eEHMWvDUYveetHL/9YncdvsEY2dULZS0Jr0LiFZjaHnFmxSYvZhTK6TVk36zPPq3gsKLt160tVsr44rVbosHTaWMPR7nuny2C3D5qGpufLzbvEXvwEDgoEaaiMDJDK5o71cBjV+s6rm+7eVAFiBS8cva2FfyMnC9QsXZofCpsxNYKTjDu8CCKNqV1IWqzMTc0I7maP1pgvoeG4gqiqWujJN2Y6mKmk+8Q/zBOUEo5FX7ABsuMWhl3NQuMbVBbRVUkhldEi/g5l/WhRf++s5SCn2cxLP7ZqIEcy949hpRPVsZq8uW2Oa86NDtGLgcBzXSL+iPvHbLyWQKw8SwPtEJWczgipBHx7mTjrT0KyqKbqaXTPi3ixcOOZWHAnFNvYOfg9oh2o9pvCuCpSVusvXlFUHKYE1lr5GQUYsxzD98Jr2+87koA1KqDc3QhpCoH+E2ytzUQhdQpTpa8sZGahk/XLzxzQgFlMCyqsZwZ8aNipJfabZQnAc7z3OnuJyL2Y5IW4seZHcje2BGXLpXUhW8cDoIj4FNHDwFj9LSi8zm3h3VX264sk5oOVsBQ9QuigT7zrPSL03Q5YmLu8CJS5MWY0xzs1YZ2ZngUntb3GBRI6GZkJGw9ucRRAiSFV/fA9XxufUCqxMnLyioltSwD1QkS6FtZgNtBhWLoWKwL7rV2aQ4GeUZltlh34Nn7+zuw1fUxgv2zlrOe/X9N9+vFc+TmcGOxRjNeQlKxKIx/uBIkR64BAc30gwTRmeuxqXbQ3pKHZFVbmUQWAUqm/1KCMCKE/4P3DvsJB4W4UkXdmB7xoYX7DX32P/dsUoeOHNPW4Gka5clVWQBZG0dwbGHxtMEQaex7N5i+xnlMmoqx/UGeh6k68N0PXxRUtt3xXdlF2h19qwruKuYO180lyuNW2Ub6tNT+Oc2lzxtqW6/zxYw68EJ5l1NZeAG4uB50qEn3IcGLasDJe+5Fj5YNgeXnnnqW3u7/BNe5B8fegpXALnyXfN39zv+8s22mgtKc2csjmMBsxssKFjNixYvM1dOeDbtp+lBEflv6A5RLWmR7bobGdutOnPMs3jRwnZg9tfrzlHDV+u6vMrOdlD+OrlrfKvFQG8mA84g5fDu9crw2z9Kt5mWk77C2AduPA5upIlMs0K2tFUqYjuETk3MbjOgC0TEnTHhdFrivvzo0FN4KHzqjRMgTYCXTROZfnSiYHMjxZAAabbdrQRrubjJuWrjPJUBUkFCRs0vNnf8mcVuOoLPoeRa2JBiQIUjzNAHxkrtN8E96T7YCFjqnY26reub7xzIdgZq8356uRuOoAsMNvfoJUdsKy/S7rBYVOIz7I5C4aX9HhFglIQPXIaDG+lvyQ8AhPfAzY+pgGnjhgmANTHEG6uKb68TCMuU8G/WXzv08B8e5F60365aHTbXUrKi7U4DZoRDibS55hnVAyMlTFL9VQIDmjoBol3i8xfsnnQzIOrLjkoaYZMkXKmOuZGmxl4r5kax46Ob1LudZ0T4glknFbcag4voAl6T5noHOubbzKs8WGmfuEs90PjS6TDSA9txcE5awUgUBSy1zRWwtn6H8Xe73S2BKfuZOOPf5qcOPfQr4Yn1o8DSTjc7J0DdRbuZQ8xbuFnyOJ3dNjGlSGULL1SQoEq4x/vq76i9+p02fDmV/+rDusGoNyxwCEn5fdxnPditagaj2ESVdho07MmYakTrYxMomis02MZwdHcEfVIqGT2fOpQb/bW3vMLAAICj0B1AdJAmr1BT55cpvC5NtuUvPxMi9W7BjH8nv1wGGgBoWsA0O9zLRKg9lCMAuDZzEcSn/mH2FlvFEZWintbSBCoEEcYzO+wI3uKzcgIlL/TwVaPNTAlPH0Atew8v2WmA0BsBUKRHo3nuBsqOYR0nD9252QGMrqjVju1uplNm7IRIq88vzZCqf6Fbhmk7gDUlW1qVQRuZTgMDFQc30i/lv8BfpFeROLknnXw7T1CJ4KH9iKbyWzRhIuD/kj879JB3gzDSjV+4ATc+JXe67W5KTQpe4evN4rMKSMX66ontTmjHHVhasEo1uj6OrhOhe/uJmgYAQdpSs5gArlwRz93UmbMDvTikrUTci+Pp+dBbF4A+5Bn9DLuhzMcUUgUtc1OkC7TpMqN7ms/ATcBRRP/vn7+Ck0cYr5+v8QH9HS9IiTar5rXEZlDAWJDg7oLw71a/nAb6k2enwOmppeDpyhxKAG3WrXlkUbDjpeHs3LUWs1Bek8QyXhiKJCuPubIr4zHu88/2Np/o22cTaZUIw5T5p1kyHgjMeUbvhIWr3Xi2Waqaa01Nl3PC15c79D4rz7RpZ5v7OiImytqpz43uzHunyWK7CGo/dQIg7L0Ne957YCBwFCMNAF977dsAgJMTxutrwYfkd3DRfHcnEiyZ8T16FffW3wX2EwM7CIjIBf4tyBcUwLw4YoP+UMsUD6+1kgFaeekgDshfL1vlXN5jU1MFNW3/+gAZF+PdixIRhcWO/Op4Md8lFEs3M1RuwUndg/f7nr2zu0DbF+QU64h9XGIoLahr81HKW7ag5LSPp0S2NE+zCICiWIdqkHjk4A08AEcz0oGnz18BADz2SMIvzgUf1g/iNAHfxat45uK7Rx7dbvBEfgfsSs1BS8NojTii0gatCj6V9iV5y05agUxIUlcv8/ASSAX3T/Yj2PP5C3YNafOWC9WhbQOAbkTVSybpeFwASMSo9S3b6Q4lgHI9B7su/Gjp/9jRlc8AtotpP4Hu7XXLH62tjxenSmkofOGWWNwEL+40CDpwk3B0Ix148rXvAACex3dvnCAYTQuQCoiNxglP2q7b2lkFQCGcudOZrv9LeF/CSIims/5UeCbFxevAcn/zkZBZbXpfxS11PloA9xRdZbr0DEyN/eLGyG0GDcvLK4N0VY3jru2Z1hFVzej6q1BN0RJrJi0bih/Srh5miVEtdhjqtsDfH5cb9oUf2CmujZG+yaDFEsrcNYa1B9pMBdq8qKPcMIp+NJTt3L9TdTEigiiQ1TIG7i32oB3t+Jyc4GLqXcU2s0NCQCmcxPBGKeianuqIBYofuOX3IhZ/z6d33Ew3zr8VnEvlzgkwHeww1QBIS8f21qOujYDne4UZhRXzoejjKDtfcwZuFg6e3XHb8MmzO1BeoCq/t5d26yXHLTItBwYkKTIBuVz8YfjMqLFkMMxorIWL8b5/sj8+mjSjfG2Kgl87A60xwWLHg53ueQo1xt2oBGkrdoy7tgyI6MATrm2fLbELFMW7Uq3ZL6S9VGyEfNFZanVu3f/wo2e8+ezzD457cNIDD8Iw0nuGOcdWrBDmx7IetDxORMWAUTI9jiIk71BSq3JrvGioCSmtMyHS+2i9e1nSFkrkKn7V82+7sVSDVo2RlMdaVHqHNIxyeRf7X22BEnUv2s/ZLoOG9R1DgMPHFsMvmStcFevmiC3DRvuVWYMARV1sibwF3DDQAw/GMNJ7xhP6bve4FKKKrFoEh8we2PaYPMDU0gHsBT9RAq7lIleQCjhaazGHnhqenV7b21w+f546g1w7UPZ7AaB3Dvv+O3FA9Vm586ArwsNlkZIskXX3X1lt/t98rJTlNGPsqyerR7y5S+pftlm4lKCcUBWpBga2Y3DSewYlP8VFaGN2QNk3bzMSxjlDk227ixKcIsXWnAgcucaquL/cX66iUrQta4xyeJqhfV12/OEx6kagzZ9ZjpESf2SXWoVzwVbMxJp9H8KQPRlpLQvOfKHomxN0t9oYY6Ggt8x1C0UTrDo1xTwDA9swPOl9I03uLXv3kuI4NVQBQgWv7QzYdzZB2R6zv0bjw3qpOK3O9z4d7aRWDdLl3tWMD8DpHMwVL5oAGlCU8ZhqcLAznCqeGEG4t9xDJaX6SIqNVmdX4rPZ1DJvntrcqZtHXMKhR468KvDSnZHdMXA5hpHeIz55dte4YsmlqrKyzz3mRqCY8C2NTHnWqDV0I55e7EtQyfBZOanpd46qD25IMA3waoaNP95KdThBT/MAG8yLVrClLsbTsPugYX1HqoZ6xqv3gVHqmOZuTlHC7zuLDZSGvCgLwsjtGHgzDCO9RxAxQMm84CL0MDfRrUQpUJXvq6Vrn8HsOtLuS2dXEhRR3N+Hl9mOVLVqfjuaXIeS203kudFAU13ZvRI6MzcXIlKAhZBUkGRdFixVwr19eJ3RUIIIoORm2MZJzV9z3pzgbdw64+67ppb+8J+a81ELmTRnDFJ64EEYnPQe8YS+EyA2Q8UKLuJCfYCphqLIDXB/lKIGzIx7Fs/mopIUcYhu6ZF+1g4uw5XjWvst1vYsNvW1zrBHDR3WswDAVfHgpeDZj3qAMNUVQVvpmiClYi4AkEBbKq3YmevtOSfxeVZFGlXTZDHz/KZ9XwZuOYYnvU9M0Rlcmo4km2gv0iilKCm3fn8Yb24DkJHtocA9/sedD7/F588mS6UrMqoxPipjtjuarA0SVxZp4Y+Lt0dzo9iZ4FBChC1IJALxfOn9gVCLDQm1jrB909pOa26QLchJZdzzbI+24KfjsUdHloE3wTDS+wQxaiuphrvtjE340VbvxsDW3a9V5bEJEblxDrF8ALi/3G9+dI6BUWt4GEzeiqFhMApjThF8mxlgAFFtqRosvfhza3/LMGDq9MC9PWWu9Bl0Nt7CVnR0R90J9R+RT57QcNFUjgVcB5y0BhKdBSHICBwOPBDDSO8Jnzh/BORFLBYcixQ1M3TNPZv+dSNUrErIpXxaweKGKxxqBSgf4iKn0gy4DpPBDKTwmMWCZllbz/gS97dUUM6IjLb1lOdPE+w83D89jDh+GO3N0dXO4d3uR32sCmztdE4RMgaSt05T2G5CNmIUAwM9hpHeEyhFtB/9Nn1ms7S6cJWDpggkth6beZilwZPWLIp76ef7m4jjM+uFB0FjOBOIE7g0MiBkYghZ06/akWVb8pobOo3slfCYGaS1Y0vkR6+1z7DYNWpMwMcYu4ZoRDkbPxU6ZDP7o+6adPa6QJwnn93eMlUGbhZG4HBP+LS+G1YOjuI5d6L9DQugzYW9rfCDAUA89U7Et831ufcW+6sybAesWACYnN9IdQkhLtt3gXHR4XSzak0V7lLvgMrQRoYDA27oVQkpOpbsQa/jUjBsMQrKgwiEBI0xauRNx2cWmGe9VNqjNETwBchanhESSxOUHBjYjuFJ7xOTc62tSE+lJGeYZS8URbw2KNc/K7jaQ4BA1u2cGOAlWqOUWmE7jQwN95Td40+VQ2hes6VE3OhpeNHr8joA7Y2PjpEUsGV7EHNZXOsR3HwuqOMjmqUmXvYJNzQWTHNF91BBOXCzML4h+0I0ap1viedUrcZRngexoZTnL0eVj+6OWe+fj/7s+dLeclpYBeXW8cUt9UyMEIGKe1vDZrMFSfVQgRoMBVD7GUawcp+rkUKJ687Hwc4fw3cGiQCmBKEE08VuKJKS+OxZOLB8ayrfgTr/WXnOwMADMYz0HvDx80dBHMasuUDbJAA/NvI6tmUBByNQ84b7zbEqcI/3z0fbMBhIJ6hlKj3MSJu0KLurmJEgDWftR8J8SgFKMpudAw06QAmTrjrKYN9BQ0UCeDPoZ0E+L1nxD46ZQMkaGJhhJ3QBzzJqK4VhtZ+4L/hsFcG37o7MjoEHY3DSe0BKVHjN1gMUxbxgD3XT33DW82QHq4DYasjvnxyCjwbAoUES63qf9x3FGVLMkGdCEHetpyKjgZFRy0TccDcOs3U/x0H46LbQpPH3YZkq7BQVQ8mK1e0zsQCjRI13rKgPcvp9wWIikJJ1z9rsOTYw0GEY6T3gU/IuYBEep5afzSSPlpXtA4vzgFToR3fICix2OvSt+Gw+RV7GogOUbjFaDTUBYF5AoxdhY3FVGK2KX6QfqmvelXVI6o7BPGo3m3s20gSCtonecy5KAHBVk464LfuapUL1dIBQ8+NRz0Ohv7jsmwjAy6f7LeUf+OXHMNJ7gOqm5eSZhoWWtLJKddTwWXmW3U9kFsDtVTTevsc/298kGlCa3MgEZgbIg3sMhpKad6hrKBQivkiVfOAIwa37V2sq9UhDvtOO3Yvy3RzU5j/bvEqpfjHg2n9GhbNO0CwQArQYY0XbAzIojnh9yVsW3YGBLRhGeg8gZu9eUqGlm/Y8b5hh/Ud6+fz4Hf5blIM38TncX+5X9a4Ok4zuAMzwMPqaDSJAGUzW9osglgjhXK1oLEqt0eq3+ca7W7ZK0nWkTeAQnnTJBuzQfxp9qG+ui6dmnFkBrFH3Bq1nLghDLWBA9qlGMnCTMIz0jvHxi3eBFwsQEUSjDVZPVJrBagUvK9WhzdECBWeLNJJoUxdCrpR/GBiV6lkW3q+wtotpjxTn3BvRIM+KKH/oEgvJVmfe5COLhsaHZ4VQNc73T/eZfgcAdm6T53T3D5F7xPP0x9jV2Odr2oR1d8BNvruHFBABVNKmJdjAwJtgGOkd43H9J1guJzdTVaRHO0PcZwIoek5aoMXMCZMlHdSurgCAe9NhqI7PXJxY9SS3fHSDYkwja0ORS+NZPwPt4kLshp7KczvfuvQzxDzuulco8UbZe0XMRGb3KpQEUEZkq9j99TjrXwmACFk9CqEWcXzpZPDRA2+OkYK3Y0wLRuJZObcbsNrpozXSbozBjU2apXOpFM7U/sbhnDAid9qn2Zs2gwgvu9zf3Ar7xnCXXGzBSQtEOp8UGVYCy7o8mQh718jeMuLmr76YxaSWtHscAJTExftbLrondIpGhxKIGKp5zvgMDGzF8KR3jMVyCZCCGZBsZd4S22FF0x16Cw3SeNOsBCBBiUFYm3dG7lCL4v7JYfKji/ElDle3jLYeA5Q2XyDjprXvDmjgymmrIKQ9ReseI/Sjy8vuWcnzc/muvbOXojMUWoxsNbg2uj7428I49Ua1D/AS/16BxTJdBNA1Xh6e9MBbwPCkd4iPr96LlMw7JKr8ZpHrp3Api2tZnls9NTfenhlgpdVuFuLXAalMhWeXgJC1EbbvxuDjLY41gZmROu3p2e4g7mIuCwHNUvoUdAA+2iBw7n/2mVi5jWJdgn8GM78u9q+p2Ulswqh7V/Rj88az7Hn1GbgxGEZ6hyBObkA3y30p/isFITU1izZMg9EfAgAZIAkZTOej034F/lt8ZnUH864iNWb5gP06Sc9fKxnf3OlL227BeFuqZe+whUHpUF9P2+lAq7cM1MyaGOl2lsmf2zV1oC2nhjzN0LZDOoz0wFvEMNI7RpbKzSZyTywc55IN0XPSUXZszyKoJgDmnVH0Oyz8tOL87Oxg8yEmCBGKPxuUR7FHlWvdMMotyt9NCzE2o5UogTB5aYu/CU24N+2/+znKaOaZKpaBU6MI25nr2tQgthH+AFX1v3oq7NVEBC+fHO4zHPjlxjDSO8Qn9VddoN+8pOQOFSmBtKc3KuwCNx1mNu6aKh0SZhwAIObtvfyOw4jfA4AyQSh1GRhb/efoOlI4mXqz5avNwOvGiyRW2MLElRY6oLOpGt57m4GjxYBfxjCRJosf+A7K72yPKD+iwFoyRNbd3mlg4EEYRnqHUM/AWHuGWTFM7k4x2DqIg5DIlUzJg1ORf1x5ETfwnmvN5lnL6gjb5BntUDjyMlb0aXYglE4l1gGgZHdsGLuy8XCr3lTp3T85hCddC0y085ap+YmAYMc6obT5QnPnZZ1Wyv3aBI8HBt4cw0jvEBY0JIgAqpXRVCUU6Q3vFO07fdtQl6tfqtGGgiWDk+eiwdLc7h9C4L/DnBue50m3N6ohEnbx/qZdWARCt7xFNdIADiny/zl9xyzoNzeyapxz83ChMPx5Rnm4Ckn5/BwlFmzHJgJUBC8fZAEauAkYRnqH4GSiQJLJo/e6NegfSnhECvafUgZtAhAWUuNsTqwbfwhwfvHGwebz+xd3YR4910y84JLbjrlEnQMZrb+64F+jE93Y8vpbG64ajHvT4eYJYiu7p8jZqPGBGF5prhtPKak7CuXgs2cGul3AKFITAZUhTzrw1jHypHeEj63eB2UzwCLsqVkZVIpQ7IrtxNYcrjpcZCuNslUvbyF7UmJIFrz86GFS0voBJjcwGQQGKKNf3000X1yvQxtDRfUQO44TCOtNTznOizez1fX6IAp/4qdXGM6d9xkd3RC7OxqN7LZEX7Xh4Oux9WHF3pO/B24Uhie9IyhFHrGA2CrM1uqi9s0Fy1EmjKpZIQ2loCAICKnRgYAkQCfI6sAZAbFouFhUii3ARsunurjMKdnITLPsiSawCMwMdetJA9+4c5jFqPWSrfAIiDL+3Fwe3bSa4pv2V4krtC+utgNSsaImUeClxQF3CQO/9BhGekcw8+N5ABzGFlg33VSYqSQvFGPW0AbRlYRmGblCVvywOkCrrA7uVErTwbvc30BUIYWukP6wuEsJa1VzIvt+AYau6ezhPc0495WBaesLvWpQ44OrJ0AU1sCxozbaV67a2UEDHYpvH7gZGEZ6R/iY/Bq67il+QXt/ksjFK5ylFeNR0S0CwnYRUlHy8JeC6as9t/iHg80HAD6TH6u8bFZIU/nYmmNF2FgFiyKJdaKihgYQN3ot9dM/WRHFHs/y63ueWYUVSjbRQKXZGNtSoy1cVTG6uuXx+neo/Gle4+XTkSM98NYxjPSOwCmVlDRuLlhruqre1NTvK/m08SvS1tjDZsER2BZ5lZeuhXFJete+QICWKkogq5o3jOoMVr27kr9R4mcEAZIAJK146XZHUlFS/Q5ZjUfQKn7EQO212A5tW540mTBU8ay3zapJ41Pzug+oMDtwQzAChzsCJdNkaDbHgNZuJoJaV1g30pbeJU3ybUKuXVyUkcWjZznjpTsHTr8jQHgq+d82JoJ44DAkObUZvy1IfmcTadOGj55rkSCe7x7pcwfioz+7fhRQ9c7l8LEB6IK9tuDWT7YZs3o2jhtiAryZbeN5a5PtMsrBBx4Cw5PeFdzg9G2yzC8GEqCELBmCcwDZCxoUoOpjMhRM1s5VlbGWBcS9a6wORwEE1Jv4Ue4Xd9YAABbWSURBVCErAsGhs9viQupAQMgcwca2UARVLGpjQ9DQKAd1Nd33Jx/9loKaelx7jy9PpWfjFsOrXKdV0g8BGul3A28Tw0jvAB9d/Yo7TZdxkk5iSPItr0C9U3arFEcuq2QiRly8NRWF5mN4YJZap0idfOe8pFnblI5Iv2tKwQXsld5Ujm8r+tB4l/cOyEcX2qbpr7iNUeqT8qjeyWrrb9w7b4gAPzcECBuN8tLiQC3PBm4MhpHeBTa29UCXR2uP2H2yKJxnSF1ObBkdCWuvTrQLWjRMouKbB764f//iEb8VGiJc5mRV3k15hwaJ0yw4zY7CClvirzaTIrIdakn84RM7FEKWMqlzB7pBe3eXv6JogryRAVIvq7oQFR3BXU9g4IZjcNI7ABUjrd5wtvWotbutwuaBqVoerhpXSf5cMxaNAYMi5Yysh94mO9dKbDrPLvtMVA0SASBiCBFUjDaARMNd95pdFVDpkpLwhuqAAs/dPWy5tLLJwvbjCcOKef+vBpGf2GZ+9Md1lYtKUBV8a6jfDbxNDCO9A3xMfx1htKT0wqtBJ/gjxZOU1D1fnQ7JOkUUzoy9WH5tloyX7x6Yk3anWGny2xnV7DQHqRfolMwVKfr/pFSyOkgs74XIOrJI0CflFDE0HycPvOTbNA1n664gFkzMJJjQrS/bOn+rzz80xqGHUy8cuDkYdMcOoJjAnJCYwWBkpEJl1Mt6W45tvIBZNSF2KsB/wypf9OBedDAY5F1ZnNroKFsqed3tDAFCJoWQ0QglVc9ipPbazftweSYdlI8GgM/kd9bFArFLqCmEkW0SI5ayu6ledE2n7FJVyq025DgyOwYeBsNI7wAptRsSrcVz6I3YppGOzOIa/TfFDqqBNzlHPqCoUuAz+TEoMVgFTGsgMiDqUP23drm/bcG05R9bloftL9SpnOYJCkQxy8ElPDlGHCmT0Z0loWpeXzKmTp+jpbSaTI541Ferb6XDdHgfuFkYdMeu4Fvb2PpLMb12eyr0R99xGhGw0nbL7C4o2e8XjsFjElxPJNICw+hE+Upw1n68Dz17kJE6w4VyUJfIp/F6luHx3J0D89FuhGtmRoy5lSfdFluo9xMI26QOgxiKTuhlMRoYeJsYnvQV8ZHVr6GaVyrb3gj8ZViWcU9Y1LQ8de3kLg+EAGXrfchZjiMSz97jT88hmqEq/lN9aHL+OcZfHiGCUCxGdWcxh9nI4OmPQAUUTnnW1AA6S5Wej36WtUPaZ/gUWgR9euIw0gMPgWGkrwpm16hngFoGus8o3tQUcja2K36xZ4afypIBEbx4erjGswDw6YtHSrWzKpCzCUWtRCCiEGmNtRnv7DuBojtdDGAt9dCZx0mYCh9/bzp8sU7hmouzHJWB21T+5oYZnp24yUXH9qJ40WQL1bdOjzHHgV92DLrjimBOrkZJXnkHlPS1xn82v5ORuuq0uNjV5Cydn47rPlMvtHQwRNFJvLewGVM27Q72YCJ7Vka40Sk8UEURWu08yQakvgIEvXBgUYvPru50/Lpld5CPhmZqrPP0upIWYhB0GtrRGTFElaA4SvB34GZgGOkrYkoW5GNSkDKUpIvqV8/a8qJbk9WpFVPjlJXsgTzL4T0QmJuiEnJqnGFdVch+g4pgEDGQqGaAuMWrL6cTGGvvZhLLWMPVih6cjxZyTRRNlv/dxf6cky73XUJ3SD2+f9QKe4jIFyMMnf+Bh8agO66IF+VVwHlnKsL9cVlz8xNht6jcAzIYK03ISiVDwnJr/fkCPL/86QFnY/g9erfvCpJ1OS8FOnZbNEGUIEgAL6CwcvcMgWhGppbcmbXPcoTPClWs8zG42jjhsWugEtzbVBu8JHXSn7mRrQLYuWme9q3psDKzAzcHw0jvAN/Cq02waNsFXS9i79VSfgATHTJv1fOSeXKagPDN9PcHmMFstGq5KcEhK8gqJYOoJgZ4AdCEkgOcQ9QeWKsiQ5GJZgbPjbcvSgIgi+IbR+Cjf2/9Dnf4w+uNfOfLnlGXXtvlAJGWI9BZzKF+D2rscRSyDDwcBt2xA0xE7k1mEE0A1hsMZviOgOfhIpd7o4hCyHUfMkBZ8M30kwPOokI8hXC+iQfSRiZDgVpvx5TEc4yrUbPeuoKUY1lyey8KFtniue4f5NknqslmGh6wct/li+I/RndCtPtlh5b7wki7dw7Ft5aH7vI+cFMwPOkd4AX5AVxoFIoJUZCifl9AmxuqyUSUYFtj1QTIBFXzokmB59OPDz6Xx9fvAJFAihfdwr3ouVGNSkJRWIcvJ2EjARxaJTq1tthFVmjO+Oadw3vS1AQJfcRlfIWaoeZvnRveeEzB2usCKlIwJ86573s2AzcZw0jvCN/R76NUCqI1ZF7ejdqho90WG+ebjOd1bTmhCc+nvzvCLNB4ya2+CAHMl39buoBnQkmN0AzbMWQzZDrn54/QbaZA/Fyz0Trt7qBbmS7N8EaTj2N6JRSftXHtUaczgoYDV8Ew0jtCIsJaIhc4uNpIxauNXDXiU0CveEdkanJerfc8/+1R5vEEvxsAivEx75mMf6YFtpK27Olo5IuUTIBMNYMjjBYaz1UB5DXWchwjrW6cxas6FfAmB4Ho1jJLv4uI7uw8zGtWwkYr1DvZDAw8HIaR3hFekO9DFG50GWaok/8wKgVC7nG5N0nRuSR667WNT4+BMFqW0cHk4ylD8nbnxN1TikGLxyhZdggIrFoDcw0FAlnj+SNwtb93flI855hbtAjTWGwCpFtqWVJ3h+2govFwLzMLAC+nkdkx8PAYRnqH+C79EBc54SJPWMvk3KR71rLwi9voDdUE6GS33UAzgBMC/pCePN4k1OgKbY0wc2OomogaJT++4XEjt5iAFApzXqjj7LQ96J1ZXzhKFZ4HB1E9aev07n5zoWtmXnTsKoCyMwBqAVO0RkjlHlu05ShddQZuCkZ2xw7x7pOEH65/gA/ph7ASmAfZkJKqC0BzbdwalYVKSABeSX+Jb8irxxo+Hl+90xx/0uIpGy3gPCspqKFcK/8OgATMlmamgIsyhVcZfqV52QIAki+tRtw7qO15VSGK2sChrEVzQw1bdWBVmNsY664zuiq+c/Lz3Yx74FZiGOkd4mtnrwAAHrmb8IvzjI/xbyOrIKtXngGwU54ts4MYmgWLxPgj/ZPjZwGEQaIo0EhQnrqKusJqkLcmVADEIMo1VEoCIrUmuspGdRSNbH8B1S0aGYfB78u7bI7ssYIZn1wsOJeSwtkrePDTsxF7Mx5C//XxgYGrYBjpPeDJ178DAHjHCeOj9AGshbDOwDoDKyVkTYAztieLhP+Q//NxB+x4Qt9bzKg5+0EAiHvXc48SjadZy+GJxHs1whenLd5olqPw0UAEd6mW3EeqXZMvHVrT3bjDyRaqMcX5a8cOiRSkNIT+B66MYaT3iK++/gq+ilfwz+7+LjQpkFD0LlZiMp/31t879jAriKGcjVklT7srgTMvTGmzi5VK0YoqPDioTfCMvXFA7jlpT3144e5xOmdraKgoN7uHmE/8DiqnaPjZ/2IxBFEBlyBvNeRZY46exbKVEBkYeOsYRvoA+HP3rK87tJaZoGiOWHNClMaFGpKsTcqD9o20rKFu7ZotIc4UiJrwY8ErPDVStn2zUB8nbHLRkTrIs3tqp5k2cyc2HTI86YErYhjpAQDAJ1fvAk1uZtsUu6a8u2Z31KCn13eXnX/bw6WKK83eTPRo+vefPjvxfGjrhF52Ch3YFhLeHCSzQIWLgUazrDXCgWXOI/1u4KoYKXgDhuI9EhQTShqHANs8SjSeson9N1raRYgJbvBnxSCi+ObiSBkPxMggM9RhnDtb7O711oBfNc3tU6sEAFVOOl5WRiHLwNUwjPQAAOBT+k/8FgHsFZNt1xHPa7Y/3USRAlhbkSHB9T5mP0q9EVS1NlzH4mp9jDlSVMKRLkY5Kg3n45ub5uZWSeGIBcx3JKogGep3A1fDMNIDAIA0eRCtFVDidsvv2R26bgpXCKBc+eoScER9nSgWaYy2iuLF0+MEDX8/P1bnqbXohOK/0gGgoXnKUehsdUkVb49sFiVV4FsHbmYwcPMwjPQAAEC5BvkyvPUX5Ro4LGi6aJfMD0L3VdLWkilKELJ0KTlexgPxovN8o1zd7olWYFtSBtHsIlQrLe/VllHKr8qNkR6ZHQNXxwgcDgCIrDhyW+oGuNWFbrf04ULSqv7NMy0PcUMdv4MyUcXzi58ddG4tSm60pxeG41vyuSOtcFulIRRW2m8y/53MEqG0ygoOZa7IPTDwMBie9AA+sX6P3wopUViutHu/Go1o1YpWClc9L24paAx6akhfBVTkaJkdQJuHQl32hmV6zDn1GbQGFRW9gQYAkf55ecQMB3aA4UkPWONZkIukMlitLJw08n5ROphUh1obo6aI5rRFrrQ1hi29q4qXTo+pZdFSMbMsjshEKRz6DFof30ZlSAk42jEvT/9914MfuIUYnvQAPoH3ITbntSGuWnOVRu+ZlAFJ9gN1vlqaQpWWtyWshZFFi242VJGPpB8d0JBe7b763P9dAofUPtF/A9Ia6PCiFU3Q0Z6d5GzXwx+4hRie9ABQwl7RfLb2IgyeNaQ9y5Y/wz1RcfumnQetiA7o7IKttvc/ZtAwoBySseFJX0JvlPujgCfmhpod4gZb4niNW4SXT0dmx8DVMTzpAZT2Xm6PcqenDACm4qchTdqm1NkL+GGV6pBGhtRYADNeLxyZAjDVO59f2wEd9ICu35GeCA8X1lcLn5uZG8U7glyDxWjgZmAY6VuOj6/fC8AdY0VIJ5knjE2DFSKmOvdAi+GuHjWR//irqipeOj1eZsdn8S6Amt6NRemu6m8YLvGqmcAE61bTpE0rUddwBrgeO4aBm4FhpG87Gg9Q3GCZQbX7IjWvCir5bTJDrsJebogiMK2o2hxG7xotcDSR/0ChmYPCqLxzKxjV/o9ym0p+dKmgZ6eHxErkSzBxXgczMHAFDCN9y/EJeV+1J14lSJ2OR/1dNP47cQpyZThvuyWeRUyeb61qQUgssF6n+dsfFKUzeSj1A4i+hLMjZohVjKqn3AZJ4xxEIQsRXk4js2NgNxiBw9uOwrUCDAaTBw2JYF0XZy5hsdTWgYT8JTrzpsHwhndphvDF6ScHmdKDIJygZO3KSk54kV9tZzHzpCWoHPOmGalogxeolqeNasOBXWEY6dsOWgDIpbcfVWcR0bm8eM8N79zy0tEtO3o3hqMqCn8+AwK8tPzpgSfXQ9WChtTmQYfIUtk5tIbaStprEaHOXo+Rqd1VePqdAt85+ce9zmXg9mAY6VuMj63eB0xOcXjWgiiBOPqvVLQG2/hoaVLzjOZQWFBNg0IQBulFY9aPi7UAylQWIoq0uhL7bMOkTdaHWldx9nKfWLCKvt28RdjxpzpwgzCM9C1GiCqB3Dg3GQvt7w5ObUjmmkFM7XOsK0uUdBAs15r4GoQ/yIX+EandVIKipLlLVDEj7h3TS3AxHGZbsJjMgNfyFYMcO0A6cKMwjPQtxifw616UkWHBL4J6h+y5Sa1V3YxSmDJ7kJ3cjhZSSdZgZWQG/pBf2PNs3hwCglBCgs0X8OAmAKXiWwON2dWmgIW6HOk+B0TFsz9sxdvrPAZuF66BezNwfIRwkHoQkVyutEJByEQQ9n6GvsNv6jf8mFTuYDWVuZf5xwecy+V4Qt+P6J4iYEh0U+FqfO3xFKSG/db6SJyVKHXXjW7ojJf4uNz7wM3C8KRvNRaonfm8M3ZUQAPWvcQfMRMU3iKqgS7HE4SpvByFngcRvonrYaQV7AqsBGWFknHNlq3BXdgwOoortNhg8TOhhc7xYxUIgSkz3MOTHtgdhpG+pfho/g3X5XAPOiCu9MZAWNzS5lCpy/6gRoPIqu64BNxY11AivEx/d6AZvTmEJw9uas2P5kanZMbCaxh0bfM+yoQrSa0APOVQFFjIcbrODNxMDCN9S3EyJdC6Vg6aV8wAVb62oElZUwDZg2/kxo6gVq3oZeWkAKmCmfAcrpGRDs1oDdtKLty/Jf+kqbh8UG6Kkx/+l6UhvnRntfvBD9xaDCN9S7FkRgaDPYimzf/Vs/Z9PpFX01H3eCkPV246sBBUM9Yg/Ed67ggzuxxKTml4sFBKnvc8P6NjdS410b0y4BIKRR6ZHQM7xggc3lI8k3+AKTEEC8ADaVGUYiJEBPt6uKwnJbS7/ZruYfnQnSazChZ83BLwbViU0J/Nt5Rxa/jSjrlN9pLvUAu0Q3rqIzhqObJe9sDNwzDStxgv0atQJWSdiuEKL7MY6JAnBRr+NSKLESh0qdMSWGT8e7p34Nm8OV6gvwYQeRpcdwxdRbtld4SOyTwGaNkeTTNepCY9kfCd6e/3OIOB24hBd9xiLFLyhA73AwneuaSpnGu6X9t94X1G1LB1r+2xb/PfHGoKbwvJmRotiw4hGs4WHZJGS1uVoKSoAq0tooycIf7sjOkB7PXAwMNhGOlbjESEtVrlnNHRNd2s3/+j8ZgDlbcOCoGdjw2P9bqBCl3Rcu41wdCYDy3zCAqjY6xLENW86DhCAYimTapkYOCKGHTHLca91fexSIxMCUJcOrIIGKKMhoLdAjNwVvhhPwDhj/jpwwz+IfAN+SFAC2jw74AZ1dKhxSAU2trt/TT7Cc0TtZJ3SmACvndyPXLCB24OhpG+5fg2/SXM2BofnSXVlDwAxj8nhNcIALXgownECSPRpRb92kAAZJogtHAO3X8kVWMdP0B1vCMvemak7RgCUbp8PRsYuAIG3XHLccIJSROyehdsEqhw2fYzovQ51CsqB01qHqm4TOl/wJ8fcypvCYkIF2LhPvGqQnYtkg3+HZj93Rpnp0lKEc+E/7R4av8TGLh1GJ70Lcc31t/D3yz/EguaYMUYZnizMtaacKGWTx0ZEUEVmPYFIcsEVcb3+C+PPZW3hJf1R1C1lgSWrMIQTZX+KAa4b1JbH2uyXUoZeML/zcNAD+wHw5MewDPn3wXdSfjZ2Qof1t+BagaQvXzaNDxy4Z2BkiWsCUyMExa8hF8OIw2Ymc3OoSfkrnlBmF9tcp9N2aO61IXu8QyXR5bLRlx6YGC3GEZ6AADw9BvfBgDcPUn4wPoDWOUEUXEqoK/IIxASM+6eJPz78y8fZ8APiRf0VegEfFB+ywOlBIaXcWsrRlrFlur/Cl++PAtR8ehigf9z/WcHncPA7cIw0gMd7p+/gsUd4DdWv4N1NtojRDuZFImBV/mH+MbqL4DzY4/24fBifhW/m34b51mc2lnCSB1p/OW+tDI6IEaTAFXB6TThD/NXjzCDgduEYaQHNvD1N14B8Ao+vfgf8Nv5tyFKOEmMH6Tv49nz7yLibL/M+FH6K/yG/hbWYjyFIEGQED3Ro1Ql0Ja0KIBEE/5InjzG0AduGYaRHrgUz62+i3X+B7yYfmKc6w3iXZ+++B4uJuA39QOArpuSFXZpUvF2YlSKVaqsP+E/YRjogcNgGOmBB+LF9JNjD2FveG79PWACfnP9AYAUhAwmAEpYCyCmYwqgKcQk4IfTX92oBWvgemMY6YFbjefW38NHpg8iMYFogdNk2dNEwCoLVlmxUsVKCKKKu9MSz62+f+xhD9wiDCM9cOvxH9d//MDH//l7PgoR4I1zwTNvvHKgUQ0MGIaRHhh4E3zlp98+9hAGbjFGxeHAwMDANcYw0gMDAwPXGMNIDwwMDFxjDCM9MDAwcI0xjPTAwMDANcYw0gMDAwPXGMNIDwwMDFxjDCM9MDAwcI0xjPTAwMDANcYw0gMDAwPXGMNIDwwMDFxjDCM9MDAwcI3x/wORJTLLe4wxPAAAAABJRU5ErkJggg==;" vertex="1" parent="1">
          <mxGeometry x="-1510" width="361" height="416" as="geometry" />
        </mxCell>
      </root>
    </mxGraphModel>
  </diagram>
</mxfile>
